%FSTAX24Y24*%
%MOIN*%
%SFA1B1*%

%IPPOS*%
%AMD26*
4,1,8,0.019200,0.011100,-0.019200,0.011100,-0.030300,0.000000,-0.030300,0.000000,-0.019200,-0.011100,0.019200,-0.011100,0.030300,0.000000,0.030300,0.000000,0.019200,0.011100,0.0*
1,1,0.022200,0.019200,0.000000*
1,1,0.022200,-0.019200,0.000000*
1,1,0.022200,-0.019200,0.000000*
1,1,0.022200,0.019200,0.000000*
%
%AMD28*
4,1,8,0.022400,0.009800,-0.022400,0.009800,-0.032200,0.000000,-0.032200,0.000000,-0.022400,-0.009800,0.022400,-0.009800,0.032200,0.000000,0.032200,0.000000,0.022400,0.009800,0.0*
1,1,0.019600,0.022400,0.000000*
1,1,0.019600,-0.022400,0.000000*
1,1,0.019600,-0.022400,0.000000*
1,1,0.019600,0.022400,0.000000*
%
%ADD25R,0.060600X0.022300*%
G04~CAMADD=26~8~0.0~0.0~606.0~223.0~111.0~0.0~15~0.0~0.0~0.0~0.0~0~0.0~0.0~0.0~0.0~0~0.0~0.0~0.0~0.0~606.0~223.0*
%ADD26D26*%
%ADD27R,0.064500X0.019700*%
G04~CAMADD=28~8~0.0~0.0~645.0~197.0~98.0~0.0~15~0.0~0.0~0.0~0.0~0~0.0~0.0~0.0~0.0~0~0.0~0.0~0.0~0.0~645.0~197.0*
%ADD28D28*%
%ADD29R,0.059100X0.039400*%
%ADD30R,0.039400X0.059100*%
%ADD31R,0.047200X0.059100*%
%ADD32R,0.059100X0.047200*%
%ADD33R,0.118100X0.090600*%
%ADD34R,0.137800X0.090600*%
%ADD35R,0.043300X0.023600*%
%ADD36R,0.023600X0.043300*%
%ADD37R,0.048000X0.047200*%
%ADD38R,0.137800X0.224400*%
%ADD39R,0.055100X0.047200*%
%ADD40R,0.047200X0.055100*%
%ADD41R,0.063000X0.078700*%
%ADD42R,0.047200X0.055100*%
%ADD43R,0.055100X0.047200*%
%ADD67C,0.023600*%
%ADD68C,0.047200*%
%ADD69C,0.059100*%
%ADD70C,0.236200*%
%ADD71C,0.074800*%
%ADD72R,0.074800X0.074800*%
%ADD73C,0.086600*%
%ADD74R,0.086600X0.086600*%
%ADD75C,0.050000*%
%LNpcb_iot_source-1*%
%LPD*%
G36*
X016929Y-00003D02*
X0D01*
Y001021*
X000118Y00104*
X000154Y000928*
X000247Y000746*
X000367Y000581*
X000512Y000436*
X000677Y000316*
X00086Y000223*
X001054Y00016*
X001256Y000128*
X001461*
X001663Y00016*
X001857Y000223*
X002039Y000316*
X002205Y000436*
X002349Y000581*
X002469Y000746*
X002562Y000928*
X002625Y001123*
X002657Y001325*
Y001529*
X002625Y001731*
X002562Y001926*
X002469Y002108*
X002349Y002274*
X002205Y002418*
X002039Y002538*
X001857Y002631*
X001663Y002694*
X001461Y002726*
X001256*
X001054Y002694*
X00086Y002631*
X000677Y002538*
X000512Y002418*
X000367Y002274*
X000247Y002108*
X000154Y001926*
X000118Y001815*
X0Y001833*
Y024774*
X014477*
X014496Y024656*
X014324Y0246*
X014142Y024507*
X013976Y024387*
X013832Y024242*
X013712Y024077*
X013619Y023894*
X013556Y0237*
X013524Y023498*
Y023293*
X013556Y023091*
X013619Y022897*
X013712Y022715*
X013832Y022549*
X013976Y022405*
X014142Y022284*
X014324Y022192*
X014519Y022128*
X014721Y022096*
X014925*
X015127Y022128*
X015322Y022192*
X015504Y022284*
X015669Y022405*
X015814Y022549*
X015934Y022715*
X016027Y022897*
X01609Y023091*
X016122Y023293*
Y023498*
X01609Y0237*
X016027Y023894*
X015934Y024077*
X015814Y024242*
X015669Y024387*
X015504Y024507*
X015322Y0246*
X01515Y024656*
X015168Y024774*
X016929*
Y-00003*
G37*
%LNpcb_iot_source-2*%
%LPC*%
G36*
X010754Y022825D02*
X010045D01*
Y022672*
X009764*
Y022766*
X008937*
Y022136*
X009764*
Y02219*
X010045*
Y021998*
X010178*
Y021565*
X010085*
Y021079*
X008981Y019975*
X007657*
Y020305*
X00624*
Y020278*
X006122Y02022*
Y020324*
Y020404*
X005886*
Y020207*
X006005*
X00611*
X006054Y020089*
X005374*
Y019975*
X005177*
Y020089*
X00439*
Y01938*
X004543*
Y018321*
X004499Y018277*
X003903*
X003878Y018282*
X003786Y018264*
X003768Y018252*
X003641*
X003556Y018235*
X003484Y018188*
X003474Y018173*
X003339*
X003298Y018278*
X003305Y018287*
X002588*
X002595Y018278*
X002551Y018165*
X002544Y018155*
X00218Y01779*
X00186*
Y017943*
X001152*
Y017156*
X001265*
Y01687*
X001152*
Y016083*
X001265*
Y015797*
X001283Y015705*
X001336Y015627*
X002077Y014886*
Y013455*
X003386*
Y014228*
X004478*
Y014114*
X005266*
Y014228*
X005925*
Y014144*
X006713*
Y014242*
X006944*
X007028Y014159*
Y014065*
Y014026*
Y013356*
X007815*
Y01347*
X008283*
X008337Y013416*
X008421Y013368*
X008434Y013364*
X00847Y013232*
X008465Y013228*
X008417Y013144*
X008392Y01305*
Y012954*
X008417Y01286*
X008465Y012776*
X008534Y012707*
X008618Y012659*
X008711Y012634*
X008702Y01252*
X008297*
Y012395*
X006752*
Y012477*
X00628*
Y012177*
X006275Y012154*
Y012143*
X00628Y012119*
Y011808*
X006752*
Y011913*
X008259*
X008297Y011811*
Y011732*
Y011024*
X00846*
Y010581*
X008317*
Y010473*
X008144*
Y010593*
X007427*
Y010479*
X007191*
X007099Y010461*
X007021Y010408*
X006756Y010144*
X006704Y010065*
X006685Y009973*
Y009716*
X006591*
Y009244*
X006903*
X006926Y009239*
X006949Y009244*
X007261*
Y009716*
X007167*
Y009874*
X007291Y009997*
X007427*
Y009884*
X008144*
Y009923*
X008262Y009963*
X008317Y009908*
Y009793*
Y009754*
Y009085*
X009104*
Y009188*
X009469*
Y009104*
X010295*
Y009734*
X009469*
Y00967*
X009188*
X009104Y009754*
Y009872*
Y009911*
Y010104*
X009134*
X009226Y010122*
X009301Y010172*
X009314Y01017*
X009419Y010122*
Y01003*
X010285*
Y011053*
X010085*
Y011579*
X010118Y011585*
X010194Y011636*
X010244Y011712*
X010262Y011801*
X010244Y011891*
X010194Y011967*
Y01201*
X010244Y012086*
X010255Y012138*
X01037*
X010381Y012111*
X010386Y012086*
X010413Y012045*
X010465Y011938*
X010452Y011919*
X011231*
X011238Y011931*
X011259Y011947*
X012066*
X01233Y011682*
Y011434*
X012222Y011397*
X012178Y011472*
X012117Y011533*
X012042Y011576*
X012033Y011578*
Y01127*
Y010961*
X012042Y010963*
X012117Y011007*
X012178Y011068*
X012222Y011143*
X012244Y011226*
Y011242*
X012343Y011289*
X012362*
X013957*
Y011406*
X013959Y011417*
Y013661*
X013957Y013673*
Y01377*
X013889*
X013885Y013773*
X013839Y013782*
X011949*
Y013789*
X01124*
X011161*
X010453*
Y013002*
X010547*
Y012772*
X010512Y012765*
X010436Y012715*
X010386Y012639*
X010376Y012589*
X010265Y0126*
X010258Y012616*
Y012779*
X009894*
X009836Y01279*
X009312*
X009128Y012974*
Y01305*
X009103Y013144*
X009054Y013228*
X008986Y013297*
X008902Y013345*
X008889Y013349*
X008853Y01348*
X008858Y013485*
X008906Y013569*
X008931Y013662*
Y013759*
X008906Y013853*
X008858Y013937*
X008789Y014005*
X008705Y014054*
X008611Y014079*
X008515*
X008421Y014054*
X008337Y014005*
X008283Y013951*
X007898*
X007815Y014035*
Y014144*
X007902Y014257*
X011456*
X011548Y014276*
X011626Y014328*
X011944Y014645*
X011965Y01465*
X012277*
Y015122*
X011965*
X011942Y015127*
X011844*
X01182Y015122*
X011607*
Y01499*
X011356Y014739*
X007815*
Y014852*
X007028*
Y014724*
X006713*
Y014852*
X00656*
Y015393*
X006614Y015404*
X00669Y015455*
X00674Y015531*
X006758Y01562*
X00674Y01571*
X00669Y015786*
X006614Y015836*
X006524Y015854*
X006367*
X006332Y015861*
X006326*
X006291Y015854*
X006141*
X006051Y015836*
X005975Y015786*
X005925Y01571*
X005907Y01562*
X005925Y015531*
X005975Y015455*
X006051Y015404*
X006078Y015399*
Y014852*
X005925*
Y014709*
X005349*
X005266Y014793*
Y014902*
Y014941*
Y01561*
X005113*
Y016029*
X005266*
Y016142*
X006078*
X006154Y016127*
X006332*
X006367Y016134*
X006524*
X006614Y016152*
X00669Y016203*
X00674Y016279*
X006758Y016368*
X00674Y016458*
X00669Y016534*
X006614Y016584*
X006524Y016602*
X006367*
X006332Y016609*
X006215*
X006139Y016624*
X005266*
Y016738*
X004478*
Y016029*
X004631*
Y01561*
X004478*
Y014941*
Y014823*
X004391Y014709*
X003386*
Y01502*
Y016968*
X003356Y016998*
X002077*
Y015721*
X001968Y015676*
X001747Y015897*
Y016083*
X00186*
Y01687*
X001747*
Y017156*
X00186*
Y017308*
X002279*
X002372Y017327*
X00245Y017379*
X002852Y017781*
X002923*
X003015Y017799*
X003027Y017807*
X003039Y017809*
X003041Y017811*
X00317*
X003255Y017828*
X003327Y017875*
X003337Y01789*
X003474*
X003484Y017875*
X003556Y017828*
X003641Y017811*
X00377*
X003772Y017809*
X003865Y017791*
X003868*
X003893Y017796*
X004509*
X004557Y017747*
X004641Y017698*
X004735Y017673*
X004832*
X004926Y017698*
X005009Y017747*
X005078Y017815*
X005126Y017899*
X005152Y017993*
Y01809*
X005126Y018183*
X005078Y018267*
X005024Y018321*
Y01938*
X005177*
Y019493*
X005374*
Y01938*
X006161*
X00624Y019294*
Y019163*
X007657*
Y019493*
X008489*
X008524Y019375*
X008492Y019353*
X008353Y019215*
X008301Y019137*
X008283Y019045*
Y01818*
X007398*
X007375Y018175*
X007064*
Y017703*
X007375*
X007398Y017698*
X008385*
X008477Y017716*
X008556Y017769*
X008694Y017907*
X008746Y017985*
X008764Y018077*
Y018942*
X009652*
X009684Y018824*
X00967Y018816*
X009609Y018755*
X009566Y01868*
X009563Y018671*
X010181*
X010178Y01868*
X010135Y018755*
X010074Y018816*
X01006Y018824*
X010092Y018942*
X010392*
X010419Y018916*
Y01813*
X010305*
Y017343*
X010414*
Y017141*
X01033Y017057*
X010217*
X010177*
X009508*
Y01627*
X009616*
Y015994*
X009498*
Y015841*
X00879*
X008763Y015866*
X008057*
X00806Y015857*
X007992Y015739*
X007827*
X007809Y01585*
X0078Y015876*
X007388*
X006976*
X006967Y01585*
Y015391*
X007304*
X007395Y015373*
X007429Y015379*
X007466*
X007518Y015328*
X007596Y015276*
X007688Y015257*
X00866*
X008752Y015276*
X00883Y015328*
X008862Y01536*
X009498*
Y015207*
X010167*
X010285*
X010325*
X010994*
Y01536*
X011818*
X01191Y015378*
X011921Y015385*
X011942*
X011965Y01539*
X012277*
Y015862*
X011965*
X011942Y015867*
X011844*
X01182Y015862*
X011607*
Y015841*
X010994*
Y015994*
X010325*
X010207*
X010111Y016073*
X010107Y016195*
X010182Y01627*
X010295*
X010335*
X011004*
Y017057*
X010895*
Y017343*
X011014*
Y01813*
X0109*
Y019016*
X010882Y019108*
X01083Y019186*
X010662Y019353*
X010584Y019406*
X010492Y019424*
X009254*
X009218Y019542*
X009251Y019564*
X010425Y020738*
X010793*
Y021565*
X01066*
Y021998*
X010754*
Y022825*
G37*
G36*
X012041D02*
X011333D01*
Y021998*
X012041*
Y022171*
X012329*
X012382Y022117*
X012466Y022068*
X01256Y022043*
X012657*
X01275Y022068*
X012834Y022117*
X012903Y022185*
X012951Y022269*
X012976Y022363*
Y02246*
X012951Y022554*
X012903Y022637*
X012834Y022706*
X01275Y022754*
X012657Y02278*
X01256*
X012466Y022754*
X012382Y022706*
X012329Y022652*
X012041*
Y022825*
G37*
G36*
X007618Y022234D02*
X007067D01*
Y021821*
X007618*
Y022234*
G37*
G36*
X006831D02*
X00628D01*
Y021821*
X006831*
Y022234*
G37*
G36*
X001677Y0244D02*
X001473D01*
X001271Y024368*
X001076Y024304*
X000894Y024212*
X000728Y024091*
X000584Y023947*
X000464Y023781*
X000371Y023599*
X000308Y023405*
X000276Y023203*
Y022998*
X000308Y022796*
X000371Y022602*
X000464Y022419*
X000584Y022254*
X000728Y022109*
X000894Y021989*
X001076Y021896*
X001271Y021833*
X001473Y021801*
X001677*
X001879Y021833*
X002074Y021896*
X002256Y021989*
X002421Y022109*
X002566Y022254*
X002686Y022419*
X002779Y022602*
X002842Y022796*
X002874Y022998*
Y023203*
X002842Y023405*
X002779Y023599*
X002686Y023781*
X002566Y023947*
X002421Y024091*
X002256Y024212*
X002074Y024304*
X001879Y024368*
X001677Y0244*
G37*
G36*
X007785Y023449D02*
X007688D01*
X007594Y023424*
X00751Y023375*
X007442Y023307*
X007393Y023223*
X007368Y023129*
Y023032*
X007393Y022939*
X007442Y022855*
X00751Y022786*
X007594Y022738*
X007688Y022713*
X007764*
X007972Y022504*
Y022175*
Y022057*
Y022018*
Y021348*
X00876*
Y021442*
X008937*
Y021348*
X009764*
Y021978*
X008937*
Y021924*
X00876*
Y022136*
Y022175*
Y022844*
X008313*
X008104Y023053*
Y023129*
X008079Y023223*
X008031Y023307*
X007962Y023375*
X007878Y023424*
X007785Y023449*
G37*
G36*
X007618Y021585D02*
X007067D01*
Y021171*
X007618*
Y021585*
G37*
G36*
X006831D02*
X00628D01*
Y021171*
X006831*
Y021585*
G37*
G36*
X005138Y020837D02*
X004902D01*
Y02064*
X005138*
Y020837*
G37*
G36*
X004665D02*
X004429D01*
Y02064*
X004665*
Y020837*
G37*
G36*
X006122D02*
X005886D01*
Y02064*
X006122*
Y020837*
G37*
G36*
X00565D02*
X005413D01*
Y02064*
X00565*
Y020837*
G37*
G36*
X005138Y020404D02*
X004902D01*
Y020207*
X005138*
Y020404*
G37*
G36*
X004665D02*
X004429D01*
Y020207*
X004665*
Y020404*
G37*
G36*
X00565D02*
X005413D01*
Y020207*
X00565*
Y020404*
G37*
G36*
X003327Y020089D02*
X00313D01*
Y019852*
X003327*
Y020089*
G37*
G36*
X002894D02*
X002697D01*
Y019852*
X002894*
Y020089*
G37*
G36*
X003327Y019616D02*
X00313D01*
Y01938*
X003327*
Y019616*
G37*
G36*
X002894D02*
X002697D01*
Y01938*
X002894*
Y019616*
G37*
G36*
X012028Y019374D02*
Y019183D01*
X012218*
X012216Y019192*
X012173Y019267*
X012111Y019328*
X012036Y019371*
X012028Y019374*
G37*
G36*
X011791D02*
X011783Y019371D01*
X011708Y019328*
X011646Y019267*
X011603Y019192*
X011601Y019183*
X011791*
Y019374*
G37*
G36*
X004154Y020128D02*
X003445D01*
Y019341*
X003616*
Y018995*
X003556Y018984*
X003505Y018949*
X003419Y018976*
X003387Y018996*
X003383*
X003047*
X003039Y019002*
X002946Y01902*
X002137*
X001844Y019313*
Y019389*
X001819Y019483*
X001771Y019567*
X001702Y019635*
X001618Y019684*
X001525Y019709*
X001428*
X001334Y019684*
X00125Y019635*
X001182Y019567*
X001133Y019483*
X001108Y019389*
Y019292*
X001133Y019198*
X001182Y019115*
X00125Y019046*
X001334Y018998*
X001428Y018972*
X001504*
X001867Y018609*
X001945Y018557*
X002037Y018539*
X002457*
X002474Y018527*
X002477Y018524*
X003372*
X003387Y018563*
X003419Y018583*
X003505Y01861*
X003556Y018576*
X003641Y018559*
X003765*
X003768Y018557*
X00386Y018539*
X003865*
X003957Y018557*
X003959Y018559*
X004089*
X004173Y018576*
X004245Y018623*
X004293Y018695*
X004309Y01878*
X004293Y018864*
X004245Y018936*
X004173Y018984*
X004097Y018999*
Y019341*
X004154*
Y020128*
G37*
G36*
X012218Y018947D02*
X012028D01*
Y018756*
X012036Y018759*
X012111Y018802*
X012173Y018863*
X012216Y018938*
X012218Y018947*
G37*
G36*
X011791D02*
X011601D01*
X011603Y018938*
X011646Y018863*
X011708Y018802*
X011783Y018759*
X011791Y018756*
Y018947*
G37*
G36*
X001378Y018704D02*
Y018514D01*
X001569*
X001566Y018523*
X001523Y018598*
X001462Y018659*
X001387Y018702*
X001378Y018704*
G37*
G36*
X001142D02*
X001133Y018702D01*
X001058Y018659*
X000997Y018598*
X000953Y018523*
X000951Y018514*
X001142*
Y018704*
G37*
G36*
X010181Y018435D02*
X00999D01*
Y018244*
X009999Y018247*
X010074Y01829*
X010135Y018351*
X010178Y018426*
X010181Y018435*
G37*
G36*
X009754D02*
X009563D01*
X009566Y018426*
X009609Y018351*
X00967Y01829*
X009745Y018247*
X009754Y018244*
Y018435*
G37*
G36*
X001569Y018278D02*
X001378D01*
Y018087*
X001387Y018089*
X001462Y018133*
X001523Y018194*
X001566Y018269*
X001569Y018278*
G37*
G36*
X001142D02*
X000951D01*
X000953Y018269*
X000997Y018194*
X001058Y018133*
X001133Y018089*
X001142Y018087*
Y018278*
G37*
G36*
X010187Y018091D02*
X00999D01*
Y017854*
X010187*
Y018091*
G37*
G36*
X009754D02*
X009557D01*
Y017854*
X009754*
Y018091*
G37*
G36*
X012224Y018041D02*
X012028D01*
Y017805*
X012224*
Y018041*
G37*
G36*
X011791D02*
X011594D01*
Y017805*
X011791*
Y018041*
G37*
G36*
X001033Y017904D02*
X000837D01*
Y017667*
X001033*
Y017904*
G37*
G36*
X0006D02*
X000404D01*
Y017667*
X0006*
Y017904*
G37*
G36*
X010187Y017618D02*
X00999D01*
Y017382*
X010187*
Y017618*
G37*
G36*
X009754D02*
X009557D01*
Y017382*
X009754*
Y017618*
G37*
G36*
X013051Y018081D02*
X012343D01*
Y017293*
X013051*
Y017436*
X013612*
Y017352*
X014439*
Y017982*
X013612*
Y017918*
X013051*
Y018081*
G37*
G36*
X012224Y017569D02*
X012028D01*
Y017333*
X012224*
Y017569*
G37*
G36*
X011791D02*
X011594D01*
Y017333*
X011791*
Y017569*
G37*
G36*
X006873Y017805D02*
X006204D01*
Y017333*
X006873*
Y017805*
G37*
G36*
X005226Y017486D02*
X00499D01*
Y017289*
X005226*
Y017486*
G37*
G36*
X004754D02*
X004518D01*
Y017289*
X004754*
Y017486*
G37*
G36*
X001033Y017431D02*
X000837D01*
Y017195*
X001033*
Y017431*
G37*
G36*
X0006D02*
X000404D01*
Y017195*
X0006*
Y017431*
G37*
G36*
X005226Y017053D02*
X00499D01*
Y016856*
X005226*
Y017053*
G37*
G36*
X004754D02*
X004518D01*
Y016856*
X004754*
Y017053*
G37*
G36*
X008533Y017573D02*
X008436D01*
X008342Y017548*
X008258Y017499*
X008199Y01744*
X007393*
X00737Y017435*
X007064*
Y016963*
X007152*
Y016593*
X007107Y016584*
X007031Y016534*
X00698Y016458*
X006962Y016368*
X00698Y016279*
X007007Y016238*
X007059Y016131*
X007047Y016112*
X007388*
X007729*
X007717Y016131*
X007769Y016238*
X007796Y016279*
X007814Y016368*
X007796Y016458*
X007745Y016534*
X007669Y016584*
X007634Y016591*
Y016958*
X00821*
X008258Y01691*
X008342Y016862*
X008436Y016837*
X008533*
X008626Y016862*
X00871Y01691*
X008779Y016979*
X008827Y017063*
X008852Y017156*
Y017253*
X008827Y017347*
X008779Y017431*
X00871Y017499*
X008626Y017548*
X008533Y017573*
G37*
G36*
X001033Y016831D02*
X000837D01*
Y016594*
X001033*
Y016831*
G37*
G36*
X0006D02*
X000404D01*
Y016594*
X0006*
Y016831*
G37*
G36*
X001033Y016358D02*
X000837D01*
Y016122*
X001033*
Y016358*
G37*
G36*
X0006D02*
X000404D01*
Y016122*
X0006*
Y016358*
G37*
G36*
X008484Y016293D02*
Y016102D01*
X008675*
X008672Y016111*
X008629Y016186*
X008568Y016247*
X008493Y016291*
X008484Y016293*
G37*
G36*
X008248D02*
X008239Y016291D01*
X008164Y016247*
X008103Y016186*
X00806Y016111*
X008057Y016102*
X008248*
Y016293*
G37*
G36*
X014439Y017195D02*
X013612D01*
Y016565*
X013785*
Y016252*
X01377Y016243*
X013701Y016175*
X013653Y016091*
X013628Y015997*
Y015921*
X013203Y015497*
X012802*
X012779Y015492*
X012467*
Y01502*
X012779*
X012802Y015015*
X013303*
X013395Y015033*
X013473Y015086*
X013884Y015496*
X014018Y015476*
X014042Y01546*
X014057Y01545*
X014103Y015441*
X015059*
X015105Y01545*
X015144Y015476*
X015302Y015633*
X015328Y015672*
X015337Y015718*
Y015719*
Y016112*
X015328Y016158*
X015302Y016197*
X015144Y016355*
X015105Y016381*
X015059Y01639*
X014266*
Y016565*
X014439*
Y017195*
G37*
G36*
X012081Y021565D02*
X011372D01*
Y020738*
X012081*
Y02098*
X016236*
Y014867*
X015929*
X015876Y014921*
X015792Y014969*
X015698Y014994*
X015601*
X015508Y014969*
X015424Y014921*
X015355Y014852*
X015307Y014768*
X015281Y014674*
Y014598*
X01483Y014147*
X014777Y014069*
X014759Y013976*
Y013802*
X014311*
X014265Y013792*
X014231Y01377*
X014193*
Y013693*
X014191Y013681*
Y01122*
X0142Y011174*
X014226Y011135*
X014397Y010965*
X014348Y010846*
X014065*
Y010059*
X014437*
Y009793*
X014065*
Y009006*
X014437*
Y008671*
X014404Y008632*
X014154*
Y008396*
X014469*
Y008159*
X014154*
Y007923*
X014254*
X014308Y007805*
X014262Y007746*
X014075*
Y00762*
X014072Y007608*
Y007057*
X014075Y007045*
Y006919*
X014783*
Y006937*
X015689*
X015735Y006946*
X015774Y006972*
X0158Y007011*
X015809Y007057*
Y013681*
X015807Y013693*
Y01377*
X015769*
X015735Y013792*
X015689Y013802*
X015333*
X015284Y01392*
X015622Y014258*
X015698*
X015792Y014283*
X015876Y014331*
X015929Y014385*
X016432*
X016476Y014376*
X016569Y014395*
X016647Y014447*
X016699Y014525*
X016717Y014617*
Y021082*
X016699Y021174*
X016647Y021252*
X016508Y021391*
X01643Y021443*
X016338Y021461*
X012081*
Y021565*
G37*
G36*
X006673Y014026D02*
X006437D01*
Y013829*
X006673*
Y014026*
G37*
G36*
X006201D02*
X005965D01*
Y013829*
X006201*
Y014026*
G37*
G36*
X006673Y013593D02*
X006437D01*
Y013396*
X006673*
Y013593*
G37*
G36*
X006201D02*
X005965D01*
Y013396*
X006201*
Y013593*
G37*
G36*
X011135Y011683D02*
X010912D01*
Y011607*
X010985*
X011059Y011622*
X011122Y011664*
X011135Y011683*
G37*
G36*
X010675D02*
X010452D01*
X010465Y011664*
X010528Y011622*
X010602Y011607*
X010675*
Y011683*
G37*
G36*
X007083Y011578D02*
X007004D01*
Y011401*
X007083*
Y011578*
G37*
G36*
X006768D02*
X006689D01*
Y011401*
X006768*
Y011578*
G37*
G36*
X011797D02*
X011788Y011576D01*
X011714Y011533*
X011652Y011472*
X011609Y011397*
X011607Y011388*
X011797*
Y011578*
G37*
G36*
X007736D02*
Y011388D01*
X007927*
X007924Y011397*
X007881Y011472*
X00782Y011533*
X007745Y011576*
X007736Y011578*
G37*
G36*
X0075D02*
X007491Y011576D01*
X007416Y011533*
X007355Y011472*
X007312Y011397*
X007309Y011388*
X0075*
Y011578*
G37*
G36*
X00562Y01161D02*
X00497D01*
Y011197*
X00562*
Y01161*
G37*
G36*
X004734D02*
X004085D01*
Y011197*
X004734*
Y01161*
G37*
G36*
X007083Y011164D02*
X007004D01*
Y010987*
X007083*
Y011164*
G37*
G36*
X006768D02*
X006689D01*
Y010987*
X006768*
Y011164*
G37*
G36*
X011797Y011152D02*
X011607D01*
X011609Y011143*
X011652Y011068*
X011714Y011007*
X011788Y010963*
X011797Y010961*
Y011152*
G37*
G36*
X007927D02*
X007736D01*
Y010961*
X007745Y010963*
X00782Y011007*
X007881Y011068*
X007924Y011143*
X007927Y011152*
G37*
G36*
X0075D02*
X007309D01*
X007312Y011143*
X007355Y011068*
X007416Y011007*
X007491Y010963*
X0075Y010961*
Y011152*
G37*
G36*
X011427Y011014D02*
X011152D01*
Y010659*
X011427*
Y011014*
G37*
G36*
X010915D02*
X01064D01*
Y010659*
X010915*
Y011014*
G37*
G36*
X013514Y010807D02*
X013317D01*
Y010672*
X013199Y01064*
X013196Y010645*
X013135Y010706*
X01306Y010749*
X013051Y010752*
Y010443*
Y010134*
X01306Y010137*
X013135Y01018*
X013196Y010241*
X013199Y010246*
X013317Y010214*
Y010098*
X013514*
Y010453*
Y010807*
G37*
G36*
X013947D02*
X01375D01*
Y010571*
X013947*
Y010807*
G37*
G36*
X012815Y010752D02*
X012806Y010749D01*
X012731Y010706*
X01267Y010645*
X012627Y01057*
X012624Y010561*
X012815*
Y010752*
G37*
G36*
X012033D02*
Y010561D01*
X012224*
X012222Y01057*
X012178Y010645*
X012117Y010706*
X012042Y010749*
X012033Y010752*
G37*
G36*
X011797D02*
X011788Y010749D01*
X011714Y010706*
X011652Y010645*
X011609Y01057*
X011607Y010561*
X011797*
Y010752*
G37*
G36*
X00562Y010961D02*
X00497D01*
Y010547*
X00562*
Y010961*
G37*
G36*
X004734D02*
X004085D01*
Y010547*
X004734*
Y010961*
G37*
G36*
X012815Y010325D02*
X012624D01*
X012627Y010316*
X01267Y010241*
X012731Y01018*
X012806Y010137*
X012815Y010134*
Y010325*
G37*
G36*
X012224D02*
X012033D01*
Y010134*
X012042Y010137*
X012117Y01018*
X012178Y010241*
X012222Y010316*
X012224Y010325*
G37*
G36*
X011797D02*
X011607D01*
X011609Y010316*
X011652Y010241*
X011714Y01018*
X011788Y010137*
X011797Y010134*
Y010325*
G37*
G36*
X013947Y010335D02*
X01375D01*
Y010098*
X013947*
Y010335*
G37*
G36*
X011427Y010423D02*
X011152D01*
Y010069*
X011427*
Y010423*
G37*
G36*
X010915D02*
X01064D01*
Y010069*
X010915*
Y010423*
G37*
G36*
X006382Y011617D02*
X00591D01*
Y011306*
X005905Y011283*
Y010554*
X005923Y010461*
X00594Y010437*
X005925Y010383*
Y010286*
X00595Y010193*
X005999Y010109*
X006067Y01004*
X006151Y009992*
X006245Y009967*
X006342*
X006435Y009992*
X006519Y01004*
X006588Y010109*
X006636Y010193*
X006661Y010286*
Y010383*
X006636Y010477*
X006588Y010561*
X006519Y010629*
X006435Y010678*
X006387Y010691*
Y011283*
X006382Y011306*
Y011617*
G37*
G36*
X013514Y009754D02*
X013317D01*
Y009648*
X013199Y009616*
X013196Y009621*
X013135Y009682*
X01306Y009726*
X013051Y009728*
Y009419*
Y009111*
X01306Y009113*
X013135Y009156*
X013196Y009217*
X013199Y009222*
X013317Y00919*
Y009045*
X013514*
Y0094*
Y009754*
G37*
G36*
X012033Y009767D02*
Y009577D01*
X012224*
X012222Y009586*
X012178Y009661*
X012117Y009722*
X012042Y009765*
X012033Y009767*
G37*
G36*
X011797D02*
X011788Y009765D01*
X011714Y009722*
X011652Y009661*
X011609Y009586*
X011607Y009577*
X011797*
Y009767*
G37*
G36*
X012815Y009728D02*
X012806Y009726D01*
X012731Y009682*
X01267Y009621*
X012627Y009546*
X012624Y009537*
X012815*
Y009728*
G37*
G36*
X013947Y009754D02*
X01375D01*
Y009518*
X013947*
Y009754*
G37*
G36*
X012224Y009341D02*
X012033D01*
Y00915*
X012042Y009152*
X012117Y009196*
X012178Y009257*
X012222Y009332*
X012224Y009341*
G37*
G36*
X011797D02*
X011607D01*
X011609Y009332*
X011652Y009257*
X011714Y009196*
X011788Y009152*
X011797Y00915*
Y009341*
G37*
G36*
X012815Y009301D02*
X012624D01*
X012627Y009292*
X01267Y009217*
X012731Y009156*
X012806Y009113*
X012815Y009111*
Y009301*
G37*
G36*
X013947Y009281D02*
X01375D01*
Y009045*
X013947*
Y009281*
G37*
G36*
X010256Y008907D02*
X01D01*
Y00875*
X010256*
Y008907*
G37*
G36*
X009764D02*
X009508D01*
Y00875*
X009764*
Y008907*
G37*
G36*
X003366Y011575D02*
X002087D01*
Y008031*
X003396*
Y008559*
X003455*
Y008869*
X004045*
Y008539*
X005659*
Y008869*
X006066*
X006089Y008874*
X006401*
Y009346*
X006089*
X006066Y009351*
X005659*
Y009681*
X004045*
Y009351*
X003455*
Y009661*
X003396*
Y010469*
X003415Y010543*
Y010678*
X003396Y010751*
Y011545*
X003366Y011575*
G37*
G36*
X010256Y008514D02*
X01D01*
Y008356*
X010256*
Y008514*
G37*
G36*
X009764D02*
X009508D01*
Y008356*
X009764*
Y008514*
G37*
G36*
X008898Y008337D02*
X008701D01*
Y0081*
X008898*
Y008337*
G37*
G36*
X008465D02*
X008268D01*
Y0081*
X008465*
Y008337*
G37*
G36*
X011988Y00873D02*
X011358D01*
Y007904*
X011988*
Y00873*
G37*
G36*
X012776D02*
X012146D01*
Y007904*
X012776*
Y008056*
X013327*
Y007884*
X014035*
Y008671*
X013327*
Y008538*
X012776*
Y00873*
G37*
G36*
X008898Y007864D02*
X008701D01*
Y007628*
X008898*
Y007864*
G37*
G36*
X008465D02*
X008268D01*
Y007628*
X008465*
Y007864*
G37*
G36*
X008144Y009093D02*
X007427D01*
Y008981*
X006926*
X006903Y008976*
X006591*
Y008504*
X006903*
X006926Y008499*
X007427*
Y008384*
X007441Y008376*
Y007589*
X00815*
Y008376*
X008144Y008384*
Y009093*
G37*
G36*
X013496Y007746D02*
X012787D01*
Y007356*
X012784Y007333*
X012787Y007309*
Y006919*
X012812*
Y006215*
X012608*
Y00606*
X01249Y006037*
X012485Y006042*
X012411Y006099*
X012325Y006135*
X012232Y006147*
X010726*
Y006203*
X010018*
Y005813*
X010015Y005789*
X010018Y005766*
Y005376*
X010726*
Y005432*
X011134*
X011142Y005317*
Y005314*
Y004687*
X011314*
Y004213*
X011161*
Y003504*
X011949*
Y004213*
X011796*
Y004687*
X011968*
Y005314*
Y005317*
X011975Y005412*
X012094Y005423*
X012106Y005411*
X01218Y005354*
X012266Y005318*
X012358Y005306*
X012608*
Y005112*
X013711*
Y005361*
X014744*
X014767Y005364*
X015157*
Y006073*
X014767*
X014744Y006076*
X013711*
Y006215*
X013527*
Y007305*
X013514Y007398*
X013496Y007442*
Y007746*
G37*
G36*
X005581Y006388D02*
X004931D01*
Y005974*
X005581*
Y006388*
G37*
G36*
X004695D02*
X004045D01*
Y005974*
X004695*
Y006388*
G37*
G36*
X005581Y005738D02*
X004931D01*
Y005325*
X005581*
Y005738*
G37*
G36*
X004695D02*
X004045D01*
Y005325*
X004695*
Y005738*
G37*
G36*
X013278Y004662D02*
Y004281D01*
X013658*
X013636Y004361*
X013569Y004478*
X013474Y004573*
X013357Y00464*
X013278Y004662*
G37*
G36*
X013041D02*
X012962Y00464D01*
X012845Y004573*
X01275Y004478*
X012683Y004361*
X012661Y004281*
X013041*
Y004662*
G37*
G36*
X015157Y004785D02*
X014331D01*
Y004649*
X014305Y004623*
X014279Y004583*
X014269Y004537*
Y004469*
X013756Y003956*
X01365Y004017*
X013658Y004045*
X013278*
Y003665*
X013306Y003673*
X013367Y003567*
X012411Y002611*
X011437*
X011391Y002601*
X011352Y002575*
X011194Y002418*
X011168Y002379*
X011159Y002333*
Y001978*
X011168Y001932*
X011194Y001893*
X011352Y001736*
X011391Y00171*
X011437Y0017*
X012736*
X012782Y00171*
X012821Y001736*
X015184Y004098*
X01521Y004137*
X015219Y004183*
Y004537*
X01521Y004583*
X015184Y004623*
X015157Y004649*
Y004785*
G37*
G36*
X009359Y003908D02*
X009162D01*
Y003672*
X009359*
Y003908*
G37*
G36*
X008926D02*
X008729D01*
Y003672*
X008926*
Y003908*
G37*
G36*
X010984Y003907D02*
X010787D01*
Y003671*
X010984*
Y003907*
G37*
G36*
X010551D02*
X010354D01*
Y003671*
X010551*
Y003907*
G37*
G36*
X013041Y004045D02*
X012661D01*
X012683Y003966*
X01275Y003849*
X012845Y003754*
X012962Y003686*
X013041Y003665*
Y004045*
G37*
G36*
X003376Y006368D02*
X002096D01*
Y002825*
X003406*
Y003333*
X003455*
Y003526*
X004006*
Y003317*
X00562*
Y00353*
X006224*
X006298Y00354*
X006332*
X006424Y003552*
X00651Y003588*
X006585Y003645*
X006597Y003661*
X006666*
Y00378*
X006677Y003805*
X006689Y003898*
X006677Y00399*
X006666Y004016*
Y004134*
X006597*
X006585Y00415*
X00651Y004207*
X006424Y004243*
X006332Y004255*
X006233*
X006159Y004245*
X00562*
Y004459*
X004006*
Y004241*
X003455*
Y004435*
X003406*
Y00528*
X003415Y005316*
Y005451*
X003406Y005488*
Y006339*
X003376Y006368*
G37*
G36*
X009359Y003436D02*
X009162D01*
Y0032*
X009359*
Y003436*
G37*
G36*
X008926D02*
X008729D01*
Y0032*
X008926*
Y003436*
G37*
G36*
X010984Y003435D02*
X010787D01*
Y003199*
X010984*
Y003435*
G37*
G36*
X010551D02*
X010354D01*
Y003199*
X010551*
Y003435*
G37*
G36*
X011909Y003386D02*
X011673D01*
Y003189*
X011909*
Y003386*
G37*
G36*
X011437D02*
X011201D01*
Y003189*
X011437*
Y003386*
G37*
G36*
X006256Y006988D02*
X006126D01*
X006001Y006955*
X005889Y00689*
X005797Y006798*
X005732Y006686*
X005699Y006561*
Y006431*
X005732Y006306*
X005797Y006194*
X005885Y006106*
X005884Y006088*
X00585Y005988*
X005699*
Y005004*
X006683*
X006775Y00494*
Y004268*
X006789Y00416*
X006831Y004059*
X006897Y003973*
X006983Y003907*
X007043Y003882*
X007019Y003764*
X006857*
Y003291*
X007526*
Y003316*
X007902*
Y00316*
X008611*
Y003948*
X008606*
Y004395*
X008724Y004447*
X00877Y004405*
Y004301*
X009058*
X009085Y004298*
X009112Y004301*
X0094*
Y004406*
X009458Y004443*
X009557Y004384*
Y004301*
X009636*
Y003947*
X009528*
Y003159*
X010236*
Y003947*
X010118*
Y004301*
X010187*
Y005128*
X00962*
X009557*
X009502Y005223*
Y005789*
X009487Y005897*
X009446Y005998*
X009439Y006007*
Y006203*
X009112*
X009085Y006206*
X008347*
X008338Y00621*
X00823Y006224*
X00751*
X007402Y00621*
X007301Y006168*
X007215Y006102*
X007019Y005906*
X006683*
Y005988*
X006532*
X006498Y006088*
X006497Y006106*
X006585Y006194*
X00665Y006306*
X006683Y006431*
Y006561*
X00665Y006686*
X006585Y006798*
X006493Y00689*
X006381Y006955*
X006256Y006988*
G37*
G36*
X011909Y002953D02*
X011673D01*
Y002756*
X011909*
Y002953*
G37*
G36*
X011437D02*
X011201D01*
Y002756*
X011437*
Y002953*
G37*
G36*
X014886Y002844D02*
X014681D01*
X014479Y002812*
X014285Y002749*
X014103Y002656*
X013937Y002536*
X013792Y002392*
X013672Y002226*
X013579Y002044*
X013516Y00185*
X013484Y001648*
Y001443*
X013516Y001241*
X013579Y001047*
X013672Y000864*
X013792Y000699*
X013937Y000554*
X014103Y000434*
X014285Y000341*
X014479Y000278*
X014681Y000246*
X014886*
X015088Y000278*
X015282Y000341*
X015464Y000434*
X01563Y000554*
X015774Y000699*
X015895Y000864*
X015987Y001047*
X016051Y001241*
X016083Y001443*
Y001648*
X016051Y00185*
X015987Y002044*
X015895Y002226*
X015774Y002392*
X01563Y002536*
X015464Y002656*
X015282Y002749*
X015088Y002812*
X014886Y002844*
G37*
%LNpcb_iot_source-3*%
%LPD*%
G36*
X013839Y011417D02*
X012451D01*
Y011732*
X012116Y012067*
X010689*
Y012283*
X011112*
X011368Y012539*
Y013661*
X013839*
Y011417*
G37*
G36*
X015217Y016112D02*
Y015718D01*
X015059Y015561*
X014103*
X014058Y01567*
X014166Y015779*
X014219Y015857*
X014224Y015883*
X014248Y01592*
X014266Y016012*
Y01627*
X015059*
X015217Y016112*
G37*
G36*
X015689Y007057D02*
X014193D01*
Y007608*
X014331*
X014557Y007835*
Y007884*
X014823*
Y008671*
X014557*
Y009045*
X014734*
Y009281*
X014419*
Y009518*
X014734*
Y009754*
X014557*
Y010098*
X014734*
Y010335*
X014419*
Y010571*
X014734*
Y010807*
X014557*
Y010974*
X014311Y01122*
Y013681*
X014759*
Y01253*
X014777Y012437*
X01483Y012359*
X014908Y012307*
X015Y012289*
X015092Y012307*
X01517Y012359*
X015223Y012437*
X015241Y01253*
Y013681*
X015689*
Y007057*
G37*
G36*
X015098Y004537D02*
Y004183D01*
X012736Y001821*
X011437*
X01128Y001978*
Y002333*
X011437Y00249*
X012461*
X01439Y004419*
Y004537*
X014508Y004656*
X01498*
X015098Y004537*
G37*
G36*
X00814Y005387D02*
X008248Y005372D01*
X008668*
Y004736*
X008642Y004698*
X008558Y004644*
X00789*
Y003935*
X007902*
Y003798*
X007446*
X007414Y003873*
X007413Y003916*
X007487Y003973*
X007553Y004059*
X007595Y00416*
X007609Y004268*
Y005316*
X007683Y00539*
X008132*
X00814Y005387*
G37*
G54D25*
X009836Y012549D03*
X007388Y01562D03*
G54D26*
X009836Y012175D03*
Y011801D03*
X010793D03*
Y012175D03*
Y012549D03*
X006332Y01562D03*
Y016368D03*
X007388D03*
Y015994D03*
G54D27*
X002946Y01878D03*
G54D28*
X002946Y018406D03*
Y018032D03*
X003865D03*
Y01878D03*
G54D29*
X009882Y008632D03*
Y009419D03*
X00935Y021663D03*
Y022451D03*
X011555Y005002D03*
Y005789D03*
X014026Y01688D03*
Y017667D03*
G54D30*
X012461Y008317D03*
X011673D03*
X009872Y004715D03*
X009085D03*
G54D31*
X010439Y021152D03*
X011726D03*
X0104Y022411D03*
X011687D03*
X013142Y007333D03*
X014429D03*
X010372Y005789D03*
X009085D03*
G54D32*
X014744Y005719D03*
Y004431D03*
G54D33*
X006949Y021703D03*
Y019734D03*
G54D34*
X004852Y00911D03*
Y011079D03*
X004813Y003888D03*
Y005856D03*
G54D35*
X006066Y00911D03*
X006926Y00948D03*
Y00874D03*
X012802Y015256D03*
X011942Y014886D03*
Y015626D03*
X006332Y003898D03*
X007192Y004268D03*
Y003528D03*
X006539Y017569D03*
X007398Y017939D03*
Y017199D03*
G54D36*
X006516Y012143D03*
X006886Y011283D03*
X006146D03*
G54D37*
X007785Y010238D03*
Y008738D03*
X008248Y005789D03*
Y004289D03*
G54D38*
X015Y01253D03*
X01315D03*
G54D39*
X008691Y011378D03*
Y012165D03*
X008711Y010226D03*
Y009439D03*
X008366Y021703D03*
Y02249D03*
X007421Y014498D03*
Y013711D03*
X004872Y014468D03*
Y015256D03*
Y016383D03*
Y017171D03*
X011555Y003858D03*
Y003071D03*
G54D40*
X013681Y008278D03*
X014468D03*
X007795Y007982D03*
X008583D03*
X003799Y019734D03*
X003012D03*
X01064Y0156D03*
X009852D03*
X012697Y017687D03*
X011909D03*
X01065Y016663D03*
X009862D03*
X010659Y017736D03*
X009872D03*
X009882Y003553D03*
X010669D03*
X008257Y003554D03*
X009044D03*
G54D41*
X009852Y010541D03*
X011033D03*
G54D42*
X010807Y013396D03*
X011594D03*
X014419Y010453D03*
X013632D03*
X014419Y0094D03*
X013632D03*
X001506Y016476D03*
X000719D03*
X001506Y017549D03*
X000719D03*
G54D43*
X004783Y019734D03*
Y020522D03*
X005768Y019734D03*
Y020522D03*
X006319Y014498D03*
Y013711D03*
G54D67*
X006171Y006594D02*
X006191Y006575D01*
Y006496D02*
Y006575D01*
X01248Y008297D02*
X013661D01*
X013681Y008278*
X012461Y008317D02*
X01248Y008297D01*
X011673Y008327D02*
X011683Y008317D01*
X011673D02*
Y008327D01*
X013996Y015982D02*
X014026Y016012D01*
Y01688*
X013303Y015256D02*
X013996Y015949D01*
Y015982*
X012802Y015256D02*
X013303D01*
X007421Y014498D02*
X011456D01*
X011844Y014886*
X001506Y015797D02*
X002835Y014468D01*
X001506Y015797D02*
Y016476D01*
Y017549*
X004872Y014468D02*
X006319D01*
X002835D02*
X004872D01*
X006146Y010554D02*
X006293Y010406D01*
Y010335D02*
Y010406D01*
X006146Y010554D02*
Y011283D01*
X009872Y017736D02*
Y018553D01*
X011687Y022411D02*
X012608D01*
X007421Y013711D02*
X008563D01*
X007382D02*
X007392Y013701D01*
X015Y01253D02*
Y013976D01*
X01565Y014626*
X016468D02*
X016476Y014617D01*
X01565Y014626D02*
X016468D01*
X011795Y02122D02*
X016338D01*
X016476Y021082*
Y014617D02*
Y021082D01*
X011726Y021152D02*
X011795Y02122D01*
X00876Y013002D02*
X009213Y012549D01*
X009836*
X006886Y011276D02*
X007612D01*
X006886D02*
Y011283D01*
X007612Y011276D02*
X007618Y01127D01*
X010787Y012556D02*
X010794Y012549D01*
X010787Y012556D02*
Y013396D01*
X011844Y014886D02*
X011942D01*
X012707Y017677D02*
X014016D01*
X014026Y017667*
X012697Y017687D02*
X012707Y017677D01*
X006326Y01562D02*
X006332D01*
X006319Y015613D02*
X006326Y01562D01*
X006319Y014498D02*
Y015613D01*
X006412Y014483D02*
X007406D01*
X004783Y018041D02*
Y019734D01*
X003883Y018036D02*
X004779D01*
X004783Y018041*
X003878D02*
X003883Y018036D01*
X003865Y018032D02*
X003868D01*
X003878Y018041*
X004783Y019734D02*
X005768D01*
X006949D02*
D01*
X005768D02*
X006949D01*
X007736Y023081D02*
X008327Y02249D01*
X008366*
X009331Y021683D02*
X00935Y021663D01*
X008366Y021703D02*
X008386Y021683D01*
X009331*
X009081Y019734D02*
X010439Y021093D01*
Y021152*
X006949Y019734D02*
X009081D01*
X001476Y019341D02*
X002037Y01878D01*
X002946*
X008327Y021663D02*
X008366Y021703D01*
X010419Y021171D02*
X010439Y021152D01*
X0104Y022411D02*
X010419Y022392D01*
Y021171D02*
Y022392D01*
X01038Y022431D02*
X0104Y022411D01*
X00937Y022431D02*
X01038D01*
X00935Y022451D02*
X00937Y022431D01*
X007388Y01562D02*
X007566D01*
X007395Y015987D02*
X007684D01*
X007687Y015984D02*
X008366D01*
X00866Y015498D02*
X008762Y0156D01*
X007388Y015994D02*
X007395Y015987D01*
X008762Y0156D02*
X009852D01*
X007684Y015987D02*
X007687Y015984D01*
X007566Y01562D02*
X007688Y015498D01*
X00866*
X007388Y01562D02*
X007395Y015613D01*
X007393Y016375D02*
Y017199D01*
X010794Y012549D02*
X010879D01*
X010886Y012556*
X009844Y010533D02*
Y011794D01*
X009836Y011801D02*
X009838D01*
X009844Y011794*
X009833Y010522D02*
X009844Y010533D01*
X002279Y017549D02*
X002752Y018022D01*
X001506Y017549D02*
X002279D01*
X002752Y018022D02*
X002923D01*
X002933Y018032D02*
X002946D01*
X002923Y018022D02*
X002933Y018032D01*
X00126Y018396D02*
X001266Y018389D01*
X008366Y02249D02*
X008406D01*
X001266Y018389D02*
X002953D01*
X002946Y018396D02*
X002953Y018389D01*
X002946Y018396D02*
Y018406D01*
X003848Y019852D02*
X003857Y019844D01*
X00386Y01878D02*
X003865D01*
X003857Y018783D02*
X00386Y01878D01*
X003857Y018783D02*
Y019844D01*
X007398Y017199D02*
X008478D01*
X008484Y017205*
X006926Y00948D02*
Y009973D01*
X007191Y010238D02*
X007785D01*
X006926Y009973D02*
X007191Y010238D01*
X011818Y0156D02*
X011844Y015626D01*
X011942*
X01064Y0156D02*
X011818D01*
X008385Y017939D02*
X008524Y018077D01*
Y019045*
X007398Y017939D02*
X008385D01*
X008662Y019183D02*
X010492D01*
X008524Y019045D02*
X008662Y019183D01*
X010659Y017736D02*
Y019016D01*
X010492Y019183D02*
X010659Y019016D01*
X010655Y017731D02*
X010659Y017736D01*
X010655Y016668D02*
Y017731D01*
X01065Y016663D02*
X010655Y016668D01*
X009857Y015605D02*
Y016658D01*
X009852Y0156D02*
X009857Y015605D01*
Y016658D02*
X009862Y016663D01*
X007393Y017199D02*
X007398D01*
X004872Y016383D02*
X006139D01*
X006154Y016368*
X006332*
X006516Y012154D02*
X00868D01*
X006516Y012143D02*
Y012154D01*
X00868D02*
X008691Y012165D01*
X004872Y015256D02*
Y016383D01*
Y015256D02*
D01*
Y016383D02*
D01*
X010807Y013396D02*
X01081Y013393D01*
X009648Y012165D02*
X009658Y012175D01*
X008691Y012165D02*
X009648D01*
X009658Y012175D02*
X009836D01*
X009311Y010522D02*
X009833D01*
X008711Y010226D02*
X008829Y010344D01*
X009134*
X009311Y010522*
X00872Y009429D02*
X009872D01*
X008711Y009439D02*
X00872Y009429D01*
X009872D02*
X009882Y009419D01*
X008705Y010232D02*
X008711Y010226D01*
X008701Y010236D02*
X008705Y010232D01*
X008691Y011378D02*
X008701Y011368D01*
Y010236D02*
Y011368D01*
X007785Y010238D02*
X007791Y010232D01*
X008705*
X00779Y007987D02*
Y008733D01*
X007785Y008738D02*
X00779Y008733D01*
Y007987D02*
X007795Y007982D01*
X006926Y00874D02*
X007783D01*
X007785Y008738*
X011555Y005002D02*
D01*
Y003858D02*
Y005002D01*
X009877Y003558D02*
Y00471D01*
X009872Y004715D02*
X009877Y00471D01*
Y003558D02*
X009882Y003553D01*
X004852Y00911D02*
X006066D01*
X002904D02*
X004852D01*
X008254Y003557D02*
X008257Y003554D01*
X008252Y003558D02*
X008254Y003557D01*
X008252Y003558D02*
Y004285D01*
X008248Y004289D02*
X008252Y004285D01*
X007192Y003557D02*
X008254D01*
G54D68*
X013169Y005673D02*
Y007305D01*
X013142Y007333D02*
X013169Y007305D01*
X013159Y005663D02*
X013169Y005673D01*
X013215Y005719D02*
X014744D01*
X013169Y005673D02*
X013215Y005719D01*
X012358Y005663D02*
X013159D01*
X012232Y005789D02*
X012358Y005663D01*
X011555Y005789D02*
X012232D01*
X004809Y003884D02*
X004813Y003888D01*
X002904Y003884D02*
X004809D01*
X004813Y003888D02*
X006224D01*
X006233Y003898*
X006332*
X010372Y005789D02*
X011555D01*
G54D69*
X006191Y005496D02*
X006198Y005489D01*
X007192*
X009085Y005789D02*
D01*
Y004715D02*
Y005789D01*
X008248D02*
X009085D01*
X007192Y004268D02*
Y005489D01*
X00751Y005807*
X00823*
G54D70*
X001358Y001427D03*
X001575Y0231D03*
X014823Y023396D03*
X014783Y001545D03*
G54D71*
X006191Y006496D03*
G54D72*
X006191Y005496D03*
G54D73*
X002904Y01061D03*
X002835Y015969D03*
X002904Y005384D03*
X013159Y004163D03*
G54D74*
X002904Y00911D03*
X002835Y014468D03*
X002904Y003884D03*
X013159Y005663D03*
G54D75*
X013996Y015949D03*
X011909Y019065D03*
X006293Y010335D03*
X009872Y018553D03*
X012608Y022411D03*
X008563Y013711D03*
X01565Y014626D03*
X012461Y002169D03*
X011752D03*
X014862Y015949D03*
X00876Y013002D03*
X007618Y01127D03*
X011915D03*
Y009459D03*
Y010443D03*
X012933D03*
Y009419D03*
X004783Y018041D03*
X007736Y023081D03*
X001476Y019341D03*
X008366Y015984D03*
X00126Y018396D03*
X008484Y017205D03*
M02*