%FSTAX24Y24*%
%MOIN*%
%SFA1B1*%

%IPPOS*%
%AMD26*
4,1,8,0.019200,0.011100,-0.019200,0.011100,-0.030300,0.000000,-0.030300,0.000000,-0.019200,-0.011100,0.019200,-0.011100,0.030300,0.000000,0.030300,0.000000,0.019200,0.011100,0.0*
1,1,0.022200,0.019200,0.000000*
1,1,0.022200,-0.019200,0.000000*
1,1,0.022200,-0.019200,0.000000*
1,1,0.022200,0.019200,0.000000*
%
%AMD28*
4,1,8,0.022400,0.009800,-0.022400,0.009800,-0.032200,0.000000,-0.032200,0.000000,-0.022400,-0.009800,0.022400,-0.009800,0.032200,0.000000,0.032200,0.000000,0.022400,0.009800,0.0*
1,1,0.019600,0.022400,0.000000*
1,1,0.019600,-0.022400,0.000000*
1,1,0.019600,-0.022400,0.000000*
1,1,0.019600,0.022400,0.000000*
%
%ADD25R,0.060600X0.022300*%
G04~CAMADD=26~8~0.0~0.0~606.0~223.0~111.0~0.0~15~0.0~0.0~0.0~0.0~0~0.0~0.0~0.0~0.0~0~0.0~0.0~0.0~0.0~606.0~223.0*
%ADD26D26*%
%ADD27R,0.064500X0.019700*%
G04~CAMADD=28~8~0.0~0.0~645.0~197.0~98.0~0.0~15~0.0~0.0~0.0~0.0~0~0.0~0.0~0.0~0.0~0~0.0~0.0~0.0~0.0~645.0~197.0*
%ADD28D28*%
%ADD29R,0.059100X0.039400*%
%ADD30R,0.039400X0.059100*%
%ADD31R,0.047200X0.059100*%
%ADD32R,0.059100X0.047200*%
%ADD33R,0.118100X0.090600*%
%ADD34R,0.137800X0.090600*%
%ADD35R,0.043300X0.023600*%
%ADD36R,0.023600X0.043300*%
%ADD37R,0.048000X0.047200*%
%ADD38R,0.137800X0.224400*%
%ADD39R,0.055100X0.047200*%
%ADD40R,0.047200X0.055100*%
%ADD41R,0.063000X0.078700*%
%ADD42R,0.047200X0.055100*%
%ADD43R,0.055100X0.047200*%
%LNpcb_iot_source-1*%
%LPD*%
G54D25*
X009836Y012549D03*
X007388Y01562D03*
G54D26*
X009836Y012175D03*
Y011801D03*
X010793D03*
Y012175D03*
Y012549D03*
X006332Y01562D03*
Y016368D03*
X007388D03*
Y015994D03*
G54D27*
X002946Y01878D03*
G54D28*
X002946Y018406D03*
Y018032D03*
X003865D03*
Y01878D03*
G54D29*
X009882Y008632D03*
Y009419D03*
X00935Y021663D03*
Y022451D03*
X011555Y005002D03*
Y005789D03*
X014026Y01688D03*
Y017667D03*
G54D30*
X012461Y008317D03*
X011673D03*
X009872Y004715D03*
X009085D03*
G54D31*
X010439Y021152D03*
X011726D03*
X0104Y022411D03*
X011687D03*
X013142Y007333D03*
X014429D03*
X010372Y005789D03*
X009085D03*
G54D32*
X014744Y005719D03*
Y004431D03*
G54D33*
X006949Y021703D03*
Y019734D03*
G54D34*
X004852Y00911D03*
Y011079D03*
X004813Y003888D03*
Y005856D03*
G54D35*
X006066Y00911D03*
X006926Y00948D03*
Y00874D03*
X012802Y015256D03*
X011942Y014886D03*
Y015626D03*
X006332Y003898D03*
X007192Y004268D03*
Y003528D03*
X006539Y017569D03*
X007398Y017939D03*
Y017199D03*
G54D36*
X006516Y012143D03*
X006886Y011283D03*
X006146D03*
G54D37*
X007785Y010238D03*
Y008738D03*
X008248Y005789D03*
Y004289D03*
G54D38*
X015Y01253D03*
X01315D03*
G54D39*
X008691Y011378D03*
Y012165D03*
X008711Y010226D03*
Y009439D03*
X008366Y021703D03*
Y02249D03*
X007421Y014498D03*
Y013711D03*
X004872Y014468D03*
Y015256D03*
Y016383D03*
Y017171D03*
X011555Y003858D03*
Y003071D03*
G54D40*
X013681Y008278D03*
X014468D03*
X007795Y007982D03*
X008583D03*
X003799Y019734D03*
X003012D03*
X01064Y0156D03*
X009852D03*
X012697Y017687D03*
X011909D03*
X01065Y016663D03*
X009862D03*
X010659Y017736D03*
X009872D03*
X009882Y003553D03*
X010669D03*
X008257Y003554D03*
X009044D03*
G54D41*
X009852Y010541D03*
X011033D03*
G54D42*
X010807Y013396D03*
X011594D03*
X014419Y010453D03*
X013632D03*
X014419Y0094D03*
X013632D03*
X001506Y016476D03*
X000719D03*
X001506Y017549D03*
X000719D03*
G54D43*
X004783Y019734D03*
Y020522D03*
X005768Y019734D03*
Y020522D03*
X006319Y014498D03*
Y013711D03*
M02*