G04*
G04 #@! TF.GenerationSoftware,Altium Limited,Altium Designer,24.10.1 (45)*
G04*
G04 Layer_Color=32896*
%FSLAX24Y24*%
%MOIN*%
G70*
G04*
G04 #@! TF.SameCoordinates,C6CBD9EB-9E9D-4DD1-ADCD-94E966FD8E1D*
G04*
G04*
G04 #@! TF.FilePolarity,Positive*
G04*
G01*
G75*
%ADD12C,0.0079*%
%ADD76C,0.0157*%
G36*
X6142Y24410D02*
X6094D01*
Y24403D01*
X6101D01*
Y24389D01*
X6108D01*
Y24375D01*
X6115D01*
Y24362D01*
X6122D01*
Y24348D01*
X6411D01*
Y24341D01*
X6425D01*
Y24334D01*
X6432D01*
Y24327D01*
X6439D01*
Y24320D01*
X6445D01*
Y24313D01*
X6452D01*
Y24300D01*
X6459D01*
Y24286D01*
X6466D01*
Y24265D01*
X6473D01*
Y24238D01*
X6480D01*
Y24120D01*
X6473D01*
Y24093D01*
X6466D01*
Y24072D01*
X6459D01*
Y24058D01*
X6452D01*
Y24045D01*
X6445D01*
Y24038D01*
X6439D01*
Y24031D01*
X6432D01*
Y24024D01*
X6425D01*
Y24017D01*
X6411D01*
Y24010D01*
X6108D01*
Y23948D01*
X6404D01*
Y23955D01*
X6432D01*
Y23962D01*
X6445D01*
Y23969D01*
X6459D01*
Y23976D01*
X6466D01*
Y23983D01*
X6473D01*
Y23990D01*
X6480D01*
Y23996D01*
X6487D01*
Y24003D01*
X6494D01*
Y24017D01*
X6501D01*
Y24024D01*
X6507D01*
Y24038D01*
X6514D01*
Y24058D01*
X6521D01*
Y24079D01*
X6528D01*
Y24120D01*
X6535D01*
Y24238D01*
X6528D01*
Y24279D01*
X6521D01*
Y24300D01*
X6514D01*
Y24320D01*
X6507D01*
Y24334D01*
X6501D01*
Y24348D01*
X6494D01*
Y24355D01*
X6487D01*
Y24362D01*
X6480D01*
Y24369D01*
X6473D01*
Y24375D01*
X6466D01*
Y24382D01*
X6459D01*
Y24389D01*
X6445D01*
Y24396D01*
X6432D01*
Y24403D01*
X6411D01*
Y24410D01*
X6149D01*
X6142D01*
D02*
G37*
G36*
X7024Y24272D02*
X7017D01*
Y24300D01*
X7010D01*
Y24313D01*
X7004D01*
Y24327D01*
X6997D01*
Y24341D01*
X6990D01*
Y24355D01*
X6983D01*
Y24362D01*
X6976D01*
Y24369D01*
X6969D01*
Y24375D01*
X6962D01*
Y24382D01*
X6955D01*
Y24389D01*
X6942D01*
Y24396D01*
X6928D01*
Y24403D01*
X6900D01*
Y24410D01*
X6590D01*
Y24396D01*
X6597D01*
Y24382D01*
X6604D01*
Y24369D01*
X6611D01*
Y24355D01*
X6618D01*
Y24348D01*
X6907D01*
Y24341D01*
X6914D01*
Y24334D01*
X6928D01*
Y24327D01*
X6935D01*
Y24320D01*
X6942D01*
Y24306D01*
X6948D01*
Y24293D01*
X6955D01*
Y24279D01*
X6962D01*
Y24258D01*
X6969D01*
Y24217D01*
X6976D01*
Y24141D01*
X6969D01*
Y24107D01*
X6962D01*
Y24079D01*
X6955D01*
Y24065D01*
X6948D01*
Y24052D01*
X6942D01*
Y24045D01*
X6935D01*
Y24031D01*
X6928D01*
Y24024D01*
X6914D01*
Y24017D01*
X6900D01*
Y24010D01*
X6604D01*
Y24003D01*
X6597D01*
Y23955D01*
X6604D01*
Y23948D01*
X6893D01*
Y23955D01*
X6921D01*
Y23962D01*
X6942D01*
Y23969D01*
X6948D01*
Y23976D01*
X6962D01*
Y23983D01*
X6969D01*
Y23990D01*
X6976D01*
Y23996D01*
X6983D01*
Y24003D01*
X6990D01*
Y24017D01*
X6997D01*
Y24031D01*
X7004D01*
Y24045D01*
X7010D01*
Y24065D01*
X7017D01*
Y24086D01*
X7024D01*
Y24134D01*
X7031D01*
Y24231D01*
X7024D01*
Y24265D01*
Y24272D01*
D02*
G37*
G36*
X7355Y24003D02*
X7341D01*
Y24010D01*
X7320D01*
Y24017D01*
X7307D01*
Y24024D01*
X7293D01*
Y24031D01*
X7286D01*
Y24038D01*
X7279D01*
Y24058D01*
X7272D01*
Y24072D01*
X7279D01*
Y24093D01*
X7286D01*
Y24100D01*
X7293D01*
Y24107D01*
X7300D01*
Y24114D01*
X7314D01*
Y24120D01*
X7327D01*
Y24127D01*
X7348D01*
Y24134D01*
X7369D01*
Y24141D01*
X7396D01*
Y24148D01*
X7424D01*
Y24155D01*
X7451D01*
Y24162D01*
X7479D01*
Y24169D01*
X7500D01*
Y24176D01*
X7527D01*
Y24182D01*
X7548D01*
Y24189D01*
X7562D01*
Y24196D01*
X7575D01*
Y24203D01*
X7589D01*
Y24210D01*
X7596D01*
Y24217D01*
X7610D01*
Y24224D01*
X7617D01*
Y24231D01*
X7624D01*
Y24244D01*
X7631D01*
Y24251D01*
X7637D01*
Y24272D01*
X7644D01*
Y24313D01*
X7637D01*
Y24334D01*
X7631D01*
Y24348D01*
X7624D01*
Y24355D01*
X7617D01*
Y24362D01*
X7610D01*
Y24369D01*
X7603D01*
Y24375D01*
X7596D01*
Y24382D01*
X7582D01*
Y24389D01*
X7569D01*
Y24396D01*
X7548D01*
Y24403D01*
X7520D01*
Y24410D01*
X7458D01*
Y24417D01*
X7403D01*
Y24410D01*
X7341D01*
Y24403D01*
X7307D01*
Y24396D01*
X7272D01*
Y24389D01*
X7252D01*
Y24369D01*
X7258D01*
Y24355D01*
X7265D01*
Y24341D01*
X7272D01*
Y24334D01*
X7293D01*
Y24341D01*
X7320D01*
Y24348D01*
X7362D01*
Y24355D01*
X7506D01*
Y24348D01*
X7534D01*
Y24341D01*
X7548D01*
Y24334D01*
X7562D01*
Y24327D01*
X7569D01*
Y24320D01*
X7575D01*
Y24300D01*
X7582D01*
Y24293D01*
X7575D01*
Y24272D01*
X7569D01*
Y24265D01*
X7562D01*
Y24258D01*
X7548D01*
Y24251D01*
X7541D01*
Y24244D01*
X7520D01*
Y24238D01*
X7500D01*
Y24231D01*
X7479D01*
Y24224D01*
X7451D01*
Y24217D01*
X7431D01*
Y24210D01*
X7403D01*
Y24203D01*
X7376D01*
Y24196D01*
X7348D01*
Y24189D01*
X7327D01*
Y24182D01*
X7307D01*
Y24176D01*
X7293D01*
Y24169D01*
X7279D01*
Y24162D01*
X7265D01*
Y24155D01*
X7258D01*
Y24148D01*
X7245D01*
Y24141D01*
X7238D01*
Y24134D01*
X7231D01*
Y24120D01*
X7224D01*
Y24114D01*
X7217D01*
Y24093D01*
X7210D01*
Y24045D01*
X7217D01*
Y24024D01*
X7224D01*
Y24010D01*
X7231D01*
Y24003D01*
X7238D01*
Y23996D01*
X7245D01*
Y23990D01*
X7252D01*
Y23983D01*
X7258D01*
Y23976D01*
X7272D01*
Y23969D01*
X7286D01*
Y23962D01*
X7300D01*
Y23955D01*
X7327D01*
Y23948D01*
X7362D01*
Y23941D01*
X7520D01*
Y23948D01*
X7562D01*
Y23955D01*
X7589D01*
Y23962D01*
X7617D01*
Y23969D01*
X7631D01*
Y23976D01*
X7637D01*
Y23990D01*
X7631D01*
Y24003D01*
X7624D01*
Y24017D01*
X7617D01*
Y24024D01*
X7596D01*
Y24017D01*
X7575D01*
Y24010D01*
X7541D01*
Y24003D01*
X7493D01*
Y23996D01*
X7382D01*
Y24003D01*
X7362D01*
X7355D01*
D02*
G37*
G36*
X8120Y24286D02*
Y24086D01*
X8113D01*
Y24065D01*
X8106D01*
Y24052D01*
X8099D01*
Y24045D01*
X8092D01*
Y24038D01*
X8085D01*
Y24031D01*
X8078D01*
Y24024D01*
X8065D01*
Y24017D01*
X8044D01*
Y24010D01*
X8023D01*
Y24003D01*
X7989D01*
Y23996D01*
X7906D01*
Y24003D01*
X7872D01*
Y24010D01*
X7851D01*
Y24017D01*
X7830D01*
Y24024D01*
X7823D01*
Y24031D01*
X7810D01*
Y24038D01*
X7803D01*
Y24045D01*
X7796D01*
Y24052D01*
X7789D01*
Y24065D01*
X7782D01*
Y24086D01*
X7775D01*
Y24410D01*
X7720D01*
Y24403D01*
X7713D01*
Y24079D01*
X7720D01*
Y24052D01*
X7727D01*
Y24031D01*
X7734D01*
Y24024D01*
X7741D01*
Y24010D01*
X7748D01*
Y24003D01*
X7755D01*
Y23996D01*
X7761D01*
Y23990D01*
X7768D01*
Y23983D01*
X7782D01*
Y23976D01*
X7789D01*
Y23969D01*
X7803D01*
Y23962D01*
X7823D01*
Y23955D01*
X7844D01*
Y23948D01*
X7879D01*
Y23941D01*
X8016D01*
Y23948D01*
X8051D01*
Y23955D01*
X8071D01*
Y23962D01*
X8092D01*
Y23969D01*
X8106D01*
Y23976D01*
X8113D01*
Y23983D01*
X8127D01*
Y23990D01*
X8133D01*
Y23996D01*
X8140D01*
Y24003D01*
X8147D01*
Y24010D01*
X8154D01*
Y24017D01*
X8161D01*
Y24031D01*
X8168D01*
Y24045D01*
X8175D01*
Y24079D01*
X8182D01*
Y24403D01*
X8175D01*
Y24410D01*
X8127D01*
Y24403D01*
X8120D01*
Y24293D01*
Y24286D01*
D02*
G37*
G36*
X8395Y24410D02*
X8257D01*
Y24396D01*
X8264D01*
Y24382D01*
X8271D01*
Y24369D01*
X8278D01*
Y24355D01*
X8285D01*
Y24348D01*
X8450D01*
Y23955D01*
X8457D01*
Y23948D01*
X8512D01*
Y24348D01*
X8685D01*
Y24355D01*
X8692D01*
Y24369D01*
X8698D01*
Y24382D01*
X8705D01*
Y24396D01*
X8712D01*
Y24403D01*
X8705D01*
Y24410D01*
X8402D01*
X8395D01*
D02*
G37*
G36*
X8857Y24196D02*
X8843D01*
Y24203D01*
X8836D01*
Y24210D01*
X8829D01*
Y24217D01*
X8822D01*
Y24231D01*
X8816D01*
Y24300D01*
X8822D01*
Y24313D01*
X8829D01*
Y24320D01*
X8836D01*
Y24327D01*
X8850D01*
Y24334D01*
X8864D01*
Y24341D01*
X8905D01*
Y24348D01*
X9188D01*
Y24362D01*
X9194D01*
Y24375D01*
X9201D01*
Y24389D01*
X9208D01*
Y24410D01*
X8926D01*
Y24403D01*
X8871D01*
Y24396D01*
X8843D01*
Y24389D01*
X8829D01*
Y24382D01*
X8809D01*
Y24375D01*
X8802D01*
Y24369D01*
X8795D01*
Y24362D01*
X8781D01*
Y24348D01*
X8774D01*
Y24341D01*
X8767D01*
Y24327D01*
X8760D01*
Y24306D01*
X8754D01*
Y24217D01*
X8760D01*
Y24196D01*
X8767D01*
Y24182D01*
X8774D01*
Y24176D01*
X8781D01*
Y24169D01*
X8788D01*
Y24162D01*
X8795D01*
Y24155D01*
X8809D01*
Y24148D01*
X8816D01*
Y24141D01*
X8829D01*
Y24134D01*
X8836D01*
Y24114D01*
X8829D01*
Y24100D01*
X8822D01*
Y24086D01*
X8816D01*
Y24072D01*
X8809D01*
Y24058D01*
X8802D01*
Y24045D01*
X8795D01*
Y24031D01*
X8788D01*
Y24017D01*
X8781D01*
Y24003D01*
X8774D01*
Y23990D01*
X8767D01*
Y23976D01*
X8760D01*
Y23962D01*
X8754D01*
Y23948D01*
X8822D01*
Y23962D01*
X8829D01*
Y23976D01*
X8836D01*
Y23990D01*
X8843D01*
Y24003D01*
X8850D01*
Y24017D01*
X8857D01*
Y24031D01*
X8864D01*
Y24045D01*
X8871D01*
Y24058D01*
X8878D01*
Y24072D01*
X8884D01*
Y24086D01*
X8891D01*
Y24100D01*
X8898D01*
Y24114D01*
X8905D01*
Y24120D01*
X9132D01*
Y23955D01*
X9139D01*
Y23948D01*
X9194D01*
Y24176D01*
X8933D01*
Y24182D01*
X8878D01*
Y24189D01*
X8857D01*
Y24196D01*
D02*
G37*
G36*
X10407Y24555D02*
X10400D01*
Y24541D01*
X10393D01*
Y24527D01*
X10386D01*
Y24520D01*
Y24513D01*
X10380D01*
Y24499D01*
X10373D01*
Y24486D01*
X10366D01*
Y24472D01*
X10359D01*
Y24458D01*
X10352D01*
Y24444D01*
X10345D01*
Y24431D01*
X10338D01*
Y24417D01*
X10331D01*
Y24403D01*
X10324D01*
Y24396D01*
X10269D01*
Y24403D01*
X10262D01*
Y24410D01*
X10269D01*
Y24424D01*
X10276D01*
Y24437D01*
X10283D01*
Y24451D01*
X10290D01*
Y24465D01*
X10297D01*
Y24479D01*
X10304D01*
Y24493D01*
X10311D01*
Y24506D01*
X10318D01*
Y24520D01*
X10324D01*
Y24534D01*
X10331D01*
Y24548D01*
X10338D01*
Y24561D01*
X10345D01*
Y24568D01*
X10407D01*
Y24555D01*
D02*
G37*
G36*
X10400Y24272D02*
X10393D01*
Y24258D01*
X10386D01*
Y24244D01*
X10380D01*
Y24231D01*
X10373D01*
Y24217D01*
X10366D01*
Y24203D01*
X10359D01*
Y24189D01*
X10352D01*
Y24176D01*
X10345D01*
Y24169D01*
X10290D01*
Y24189D01*
X10297D01*
Y24203D01*
X10304D01*
Y24217D01*
X10311D01*
Y24231D01*
X10318D01*
Y24244D01*
X10324D01*
Y24258D01*
X10331D01*
Y24272D01*
X10338D01*
Y24279D01*
X10345D01*
Y24286D01*
X10400D01*
Y24272D01*
D02*
G37*
G36*
X9980Y24403D02*
X9994D01*
Y24396D01*
X9987D01*
Y24382D01*
X9980D01*
Y24369D01*
X9973D01*
Y24355D01*
X9966D01*
Y24341D01*
X9959D01*
Y24327D01*
X9952D01*
Y24313D01*
X9945D01*
Y24300D01*
X9939D01*
Y24286D01*
X9932D01*
Y24272D01*
X9925D01*
Y24258D01*
X9918D01*
Y24244D01*
X9911D01*
Y24231D01*
X9904D01*
Y24217D01*
X9897D01*
Y24203D01*
X9890D01*
Y24189D01*
X9883D01*
Y24176D01*
X9877D01*
Y24162D01*
X9870D01*
Y24148D01*
X9863D01*
Y24134D01*
X9856D01*
Y24120D01*
X9849D01*
Y24107D01*
X9842D01*
Y24093D01*
X9835D01*
Y24079D01*
X9828D01*
Y24065D01*
X9821D01*
Y24052D01*
X9815D01*
Y24038D01*
X9808D01*
Y24024D01*
X9801D01*
Y24010D01*
X9794D01*
Y23996D01*
X9787D01*
Y23983D01*
X9780D01*
Y23969D01*
X9773D01*
Y23955D01*
X9766D01*
Y23948D01*
X9697D01*
Y23955D01*
X9691D01*
Y23969D01*
X9684D01*
Y23983D01*
X9677D01*
Y23996D01*
X9670D01*
Y24010D01*
X9663D01*
Y24024D01*
X9656D01*
Y24038D01*
X9649D01*
Y24052D01*
X9642D01*
Y24065D01*
X9635D01*
Y24079D01*
X9629D01*
Y24093D01*
X9622D01*
Y24107D01*
X9615D01*
Y24120D01*
X9608D01*
Y24134D01*
X9601D01*
Y24148D01*
X9594D01*
Y24162D01*
X9587D01*
Y24176D01*
X9580D01*
Y24189D01*
X9573D01*
Y24203D01*
X9567D01*
Y24217D01*
X9560D01*
Y24231D01*
X9553D01*
Y24244D01*
X9546D01*
Y24258D01*
X9539D01*
Y24272D01*
X9532D01*
Y24286D01*
X9525D01*
Y24300D01*
X9518D01*
Y24313D01*
X9511D01*
Y24327D01*
X9505D01*
Y24341D01*
X9498D01*
Y24355D01*
X9491D01*
Y24369D01*
X9484D01*
Y24382D01*
X9477D01*
Y24396D01*
X9470D01*
Y24403D01*
X9477D01*
Y24410D01*
X9532D01*
Y24403D01*
X9539D01*
Y24396D01*
X9546D01*
Y24382D01*
X9553D01*
Y24369D01*
X9560D01*
Y24355D01*
X9567D01*
Y24341D01*
X9573D01*
Y24327D01*
X9580D01*
Y24313D01*
X9587D01*
Y24300D01*
X9594D01*
Y24286D01*
X9601D01*
Y24272D01*
X9608D01*
Y24258D01*
X9615D01*
Y24244D01*
X9622D01*
Y24231D01*
X9629D01*
Y24217D01*
X9635D01*
Y24203D01*
X9642D01*
Y24189D01*
X9649D01*
Y24176D01*
X9656D01*
Y24162D01*
X9663D01*
Y24148D01*
X9670D01*
Y24134D01*
X9677D01*
Y24120D01*
X9684D01*
Y24107D01*
X9691D01*
Y24093D01*
X9697D01*
Y24079D01*
X9704D01*
Y24072D01*
Y24065D01*
X9711D01*
Y24052D01*
X9718D01*
Y24038D01*
X9725D01*
Y24024D01*
X9732D01*
Y24031D01*
X9739D01*
Y24045D01*
X9746D01*
Y24058D01*
X9753D01*
Y24072D01*
X9759D01*
Y24086D01*
X9766D01*
Y24100D01*
X9773D01*
Y24114D01*
X9780D01*
Y24120D01*
X9787D01*
Y24134D01*
X9794D01*
Y24148D01*
X9801D01*
Y24162D01*
X9808D01*
Y24176D01*
X9815D01*
Y24189D01*
X9821D01*
Y24203D01*
X9828D01*
Y24217D01*
X9835D01*
Y24231D01*
X9842D01*
Y24244D01*
X9849D01*
Y24258D01*
X9856D01*
Y24272D01*
X9863D01*
Y24286D01*
X9870D01*
Y24300D01*
X9877D01*
Y24313D01*
X9883D01*
Y24327D01*
X9890D01*
Y24341D01*
X9897D01*
Y24355D01*
X9904D01*
Y24369D01*
X9911D01*
Y24382D01*
X9918D01*
Y24396D01*
X9925D01*
Y24403D01*
X9932D01*
Y24410D01*
X9980D01*
Y24403D01*
D02*
G37*
G36*
X9367D02*
X9374D01*
Y23955D01*
Y23948D01*
X9312D01*
Y24403D01*
X9319D01*
Y24410D01*
X9367D01*
Y24403D01*
D02*
G37*
G36*
X10256Y24382D02*
X10249D01*
Y24369D01*
X10242D01*
Y24355D01*
X10235D01*
Y24341D01*
X10228D01*
Y24327D01*
X10221D01*
Y24313D01*
X10214D01*
Y24300D01*
X10207D01*
Y24286D01*
X10200D01*
Y24272D01*
X10194D01*
Y24258D01*
X10187D01*
Y24244D01*
X10180D01*
Y24231D01*
X10173D01*
Y24217D01*
X10166D01*
Y24203D01*
X10159D01*
Y24189D01*
X10152D01*
Y24176D01*
X10145D01*
Y24162D01*
X10138D01*
Y24148D01*
X10131D01*
Y24134D01*
X10125D01*
Y24120D01*
X10118D01*
Y24107D01*
X10111D01*
Y24093D01*
X10104D01*
Y24079D01*
X10097D01*
Y24065D01*
X10090D01*
Y24052D01*
X10083D01*
Y24038D01*
X10076D01*
Y24024D01*
X10069D01*
Y24010D01*
X10063D01*
Y23996D01*
X10056D01*
Y23983D01*
X10049D01*
Y23969D01*
X10042D01*
Y23955D01*
X10035D01*
Y23941D01*
X9966D01*
Y23948D01*
X9973D01*
Y23962D01*
X9980D01*
Y23969D01*
Y23976D01*
X9987D01*
Y23990D01*
X9994D01*
Y24003D01*
X10001D01*
Y24017D01*
X10007D01*
Y24031D01*
X10014D01*
Y24045D01*
X10021D01*
Y24058D01*
X10028D01*
Y24072D01*
X10035D01*
Y24086D01*
X10042D01*
Y24100D01*
X10049D01*
Y24114D01*
X10056D01*
Y24127D01*
X10063D01*
Y24141D01*
X10069D01*
Y24155D01*
X10076D01*
Y24169D01*
X10083D01*
Y24182D01*
X10090D01*
Y24196D01*
X10097D01*
Y24210D01*
X10104D01*
Y24224D01*
X10111D01*
Y24238D01*
X10118D01*
Y24251D01*
X10125D01*
Y24265D01*
X10131D01*
Y24279D01*
X10138D01*
Y24293D01*
X10145D01*
Y24306D01*
X10152D01*
Y24320D01*
X10159D01*
Y24334D01*
X10166D01*
Y24348D01*
X10173D01*
Y24362D01*
X10180D01*
Y24375D01*
X10187D01*
Y24389D01*
X10194D01*
Y24396D01*
X10256D01*
Y24382D01*
D02*
G37*
G36*
X10097Y24334D02*
X10090D01*
Y24320D01*
X10083D01*
Y24306D01*
X10076D01*
Y24293D01*
X10069D01*
Y24279D01*
X10063D01*
Y24265D01*
X10056D01*
Y24251D01*
X10049D01*
Y24238D01*
X10042D01*
Y24224D01*
X10035D01*
Y24210D01*
X10028D01*
Y24196D01*
X10021D01*
Y24182D01*
X10014D01*
Y24169D01*
X10007D01*
Y24155D01*
X10001D01*
Y24141D01*
X9994D01*
Y24127D01*
X9987D01*
Y24114D01*
X9980D01*
Y24100D01*
X9973D01*
Y24086D01*
X9966D01*
Y24072D01*
X9959D01*
Y24058D01*
X9952D01*
Y24045D01*
X9945D01*
Y24031D01*
X9939D01*
Y24017D01*
X9932D01*
Y24003D01*
X9925D01*
Y23990D01*
X9918D01*
Y23976D01*
X9911D01*
Y23962D01*
X9904D01*
Y23948D01*
X9897D01*
Y23941D01*
X9835D01*
Y23955D01*
X9842D01*
Y23969D01*
X9849D01*
Y23983D01*
X9856D01*
Y23996D01*
X9863D01*
Y24010D01*
X9870D01*
Y24024D01*
X9877D01*
Y24038D01*
X9883D01*
Y24052D01*
X9890D01*
Y24065D01*
X9897D01*
Y24079D01*
X9904D01*
Y24093D01*
X9911D01*
Y24107D01*
X9918D01*
Y24120D01*
X9925D01*
Y24134D01*
X9932D01*
Y24148D01*
X9939D01*
Y24162D01*
X9945D01*
Y24176D01*
X9952D01*
Y24189D01*
X9959D01*
Y24203D01*
X9966D01*
Y24217D01*
X9973D01*
Y24231D01*
X9980D01*
Y24244D01*
X9987D01*
Y24258D01*
X9994D01*
Y24272D01*
X10001D01*
Y24286D01*
X10007D01*
Y24300D01*
X10014D01*
Y24313D01*
X10021D01*
Y24327D01*
X10028D01*
Y24341D01*
X10097D01*
Y24334D01*
D02*
G37*
G36*
X8899Y23405D02*
Y23391D01*
X8898Y23379D01*
Y23369D01*
X8897Y23361D01*
X8897Y23355D01*
Y23351D01*
X8896Y23348D01*
Y23347D01*
X8893Y23337D01*
X8890Y23329D01*
X8887Y23321D01*
X8884Y23314D01*
X8881Y23309D01*
X8879Y23304D01*
X8877Y23302D01*
X8877Y23301D01*
X8870Y23294D01*
X8864Y23289D01*
X8857Y23283D01*
X8850Y23279D01*
X8844Y23275D01*
X8840Y23272D01*
X8837Y23271D01*
X8835Y23270D01*
X8824Y23266D01*
X8814Y23263D01*
X8804Y23261D01*
X8794Y23259D01*
X8786Y23259D01*
X8780Y23258D01*
X8774D01*
X8761Y23259D01*
X8748Y23260D01*
X8737Y23263D01*
X8725Y23268D01*
X8715Y23272D01*
X8705Y23277D01*
X8697Y23283D01*
X8689Y23289D01*
X8682Y23294D01*
X8676Y23300D01*
X8671Y23305D01*
X8666Y23310D01*
X8663Y23314D01*
X8661Y23317D01*
X8659Y23319D01*
X8658Y23319D01*
Y23266D01*
X8603D01*
Y23632D01*
X8665D01*
Y23435D01*
X8666Y23419D01*
X8667Y23405D01*
X8668Y23392D01*
X8671Y23382D01*
X8673Y23374D01*
X8675Y23368D01*
X8675Y23365D01*
X8676Y23364D01*
X8681Y23355D01*
X8685Y23348D01*
X8692Y23341D01*
X8697Y23335D01*
X8702Y23331D01*
X8707Y23328D01*
X8710Y23325D01*
X8711Y23325D01*
X8720Y23320D01*
X8729Y23317D01*
X8738Y23314D01*
X8745Y23312D01*
X8752Y23312D01*
X8758Y23311D01*
X8762D01*
X8772Y23312D01*
X8781Y23313D01*
X8789Y23315D01*
X8796Y23318D01*
X8801Y23320D01*
X8805Y23322D01*
X8808Y23324D01*
X8809Y23325D01*
X8815Y23330D01*
X8821Y23336D01*
X8825Y23343D01*
X8828Y23349D01*
X8831Y23355D01*
X8832Y23359D01*
X8834Y23362D01*
Y23363D01*
X8834Y23371D01*
X8835Y23381D01*
X8836Y23392D01*
Y23402D01*
X8837Y23412D01*
Y23421D01*
Y23424D01*
Y23426D01*
Y23428D01*
Y23428D01*
Y23632D01*
X8899D01*
Y23405D01*
D02*
G37*
G36*
X8142Y23640D02*
X8158Y23637D01*
X8173Y23633D01*
X8185Y23630D01*
X8196Y23625D01*
X8205Y23622D01*
X8208Y23620D01*
X8210Y23619D01*
X8211Y23618D01*
X8212D01*
X8225Y23609D01*
X8238Y23598D01*
X8248Y23587D01*
X8256Y23577D01*
X8262Y23567D01*
X8267Y23559D01*
X8268Y23556D01*
X8270Y23554D01*
X8271Y23552D01*
Y23551D01*
X8277Y23534D01*
X8281Y23516D01*
X8285Y23499D01*
X8288Y23483D01*
X8289Y23468D01*
Y23463D01*
X8290Y23458D01*
Y23454D01*
Y23450D01*
Y23448D01*
Y23448D01*
X8289Y23431D01*
X8288Y23415D01*
X8286Y23400D01*
X8283Y23387D01*
X8279Y23374D01*
X8275Y23362D01*
X8271Y23352D01*
X8267Y23342D01*
X8263Y23334D01*
X8259Y23327D01*
X8255Y23321D01*
X8251Y23315D01*
X8248Y23312D01*
X8247Y23309D01*
X8245Y23307D01*
X8245Y23306D01*
X8235Y23298D01*
X8226Y23290D01*
X8217Y23284D01*
X8207Y23279D01*
X8197Y23274D01*
X8187Y23269D01*
X8168Y23264D01*
X8159Y23262D01*
X8151Y23260D01*
X8143Y23259D01*
X8137Y23259D01*
X8132Y23258D01*
X8125D01*
X8114Y23259D01*
X8103Y23259D01*
X8084Y23263D01*
X8066Y23269D01*
X8052Y23276D01*
X8040Y23282D01*
X8036Y23285D01*
X8031Y23288D01*
X8028Y23290D01*
X8026Y23292D01*
X8025Y23293D01*
X8024D01*
X8010Y23308D01*
X7999Y23323D01*
X7990Y23340D01*
X7983Y23355D01*
X7978Y23370D01*
X7976Y23376D01*
X7975Y23382D01*
X7974Y23385D01*
X7973Y23388D01*
X7973Y23391D01*
Y23392D01*
X8033Y23400D01*
X8036Y23384D01*
X8041Y23369D01*
X8046Y23358D01*
X8052Y23348D01*
X8056Y23340D01*
X8061Y23335D01*
X8064Y23332D01*
X8065Y23331D01*
X8074Y23323D01*
X8084Y23318D01*
X8095Y23314D01*
X8104Y23312D01*
X8112Y23310D01*
X8119Y23309D01*
X8125D01*
X8134Y23309D01*
X8142Y23310D01*
X8155Y23314D01*
X8169Y23319D01*
X8178Y23325D01*
X8187Y23331D01*
X8193Y23336D01*
X8197Y23340D01*
X8198Y23342D01*
X8203Y23349D01*
X8208Y23356D01*
X8215Y23372D01*
X8219Y23391D01*
X8222Y23408D01*
X8225Y23424D01*
X8225Y23431D01*
Y23437D01*
X8226Y23442D01*
Y23446D01*
Y23448D01*
Y23449D01*
Y23462D01*
X8225Y23474D01*
X8224Y23486D01*
X8221Y23497D01*
X8219Y23506D01*
X8217Y23515D01*
X8215Y23523D01*
X8212Y23530D01*
X8209Y23536D01*
X8207Y23541D01*
X8205Y23546D01*
X8202Y23550D01*
X8200Y23552D01*
X8199Y23554D01*
X8198Y23556D01*
X8192Y23562D01*
X8186Y23567D01*
X8173Y23575D01*
X8161Y23581D01*
X8149Y23586D01*
X8138Y23588D01*
X8129Y23589D01*
X8126Y23590D01*
X8122D01*
X8111Y23589D01*
X8100Y23587D01*
X8092Y23584D01*
X8084Y23580D01*
X8078Y23577D01*
X8073Y23574D01*
X8070Y23571D01*
X8069Y23570D01*
X8062Y23563D01*
X8056Y23554D01*
X8050Y23545D01*
X8046Y23536D01*
X8043Y23527D01*
X8040Y23521D01*
X8039Y23517D01*
X8039Y23516D01*
Y23515D01*
X7979Y23524D01*
X7984Y23544D01*
X7991Y23561D01*
X7999Y23576D01*
X8007Y23588D01*
X8015Y23597D01*
X8021Y23604D01*
X8026Y23608D01*
X8026Y23610D01*
X8027D01*
X8042Y23620D01*
X8058Y23627D01*
X8075Y23633D01*
X8090Y23637D01*
X8104Y23639D01*
X8109Y23640D01*
X8115D01*
X8119Y23640D01*
X8125D01*
X8142Y23640D01*
D02*
G37*
G36*
X7784D02*
X7797Y23638D01*
X7809Y23636D01*
X7821Y23633D01*
X7832Y23628D01*
X7842Y23624D01*
X7851Y23620D01*
X7860Y23615D01*
X7867Y23610D01*
X7874Y23605D01*
X7880Y23601D01*
X7884Y23597D01*
X7888Y23593D01*
X7890Y23591D01*
X7892Y23590D01*
X7893Y23589D01*
X7901Y23579D01*
X7908Y23568D01*
X7914Y23557D01*
X7920Y23545D01*
X7924Y23533D01*
X7928Y23521D01*
X7933Y23498D01*
X7936Y23488D01*
X7937Y23478D01*
X7938Y23468D01*
X7939Y23461D01*
X7940Y23454D01*
Y23449D01*
Y23446D01*
Y23445D01*
X7939Y23429D01*
X7937Y23414D01*
X7935Y23399D01*
X7932Y23386D01*
X7929Y23374D01*
X7925Y23362D01*
X7920Y23352D01*
X7916Y23343D01*
X7912Y23335D01*
X7907Y23327D01*
X7904Y23321D01*
X7900Y23316D01*
X7897Y23312D01*
X7895Y23309D01*
X7894Y23308D01*
X7893Y23307D01*
X7884Y23299D01*
X7874Y23291D01*
X7864Y23284D01*
X7853Y23279D01*
X7843Y23274D01*
X7832Y23270D01*
X7812Y23264D01*
X7802Y23262D01*
X7794Y23260D01*
X7786Y23259D01*
X7779Y23259D01*
X7774Y23258D01*
X7766D01*
X7743Y23259D01*
X7723Y23262D01*
X7705Y23268D01*
X7690Y23273D01*
X7683Y23276D01*
X7678Y23279D01*
X7673Y23282D01*
X7669Y23284D01*
X7665Y23286D01*
X7663Y23287D01*
X7662Y23289D01*
X7662D01*
X7648Y23301D01*
X7636Y23315D01*
X7626Y23330D01*
X7619Y23344D01*
X7612Y23357D01*
X7610Y23362D01*
X7609Y23367D01*
X7607Y23371D01*
X7606Y23374D01*
X7606Y23375D01*
Y23376D01*
X7669Y23385D01*
X7675Y23371D01*
X7682Y23358D01*
X7688Y23349D01*
X7694Y23341D01*
X7699Y23334D01*
X7704Y23330D01*
X7707Y23327D01*
X7708Y23326D01*
X7717Y23320D01*
X7727Y23316D01*
X7737Y23313D01*
X7746Y23311D01*
X7754Y23309D01*
X7760Y23309D01*
X7766D01*
X7782Y23310D01*
X7797Y23313D01*
X7810Y23319D01*
X7821Y23325D01*
X7830Y23330D01*
X7837Y23335D01*
X7841Y23339D01*
X7842Y23340D01*
X7852Y23353D01*
X7861Y23368D01*
X7866Y23384D01*
X7871Y23398D01*
X7874Y23412D01*
X7874Y23418D01*
X7875Y23423D01*
Y23427D01*
X7876Y23431D01*
Y23432D01*
Y23433D01*
X7604D01*
X7603Y23440D01*
Y23445D01*
Y23448D01*
Y23449D01*
X7604Y23466D01*
X7606Y23481D01*
X7608Y23496D01*
X7610Y23509D01*
X7614Y23522D01*
X7618Y23534D01*
X7622Y23544D01*
X7626Y23554D01*
X7631Y23562D01*
X7636Y23569D01*
X7639Y23575D01*
X7642Y23580D01*
X7645Y23584D01*
X7648Y23587D01*
X7649Y23589D01*
X7650Y23590D01*
X7659Y23599D01*
X7669Y23607D01*
X7679Y23613D01*
X7689Y23619D01*
X7698Y23624D01*
X7708Y23628D01*
X7727Y23634D01*
X7736Y23637D01*
X7744Y23638D01*
X7751Y23639D01*
X7758Y23640D01*
X7763Y23640D01*
X7770D01*
X7784Y23640D01*
D02*
G37*
G36*
X8380D02*
X8387Y23638D01*
X8394Y23637D01*
X8400Y23634D01*
X8405Y23631D01*
X8409Y23630D01*
X8411Y23628D01*
X8412Y23627D01*
X8419Y23622D01*
X8425Y23614D01*
X8432Y23606D01*
X8438Y23597D01*
X8443Y23590D01*
X8447Y23583D01*
X8450Y23578D01*
X8450Y23577D01*
Y23632D01*
X8506D01*
Y23266D01*
X8444D01*
Y23458D01*
X8443Y23472D01*
X8443Y23485D01*
X8441Y23497D01*
X8439Y23508D01*
X8437Y23517D01*
X8436Y23524D01*
X8435Y23528D01*
X8434Y23530D01*
X8431Y23537D01*
X8428Y23544D01*
X8424Y23550D01*
X8420Y23555D01*
X8417Y23559D01*
X8414Y23562D01*
X8413Y23564D01*
X8412Y23564D01*
X8406Y23568D01*
X8400Y23571D01*
X8394Y23574D01*
X8388Y23575D01*
X8383Y23576D01*
X8379Y23577D01*
X8376D01*
X8367Y23576D01*
X8359Y23574D01*
X8351Y23572D01*
X8344Y23570D01*
X8339Y23567D01*
X8334Y23565D01*
X8331Y23564D01*
X8331Y23563D01*
X8308Y23620D01*
X8321Y23627D01*
X8332Y23632D01*
X8343Y23635D01*
X8352Y23638D01*
X8360Y23640D01*
X8367Y23640D01*
X8372D01*
X8380Y23640D01*
D02*
G37*
G36*
X7312Y23266D02*
X7245D01*
Y23771D01*
X7312D01*
Y23266D01*
D02*
G37*
G36*
X6774Y23712D02*
X6608D01*
Y23266D01*
X6541D01*
Y23712D01*
X6375D01*
Y23771D01*
X6774D01*
Y23712D01*
D02*
G37*
G36*
X9596Y23779D02*
X9614Y23776D01*
X9629Y23774D01*
X9643Y23771D01*
X9654Y23767D01*
X9658Y23766D01*
X9662Y23765D01*
X9666Y23763D01*
X9668Y23762D01*
X9669Y23762D01*
X9670D01*
X9685Y23755D01*
X9698Y23746D01*
X9708Y23738D01*
X9717Y23730D01*
X9724Y23723D01*
X9729Y23716D01*
X9732Y23713D01*
X9733Y23712D01*
Y23711D01*
X9740Y23699D01*
X9745Y23686D01*
X9749Y23674D01*
X9751Y23663D01*
X9753Y23653D01*
X9754Y23646D01*
Y23643D01*
Y23641D01*
Y23640D01*
Y23640D01*
X9754Y23627D01*
X9751Y23615D01*
X9749Y23604D01*
X9745Y23595D01*
X9742Y23587D01*
X9740Y23582D01*
X9738Y23578D01*
X9737Y23577D01*
X9729Y23567D01*
X9721Y23557D01*
X9712Y23550D01*
X9703Y23543D01*
X9695Y23537D01*
X9689Y23534D01*
X9685Y23531D01*
X9684Y23530D01*
X9683D01*
X9678Y23527D01*
X9671Y23524D01*
X9656Y23519D01*
X9640Y23514D01*
X9624Y23508D01*
X9609Y23504D01*
X9603Y23503D01*
X9598Y23501D01*
X9593Y23500D01*
X9589Y23499D01*
X9587Y23498D01*
X9586D01*
X9574Y23495D01*
X9562Y23492D01*
X9552Y23490D01*
X9542Y23488D01*
X9535Y23485D01*
X9527Y23483D01*
X9521Y23481D01*
X9515Y23480D01*
X9510Y23478D01*
X9506Y23477D01*
X9500Y23475D01*
X9497Y23474D01*
X9496Y23474D01*
X9486Y23469D01*
X9476Y23464D01*
X9468Y23459D01*
X9462Y23454D01*
X9457Y23450D01*
X9453Y23447D01*
X9452Y23444D01*
X9451Y23444D01*
X9446Y23437D01*
X9443Y23430D01*
X9440Y23423D01*
X9439Y23416D01*
X9438Y23411D01*
X9437Y23406D01*
Y23403D01*
Y23402D01*
X9438Y23394D01*
X9440Y23386D01*
X9442Y23378D01*
X9444Y23372D01*
X9447Y23367D01*
X9450Y23363D01*
X9451Y23360D01*
X9452Y23359D01*
X9458Y23352D01*
X9465Y23346D01*
X9472Y23341D01*
X9479Y23336D01*
X9486Y23332D01*
X9491Y23330D01*
X9494Y23329D01*
X9496Y23328D01*
X9507Y23324D01*
X9519Y23322D01*
X9529Y23319D01*
X9540Y23319D01*
X9549Y23318D01*
X9556Y23317D01*
X9562D01*
X9578Y23318D01*
X9592Y23319D01*
X9606Y23322D01*
X9617Y23325D01*
X9627Y23327D01*
X9634Y23329D01*
X9638Y23331D01*
X9639Y23332D01*
X9640D01*
X9652Y23338D01*
X9662Y23344D01*
X9671Y23351D01*
X9678Y23357D01*
X9684Y23362D01*
X9688Y23367D01*
X9690Y23370D01*
X9691Y23371D01*
X9696Y23381D01*
X9701Y23391D01*
X9704Y23401D01*
X9707Y23411D01*
X9708Y23421D01*
X9710Y23428D01*
X9711Y23432D01*
Y23433D01*
Y23434D01*
X9774Y23428D01*
X9772Y23410D01*
X9769Y23393D01*
X9764Y23377D01*
X9760Y23364D01*
X9755Y23352D01*
X9753Y23348D01*
X9751Y23344D01*
X9749Y23341D01*
X9748Y23339D01*
X9747Y23338D01*
Y23337D01*
X9736Y23323D01*
X9724Y23311D01*
X9712Y23301D01*
X9700Y23292D01*
X9690Y23286D01*
X9681Y23281D01*
X9678Y23279D01*
X9676Y23278D01*
X9675Y23277D01*
X9674D01*
X9655Y23271D01*
X9636Y23266D01*
X9617Y23262D01*
X9599Y23260D01*
X9591Y23259D01*
X9583Y23259D01*
X9576D01*
X9571Y23258D01*
X9559D01*
X9539Y23259D01*
X9522Y23261D01*
X9505Y23264D01*
X9491Y23268D01*
X9479Y23271D01*
X9474Y23272D01*
X9470Y23274D01*
X9467Y23276D01*
X9465Y23276D01*
X9463Y23277D01*
X9463D01*
X9447Y23286D01*
X9433Y23294D01*
X9422Y23303D01*
X9413Y23312D01*
X9405Y23320D01*
X9400Y23326D01*
X9397Y23331D01*
X9396Y23332D01*
X9388Y23345D01*
X9383Y23359D01*
X9378Y23372D01*
X9376Y23384D01*
X9374Y23394D01*
X9373Y23401D01*
Y23405D01*
Y23407D01*
Y23408D01*
Y23408D01*
X9373Y23423D01*
X9376Y23437D01*
X9380Y23449D01*
X9383Y23459D01*
X9387Y23468D01*
X9391Y23474D01*
X9393Y23478D01*
X9394Y23480D01*
X9403Y23491D01*
X9413Y23501D01*
X9423Y23510D01*
X9434Y23517D01*
X9444Y23523D01*
X9452Y23527D01*
X9455Y23529D01*
X9456Y23531D01*
X9458Y23531D01*
X9459D01*
X9465Y23534D01*
X9473Y23537D01*
X9480Y23540D01*
X9489Y23542D01*
X9508Y23547D01*
X9526Y23553D01*
X9543Y23557D01*
X9551Y23559D01*
X9558Y23560D01*
X9563Y23562D01*
X9567Y23563D01*
X9570Y23564D01*
X9571D01*
X9585Y23567D01*
X9599Y23570D01*
X9610Y23574D01*
X9621Y23577D01*
X9630Y23580D01*
X9638Y23583D01*
X9645Y23586D01*
X9651Y23589D01*
X9656Y23591D01*
X9661Y23593D01*
X9664Y23595D01*
X9666Y23597D01*
X9670Y23599D01*
X9671Y23600D01*
X9677Y23607D01*
X9681Y23613D01*
X9685Y23621D01*
X9688Y23628D01*
X9689Y23634D01*
X9690Y23640D01*
Y23643D01*
Y23644D01*
X9688Y23656D01*
X9685Y23666D01*
X9681Y23675D01*
X9676Y23683D01*
X9671Y23689D01*
X9667Y23694D01*
X9664Y23697D01*
X9663Y23698D01*
X9658Y23702D01*
X9652Y23706D01*
X9638Y23711D01*
X9623Y23715D01*
X9609Y23717D01*
X9595Y23719D01*
X9589D01*
X9585Y23720D01*
X9575D01*
X9554Y23719D01*
X9536Y23716D01*
X9521Y23713D01*
X9509Y23708D01*
X9499Y23703D01*
X9493Y23699D01*
X9489Y23696D01*
X9487Y23696D01*
X9477Y23686D01*
X9469Y23674D01*
X9463Y23663D01*
X9458Y23651D01*
X9455Y23640D01*
X9453Y23632D01*
X9453Y23629D01*
X9452Y23627D01*
Y23625D01*
Y23624D01*
X9388Y23629D01*
X9390Y23645D01*
X9393Y23660D01*
X9397Y23673D01*
X9402Y23685D01*
X9406Y23694D01*
X9410Y23702D01*
X9413Y23706D01*
X9413Y23708D01*
X9423Y23720D01*
X9433Y23731D01*
X9444Y23740D01*
X9455Y23748D01*
X9465Y23753D01*
X9473Y23758D01*
X9476Y23759D01*
X9478Y23760D01*
X9479Y23761D01*
X9479D01*
X9496Y23767D01*
X9513Y23772D01*
X9529Y23775D01*
X9545Y23777D01*
X9558Y23779D01*
X9563D01*
X9569Y23779D01*
X9578D01*
X9596Y23779D01*
D02*
G37*
G36*
X9154Y23640D02*
X9166Y23639D01*
X9188Y23634D01*
X9208Y23627D01*
X9217Y23623D01*
X9225Y23620D01*
X9232Y23617D01*
X9238Y23613D01*
X9244Y23609D01*
X9248Y23606D01*
X9252Y23603D01*
X9254Y23601D01*
X9256Y23600D01*
X9257Y23600D01*
X9267Y23590D01*
X9275Y23579D01*
X9283Y23567D01*
X9289Y23555D01*
X9294Y23543D01*
X9299Y23531D01*
X9303Y23518D01*
X9306Y23506D01*
X9308Y23494D01*
X9310Y23484D01*
X9311Y23474D01*
X9312Y23466D01*
Y23459D01*
X9313Y23454D01*
Y23451D01*
Y23449D01*
X9312Y23432D01*
X9311Y23416D01*
X9308Y23401D01*
X9305Y23388D01*
X9302Y23375D01*
X9298Y23363D01*
X9294Y23353D01*
X9289Y23343D01*
X9285Y23335D01*
X9281Y23328D01*
X9277Y23322D01*
X9273Y23316D01*
X9271Y23312D01*
X9268Y23309D01*
X9267Y23308D01*
X9266Y23307D01*
X9257Y23299D01*
X9247Y23291D01*
X9237Y23284D01*
X9226Y23279D01*
X9216Y23274D01*
X9205Y23270D01*
X9186Y23264D01*
X9177Y23262D01*
X9168Y23260D01*
X9161Y23259D01*
X9155Y23259D01*
X9149Y23258D01*
X9142D01*
X9124Y23259D01*
X9108Y23262D01*
X9093Y23265D01*
X9080Y23269D01*
X9069Y23273D01*
X9061Y23277D01*
X9058Y23278D01*
X9056Y23279D01*
X9055Y23280D01*
X9054D01*
X9039Y23289D01*
X9027Y23299D01*
X9016Y23309D01*
X9008Y23319D01*
X9001Y23329D01*
X8996Y23335D01*
X8993Y23341D01*
X8992Y23342D01*
Y23342D01*
X8985Y23358D01*
X8980Y23377D01*
X8976Y23395D01*
X8973Y23413D01*
X8972Y23421D01*
X8971Y23429D01*
Y23436D01*
X8970Y23442D01*
Y23447D01*
Y23451D01*
Y23453D01*
Y23454D01*
X8971Y23470D01*
X8973Y23484D01*
X8975Y23499D01*
X8978Y23512D01*
X8982Y23524D01*
X8986Y23535D01*
X8990Y23546D01*
X8994Y23555D01*
X8999Y23563D01*
X9003Y23570D01*
X9007Y23577D01*
X9011Y23581D01*
X9014Y23585D01*
X9016Y23588D01*
X9018Y23590D01*
X9019Y23590D01*
X9028Y23599D01*
X9038Y23607D01*
X9048Y23613D01*
X9058Y23620D01*
X9069Y23624D01*
X9079Y23628D01*
X9098Y23634D01*
X9107Y23637D01*
X9115Y23638D01*
X9122Y23639D01*
X9129Y23640D01*
X9135Y23640D01*
X9142D01*
X9154Y23640D01*
D02*
G37*
G36*
X7000D02*
X7013Y23639D01*
X7035Y23634D01*
X7055Y23627D01*
X7063Y23623D01*
X7071Y23620D01*
X7079Y23617D01*
X7085Y23613D01*
X7090Y23609D01*
X7095Y23606D01*
X7099Y23603D01*
X7101Y23601D01*
X7103Y23600D01*
X7103Y23600D01*
X7113Y23590D01*
X7122Y23579D01*
X7129Y23567D01*
X7136Y23555D01*
X7141Y23543D01*
X7146Y23531D01*
X7149Y23518D01*
X7152Y23506D01*
X7155Y23494D01*
X7156Y23484D01*
X7158Y23474D01*
X7159Y23466D01*
Y23459D01*
X7159Y23454D01*
Y23451D01*
Y23449D01*
X7159Y23432D01*
X7157Y23416D01*
X7155Y23401D01*
X7152Y23388D01*
X7149Y23375D01*
X7145Y23363D01*
X7140Y23353D01*
X7136Y23343D01*
X7132Y23335D01*
X7127Y23328D01*
X7123Y23322D01*
X7119Y23316D01*
X7117Y23312D01*
X7115Y23309D01*
X7113Y23308D01*
X7113Y23307D01*
X7103Y23299D01*
X7093Y23291D01*
X7083Y23284D01*
X7073Y23279D01*
X7063Y23274D01*
X7052Y23270D01*
X7033Y23264D01*
X7023Y23262D01*
X7015Y23260D01*
X7007Y23259D01*
X7001Y23259D01*
X6996Y23258D01*
X6988D01*
X6970Y23259D01*
X6954Y23262D01*
X6940Y23265D01*
X6927Y23269D01*
X6916Y23273D01*
X6907Y23277D01*
X6904Y23278D01*
X6902Y23279D01*
X6901Y23280D01*
X6901D01*
X6886Y23289D01*
X6874Y23299D01*
X6863Y23309D01*
X6854Y23319D01*
X6848Y23329D01*
X6842Y23335D01*
X6839Y23341D01*
X6838Y23342D01*
Y23342D01*
X6831Y23358D01*
X6826Y23377D01*
X6822Y23395D01*
X6819Y23413D01*
X6818Y23421D01*
X6818Y23429D01*
Y23436D01*
X6817Y23442D01*
Y23447D01*
Y23451D01*
Y23453D01*
Y23454D01*
X6818Y23470D01*
X6819Y23484D01*
X6821Y23499D01*
X6824Y23512D01*
X6828Y23524D01*
X6832Y23535D01*
X6837Y23546D01*
X6841Y23555D01*
X6845Y23563D01*
X6850Y23570D01*
X6854Y23577D01*
X6858Y23581D01*
X6861Y23585D01*
X6863Y23588D01*
X6864Y23590D01*
X6865Y23590D01*
X6874Y23599D01*
X6884Y23607D01*
X6894Y23613D01*
X6904Y23620D01*
X6915Y23624D01*
X6925Y23628D01*
X6944Y23634D01*
X6954Y23637D01*
X6962Y23638D01*
X6969Y23639D01*
X6976Y23640D01*
X6981Y23640D01*
X6988D01*
X7000Y23640D01*
D02*
G37*
G36*
X11492Y5584D02*
X11507Y5582D01*
X11521Y5578D01*
X11532Y5575D01*
X11542Y5571D01*
X11549Y5567D01*
X11553Y5565D01*
X11555Y5564D01*
X11566Y5556D01*
X11577Y5547D01*
X11585Y5538D01*
X11593Y5529D01*
X11598Y5521D01*
X11603Y5515D01*
X11605Y5510D01*
X11606Y5510D01*
Y5509D01*
X11610Y5502D01*
X11613Y5494D01*
X11620Y5477D01*
X11625Y5459D01*
X11631Y5441D01*
X11635Y5424D01*
X11638Y5417D01*
X11639Y5411D01*
X11641Y5406D01*
X11641Y5402D01*
X11642Y5400D01*
Y5399D01*
X11645Y5386D01*
X11649Y5374D01*
X11652Y5363D01*
X11655Y5354D01*
X11658Y5345D01*
X11661Y5338D01*
X11663Y5331D01*
X11666Y5325D01*
X11668Y5320D01*
X11670Y5316D01*
X11673Y5310D01*
X11675Y5307D01*
X11676Y5306D01*
X11681Y5301D01*
X11686Y5298D01*
X11691Y5295D01*
X11696Y5293D01*
X11701Y5292D01*
X11704Y5292D01*
X11706D01*
X11707D01*
X11714Y5292D01*
X11720Y5294D01*
X11725Y5296D01*
X11730Y5299D01*
X11734Y5302D01*
X11736Y5305D01*
X11737Y5306D01*
X11738Y5307D01*
X11744Y5317D01*
X11749Y5328D01*
X11752Y5340D01*
X11754Y5351D01*
X11756Y5361D01*
X11757Y5369D01*
Y5376D01*
X11756Y5391D01*
X11754Y5404D01*
X11751Y5415D01*
X11748Y5424D01*
X11744Y5431D01*
X11742Y5436D01*
X11740Y5439D01*
X11739Y5440D01*
X11732Y5447D01*
X11724Y5454D01*
X11714Y5458D01*
X11705Y5462D01*
X11697Y5465D01*
X11690Y5467D01*
X11685Y5468D01*
X11684D01*
X11684D01*
X11688Y5570D01*
X11700Y5570D01*
X11712Y5567D01*
X11724Y5564D01*
X11734Y5561D01*
X11753Y5553D01*
X11761Y5549D01*
X11769Y5544D01*
X11776Y5540D01*
X11782Y5535D01*
X11787Y5531D01*
X11791Y5527D01*
X11794Y5524D01*
X11797Y5522D01*
X11798Y5520D01*
X11799Y5520D01*
X11807Y5510D01*
X11813Y5500D01*
X11819Y5489D01*
X11823Y5477D01*
X11831Y5454D01*
X11836Y5431D01*
X11837Y5420D01*
X11839Y5410D01*
X11840Y5401D01*
X11840Y5392D01*
X11841Y5386D01*
Y5377D01*
X11840Y5356D01*
X11838Y5337D01*
X11836Y5320D01*
X11833Y5305D01*
X11829Y5294D01*
X11827Y5289D01*
X11827Y5285D01*
X11825Y5282D01*
X11824Y5279D01*
X11823Y5278D01*
Y5278D01*
X11817Y5263D01*
X11808Y5251D01*
X11800Y5240D01*
X11791Y5232D01*
X11784Y5225D01*
X11777Y5219D01*
X11774Y5216D01*
X11773Y5215D01*
X11772D01*
X11759Y5209D01*
X11747Y5203D01*
X11734Y5199D01*
X11724Y5197D01*
X11714Y5196D01*
X11707Y5194D01*
X11704D01*
X11701D01*
X11701D01*
X11700D01*
X11689Y5195D01*
X11678Y5196D01*
X11668Y5199D01*
X11659Y5201D01*
X11641Y5209D01*
X11627Y5217D01*
X11621Y5222D01*
X11615Y5225D01*
X11610Y5229D01*
X11606Y5233D01*
X11603Y5235D01*
X11601Y5238D01*
X11599Y5239D01*
X11598Y5240D01*
X11593Y5247D01*
X11588Y5255D01*
X11578Y5272D01*
X11569Y5291D01*
X11562Y5310D01*
X11556Y5327D01*
X11554Y5335D01*
X11552Y5341D01*
X11551Y5347D01*
X11549Y5351D01*
X11549Y5354D01*
Y5354D01*
X11545Y5366D01*
X11543Y5376D01*
X11541Y5385D01*
X11539Y5394D01*
X11536Y5401D01*
X11535Y5407D01*
X11533Y5414D01*
X11532Y5418D01*
X11529Y5426D01*
X11528Y5431D01*
X11526Y5434D01*
Y5435D01*
X11522Y5444D01*
X11519Y5452D01*
X11516Y5458D01*
X11512Y5464D01*
X11509Y5467D01*
X11506Y5470D01*
X11505Y5471D01*
X11504Y5472D01*
X11499Y5476D01*
X11494Y5478D01*
X11485Y5481D01*
X11480Y5482D01*
X11477Y5483D01*
X11475D01*
X11474D01*
X11464Y5482D01*
X11455Y5479D01*
X11446Y5475D01*
X11439Y5470D01*
X11433Y5465D01*
X11429Y5461D01*
X11426Y5458D01*
X11426Y5457D01*
X11419Y5447D01*
X11413Y5436D01*
X11410Y5424D01*
X11407Y5411D01*
X11406Y5401D01*
X11405Y5392D01*
Y5384D01*
X11406Y5367D01*
X11409Y5352D01*
X11413Y5340D01*
X11416Y5329D01*
X11421Y5321D01*
X11424Y5315D01*
X11427Y5311D01*
X11428Y5309D01*
X11438Y5300D01*
X11449Y5292D01*
X11462Y5286D01*
X11473Y5282D01*
X11485Y5278D01*
X11493Y5275D01*
X11497Y5275D01*
X11499D01*
X11501Y5274D01*
X11502D01*
X11492Y5175D01*
X11476Y5177D01*
X11462Y5180D01*
X11448Y5184D01*
X11436Y5188D01*
X11424Y5193D01*
X11413Y5198D01*
X11404Y5203D01*
X11395Y5209D01*
X11388Y5214D01*
X11381Y5219D01*
X11376Y5223D01*
X11371Y5227D01*
X11367Y5231D01*
X11365Y5233D01*
X11363Y5235D01*
X11363Y5235D01*
X11355Y5245D01*
X11348Y5257D01*
X11343Y5268D01*
X11337Y5280D01*
X11333Y5292D01*
X11330Y5305D01*
X11324Y5328D01*
X11323Y5340D01*
X11321Y5350D01*
X11320Y5359D01*
X11320Y5367D01*
X11319Y5374D01*
Y5383D01*
X11320Y5407D01*
X11322Y5427D01*
X11324Y5446D01*
X11328Y5462D01*
X11330Y5469D01*
X11331Y5475D01*
X11333Y5480D01*
X11333Y5484D01*
X11335Y5487D01*
X11336Y5490D01*
X11337Y5491D01*
Y5492D01*
X11344Y5508D01*
X11353Y5521D01*
X11363Y5533D01*
X11372Y5543D01*
X11380Y5550D01*
X11386Y5556D01*
X11391Y5560D01*
X11392Y5560D01*
X11393D01*
X11407Y5569D01*
X11422Y5575D01*
X11436Y5579D01*
X11448Y5582D01*
X11459Y5583D01*
X11467Y5585D01*
X11470D01*
X11473D01*
X11474D01*
X11475D01*
X11492Y5584D01*
D02*
G37*
G36*
X11833Y5033D02*
X11632Y4917D01*
X11833Y4798D01*
Y4679D01*
X11540Y4864D01*
X11328D01*
Y4966D01*
X11539D01*
X11833Y5150D01*
Y5033D01*
D02*
G37*
G36*
X11492Y4644D02*
X11507Y4642D01*
X11521Y4638D01*
X11532Y4635D01*
X11542Y4631D01*
X11549Y4627D01*
X11553Y4625D01*
X11555Y4624D01*
X11566Y4616D01*
X11577Y4607D01*
X11585Y4598D01*
X11593Y4589D01*
X11598Y4581D01*
X11603Y4575D01*
X11605Y4570D01*
X11606Y4570D01*
Y4569D01*
X11610Y4562D01*
X11613Y4554D01*
X11620Y4537D01*
X11625Y4519D01*
X11631Y4500D01*
X11635Y4484D01*
X11638Y4477D01*
X11639Y4471D01*
X11641Y4466D01*
X11641Y4462D01*
X11642Y4460D01*
Y4459D01*
X11645Y4446D01*
X11649Y4434D01*
X11652Y4423D01*
X11655Y4414D01*
X11658Y4404D01*
X11661Y4398D01*
X11663Y4391D01*
X11666Y4385D01*
X11668Y4380D01*
X11670Y4376D01*
X11673Y4370D01*
X11675Y4367D01*
X11676Y4366D01*
X11681Y4361D01*
X11686Y4358D01*
X11691Y4355D01*
X11696Y4353D01*
X11701Y4352D01*
X11704Y4351D01*
X11706D01*
X11707D01*
X11714Y4352D01*
X11720Y4354D01*
X11725Y4356D01*
X11730Y4359D01*
X11734Y4362D01*
X11736Y4365D01*
X11737Y4366D01*
X11738Y4367D01*
X11744Y4377D01*
X11749Y4388D01*
X11752Y4400D01*
X11754Y4411D01*
X11756Y4421D01*
X11757Y4429D01*
Y4436D01*
X11756Y4451D01*
X11754Y4464D01*
X11751Y4475D01*
X11748Y4484D01*
X11744Y4491D01*
X11742Y4496D01*
X11740Y4499D01*
X11739Y4500D01*
X11732Y4507D01*
X11724Y4514D01*
X11714Y4518D01*
X11705Y4522D01*
X11697Y4525D01*
X11690Y4527D01*
X11685Y4528D01*
X11684D01*
X11684D01*
X11688Y4630D01*
X11700Y4629D01*
X11712Y4627D01*
X11724Y4624D01*
X11734Y4621D01*
X11753Y4613D01*
X11761Y4609D01*
X11769Y4604D01*
X11776Y4600D01*
X11782Y4595D01*
X11787Y4591D01*
X11791Y4587D01*
X11794Y4584D01*
X11797Y4582D01*
X11798Y4580D01*
X11799Y4580D01*
X11807Y4570D01*
X11813Y4560D01*
X11819Y4549D01*
X11823Y4537D01*
X11831Y4514D01*
X11836Y4490D01*
X11837Y4480D01*
X11839Y4470D01*
X11840Y4461D01*
X11840Y4452D01*
X11841Y4446D01*
Y4437D01*
X11840Y4416D01*
X11838Y4397D01*
X11836Y4380D01*
X11833Y4365D01*
X11829Y4354D01*
X11827Y4349D01*
X11827Y4345D01*
X11825Y4342D01*
X11824Y4339D01*
X11823Y4338D01*
Y4338D01*
X11817Y4323D01*
X11808Y4311D01*
X11800Y4300D01*
X11791Y4292D01*
X11784Y4285D01*
X11777Y4279D01*
X11774Y4276D01*
X11773Y4275D01*
X11772D01*
X11759Y4269D01*
X11747Y4263D01*
X11734Y4259D01*
X11724Y4257D01*
X11714Y4255D01*
X11707Y4254D01*
X11704D01*
X11701D01*
X11701D01*
X11700D01*
X11689Y4255D01*
X11678Y4256D01*
X11668Y4259D01*
X11659Y4261D01*
X11641Y4269D01*
X11627Y4277D01*
X11621Y4282D01*
X11615Y4285D01*
X11610Y4289D01*
X11606Y4293D01*
X11603Y4295D01*
X11601Y4298D01*
X11599Y4299D01*
X11598Y4300D01*
X11593Y4307D01*
X11588Y4315D01*
X11578Y4332D01*
X11569Y4351D01*
X11562Y4370D01*
X11556Y4387D01*
X11554Y4394D01*
X11552Y4401D01*
X11551Y4407D01*
X11549Y4411D01*
X11549Y4414D01*
Y4414D01*
X11545Y4426D01*
X11543Y4436D01*
X11541Y4445D01*
X11539Y4454D01*
X11536Y4461D01*
X11535Y4467D01*
X11533Y4474D01*
X11532Y4478D01*
X11529Y4486D01*
X11528Y4491D01*
X11526Y4494D01*
Y4495D01*
X11522Y4504D01*
X11519Y4512D01*
X11516Y4518D01*
X11512Y4524D01*
X11509Y4527D01*
X11506Y4530D01*
X11505Y4531D01*
X11504Y4532D01*
X11499Y4536D01*
X11494Y4538D01*
X11485Y4541D01*
X11480Y4542D01*
X11477Y4543D01*
X11475D01*
X11474D01*
X11464Y4542D01*
X11455Y4539D01*
X11446Y4535D01*
X11439Y4530D01*
X11433Y4525D01*
X11429Y4521D01*
X11426Y4518D01*
X11426Y4517D01*
X11419Y4507D01*
X11413Y4496D01*
X11410Y4484D01*
X11407Y4471D01*
X11406Y4461D01*
X11405Y4452D01*
Y4444D01*
X11406Y4427D01*
X11409Y4412D01*
X11413Y4400D01*
X11416Y4389D01*
X11421Y4381D01*
X11424Y4375D01*
X11427Y4371D01*
X11428Y4369D01*
X11438Y4360D01*
X11449Y4352D01*
X11462Y4346D01*
X11473Y4342D01*
X11485Y4338D01*
X11493Y4335D01*
X11497Y4335D01*
X11499D01*
X11501Y4334D01*
X11502D01*
X11492Y4235D01*
X11476Y4237D01*
X11462Y4240D01*
X11448Y4244D01*
X11436Y4248D01*
X11424Y4253D01*
X11413Y4258D01*
X11404Y4263D01*
X11395Y4269D01*
X11388Y4274D01*
X11381Y4279D01*
X11376Y4283D01*
X11371Y4287D01*
X11367Y4291D01*
X11365Y4293D01*
X11363Y4295D01*
X11363Y4295D01*
X11355Y4305D01*
X11348Y4317D01*
X11343Y4328D01*
X11337Y4340D01*
X11333Y4352D01*
X11330Y4365D01*
X11324Y4388D01*
X11323Y4400D01*
X11321Y4410D01*
X11320Y4419D01*
X11320Y4427D01*
X11319Y4434D01*
Y4443D01*
X11320Y4467D01*
X11322Y4487D01*
X11324Y4506D01*
X11328Y4522D01*
X11330Y4529D01*
X11331Y4535D01*
X11333Y4540D01*
X11333Y4544D01*
X11335Y4547D01*
X11336Y4550D01*
X11337Y4551D01*
Y4552D01*
X11344Y4568D01*
X11353Y4581D01*
X11363Y4593D01*
X11372Y4603D01*
X11380Y4610D01*
X11386Y4616D01*
X11391Y4620D01*
X11392Y4620D01*
X11393D01*
X11407Y4629D01*
X11422Y4635D01*
X11436Y4639D01*
X11448Y4642D01*
X11459Y4643D01*
X11467Y4645D01*
X11470D01*
X11473D01*
X11474D01*
X11475D01*
X11492Y4644D01*
D02*
G37*
G36*
X11833Y4101D02*
X11459Y3978D01*
X11833Y3850D01*
Y3740D01*
X11328Y3921D01*
Y4030D01*
X11833Y4210D01*
Y4101D01*
D02*
G37*
G36*
X5358Y10683D02*
X5347Y10659D01*
X5335Y10638D01*
X5329Y10628D01*
X5323Y10620D01*
X5318Y10611D01*
X5312Y10604D01*
X5308Y10598D01*
X5304Y10593D01*
X5300Y10589D01*
X5298Y10586D01*
X5296Y10584D01*
X5295Y10583D01*
X5659D01*
Y10487D01*
X5153D01*
Y10566D01*
X5170Y10573D01*
X5186Y10582D01*
X5199Y10592D01*
X5211Y10602D01*
X5221Y10612D01*
X5228Y10620D01*
X5230Y10622D01*
X5232Y10624D01*
X5233Y10626D01*
X5234Y10626D01*
X5246Y10643D01*
X5255Y10658D01*
X5264Y10672D01*
X5270Y10684D01*
X5275Y10694D01*
X5279Y10702D01*
X5279Y10705D01*
X5280Y10707D01*
X5281Y10708D01*
Y10709D01*
X5368D01*
X5358Y10683D01*
D02*
G37*
G36*
X5659Y10017D02*
X5570D01*
Y10209D01*
X5560Y10203D01*
X5552Y10196D01*
X5548Y10194D01*
X5546Y10192D01*
X5544Y10190D01*
X5543Y10189D01*
X5540Y10186D01*
X5537Y10183D01*
X5529Y10175D01*
X5520Y10166D01*
X5510Y10156D01*
X5501Y10146D01*
X5494Y10139D01*
X5491Y10136D01*
X5489Y10134D01*
X5488Y10133D01*
X5487Y10132D01*
X5473Y10116D01*
X5460Y10103D01*
X5448Y10091D01*
X5439Y10083D01*
X5432Y10076D01*
X5427Y10071D01*
X5424Y10069D01*
X5423Y10068D01*
X5411Y10059D01*
X5399Y10050D01*
X5388Y10044D01*
X5378Y10038D01*
X5371Y10034D01*
X5365Y10031D01*
X5361Y10030D01*
X5359Y10029D01*
X5348Y10025D01*
X5335Y10022D01*
X5325Y10020D01*
X5315Y10018D01*
X5306Y10017D01*
X5299Y10017D01*
X5295D01*
X5294D01*
X5283Y10017D01*
X5272Y10018D01*
X5253Y10024D01*
X5236Y10031D01*
X5222Y10038D01*
X5210Y10046D01*
X5205Y10050D01*
X5201Y10053D01*
X5198Y10056D01*
X5196Y10058D01*
X5195Y10059D01*
X5194Y10060D01*
X5187Y10068D01*
X5180Y10077D01*
X5175Y10087D01*
X5170Y10096D01*
X5163Y10116D01*
X5159Y10134D01*
X5156Y10143D01*
X5156Y10151D01*
X5155Y10159D01*
X5154Y10165D01*
X5153Y10170D01*
Y10189D01*
X5155Y10202D01*
X5159Y10223D01*
X5165Y10242D01*
X5168Y10251D01*
X5171Y10259D01*
X5174Y10266D01*
X5177Y10272D01*
X5180Y10278D01*
X5183Y10282D01*
X5186Y10285D01*
X5187Y10288D01*
X5188Y10289D01*
X5189Y10290D01*
X5196Y10298D01*
X5203Y10305D01*
X5212Y10312D01*
X5221Y10318D01*
X5240Y10327D01*
X5259Y10334D01*
X5268Y10337D01*
X5276Y10338D01*
X5283Y10341D01*
X5290Y10342D01*
X5295Y10343D01*
X5299D01*
X5302Y10344D01*
X5303D01*
X5312Y10248D01*
X5298Y10246D01*
X5285Y10244D01*
X5275Y10240D01*
X5266Y10237D01*
X5259Y10233D01*
X5255Y10231D01*
X5252Y10229D01*
X5252Y10228D01*
X5245Y10220D01*
X5241Y10213D01*
X5238Y10204D01*
X5236Y10196D01*
X5234Y10190D01*
X5233Y10184D01*
Y10180D01*
X5234Y10169D01*
X5236Y10159D01*
X5239Y10150D01*
X5242Y10143D01*
X5245Y10138D01*
X5248Y10134D01*
X5250Y10132D01*
X5251Y10131D01*
X5258Y10125D01*
X5266Y10121D01*
X5275Y10118D01*
X5282Y10116D01*
X5289Y10114D01*
X5295Y10113D01*
X5299D01*
X5301D01*
X5312Y10114D01*
X5322Y10117D01*
X5332Y10120D01*
X5341Y10123D01*
X5349Y10127D01*
X5355Y10130D01*
X5358Y10133D01*
X5360Y10133D01*
X5365Y10136D01*
X5370Y10141D01*
X5375Y10146D01*
X5381Y10153D01*
X5395Y10166D01*
X5409Y10180D01*
X5421Y10193D01*
X5428Y10199D01*
X5432Y10203D01*
X5436Y10208D01*
X5440Y10211D01*
X5441Y10213D01*
X5442Y10214D01*
X5456Y10229D01*
X5469Y10242D01*
X5481Y10254D01*
X5493Y10266D01*
X5504Y10276D01*
X5514Y10284D01*
X5523Y10292D01*
X5531Y10299D01*
X5538Y10305D01*
X5545Y10310D01*
X5550Y10314D01*
X5555Y10318D01*
X5559Y10320D01*
X5561Y10322D01*
X5563Y10323D01*
X5563D01*
X5580Y10332D01*
X5597Y10339D01*
X5613Y10345D01*
X5629Y10349D01*
X5641Y10352D01*
X5646Y10353D01*
X5651Y10354D01*
X5654Y10355D01*
X5657Y10355D01*
X5659D01*
X5659D01*
Y10017D01*
D02*
G37*
G36*
X5473Y9951D02*
X5466Y9942D01*
X5460Y9934D01*
X5454Y9925D01*
X5450Y9918D01*
X5446Y9909D01*
X5441Y9895D01*
X5437Y9883D01*
X5436Y9878D01*
X5435Y9874D01*
X5434Y9870D01*
Y9865D01*
X5435Y9853D01*
X5438Y9839D01*
X5441Y9825D01*
X5446Y9812D01*
X5450Y9800D01*
X5452Y9795D01*
X5454Y9790D01*
X5455Y9787D01*
X5457Y9784D01*
X5457Y9782D01*
Y9782D01*
X5463Y9769D01*
X5467Y9759D01*
X5471Y9750D01*
X5473Y9743D01*
X5474Y9737D01*
X5476Y9733D01*
X5477Y9731D01*
Y9730D01*
X5479Y9718D01*
X5480Y9712D01*
Y9707D01*
X5480Y9703D01*
Y9696D01*
X5480Y9685D01*
X5478Y9674D01*
X5476Y9664D01*
X5474Y9655D01*
X5471Y9648D01*
X5469Y9642D01*
X5467Y9639D01*
X5467Y9637D01*
X5461Y9627D01*
X5456Y9618D01*
X5451Y9610D01*
X5445Y9604D01*
X5441Y9600D01*
X5438Y9596D01*
X5436Y9594D01*
X5435Y9593D01*
X5342D01*
X5351Y9602D01*
X5359Y9611D01*
X5365Y9620D01*
X5371Y9627D01*
X5375Y9633D01*
X5378Y9638D01*
X5379Y9641D01*
X5380Y9643D01*
X5384Y9652D01*
X5387Y9660D01*
X5388Y9668D01*
X5390Y9674D01*
X5391Y9680D01*
X5391Y9684D01*
Y9687D01*
X5391Y9695D01*
X5388Y9704D01*
X5385Y9715D01*
X5382Y9726D01*
X5379Y9736D01*
X5376Y9744D01*
X5375Y9747D01*
X5374Y9749D01*
X5373Y9751D01*
Y9752D01*
X5367Y9768D01*
X5361Y9782D01*
X5358Y9793D01*
X5355Y9802D01*
X5352Y9809D01*
X5351Y9814D01*
X5350Y9817D01*
Y9818D01*
X5347Y9832D01*
X5346Y9839D01*
Y9845D01*
X5345Y9850D01*
Y9858D01*
X5346Y9868D01*
X5348Y9878D01*
X5350Y9888D01*
X5352Y9898D01*
X5360Y9915D01*
X5368Y9930D01*
X5378Y9942D01*
X5381Y9947D01*
X5385Y9951D01*
X5388Y9954D01*
X5390Y9957D01*
X5391Y9958D01*
X5392Y9959D01*
X5481D01*
X5473Y9951D01*
D02*
G37*
G36*
X5659Y9213D02*
X5570D01*
Y9406D01*
X5560Y9400D01*
X5552Y9393D01*
X5548Y9391D01*
X5546Y9388D01*
X5544Y9387D01*
X5543Y9386D01*
X5540Y9383D01*
X5537Y9380D01*
X5529Y9372D01*
X5520Y9362D01*
X5510Y9352D01*
X5501Y9343D01*
X5494Y9335D01*
X5491Y9333D01*
X5489Y9331D01*
X5488Y9329D01*
X5487Y9329D01*
X5473Y9312D01*
X5460Y9299D01*
X5448Y9288D01*
X5439Y9279D01*
X5432Y9273D01*
X5427Y9268D01*
X5424Y9266D01*
X5423Y9265D01*
X5411Y9256D01*
X5399Y9247D01*
X5388Y9240D01*
X5378Y9235D01*
X5371Y9231D01*
X5365Y9228D01*
X5361Y9226D01*
X5359Y9226D01*
X5348Y9222D01*
X5335Y9219D01*
X5325Y9216D01*
X5315Y9215D01*
X5306Y9214D01*
X5299Y9213D01*
X5295D01*
X5294D01*
X5283Y9214D01*
X5272Y9215D01*
X5253Y9220D01*
X5236Y9227D01*
X5222Y9235D01*
X5210Y9243D01*
X5205Y9246D01*
X5201Y9249D01*
X5198Y9253D01*
X5196Y9255D01*
X5195Y9256D01*
X5194Y9256D01*
X5187Y9265D01*
X5180Y9273D01*
X5175Y9283D01*
X5170Y9292D01*
X5163Y9312D01*
X5159Y9331D01*
X5156Y9340D01*
X5156Y9348D01*
X5155Y9355D01*
X5154Y9362D01*
X5153Y9367D01*
Y9386D01*
X5155Y9398D01*
X5159Y9420D01*
X5165Y9439D01*
X5168Y9448D01*
X5171Y9455D01*
X5174Y9463D01*
X5177Y9469D01*
X5180Y9474D01*
X5183Y9478D01*
X5186Y9482D01*
X5187Y9484D01*
X5188Y9486D01*
X5189Y9487D01*
X5196Y9494D01*
X5203Y9502D01*
X5212Y9508D01*
X5221Y9514D01*
X5240Y9524D01*
X5259Y9531D01*
X5268Y9534D01*
X5276Y9535D01*
X5283Y9537D01*
X5290Y9538D01*
X5295Y9540D01*
X5299D01*
X5302Y9541D01*
X5303D01*
X5312Y9445D01*
X5298Y9443D01*
X5285Y9441D01*
X5275Y9437D01*
X5266Y9434D01*
X5259Y9430D01*
X5255Y9428D01*
X5252Y9425D01*
X5252Y9425D01*
X5245Y9417D01*
X5241Y9409D01*
X5238Y9401D01*
X5236Y9393D01*
X5234Y9387D01*
X5233Y9381D01*
Y9376D01*
X5234Y9365D01*
X5236Y9355D01*
X5239Y9347D01*
X5242Y9340D01*
X5245Y9335D01*
X5248Y9331D01*
X5250Y9329D01*
X5251Y9328D01*
X5258Y9322D01*
X5266Y9318D01*
X5275Y9315D01*
X5282Y9312D01*
X5289Y9311D01*
X5295Y9310D01*
X5299D01*
X5301D01*
X5312Y9311D01*
X5322Y9313D01*
X5332Y9316D01*
X5341Y9320D01*
X5349Y9324D01*
X5355Y9327D01*
X5358Y9329D01*
X5360Y9330D01*
X5365Y9333D01*
X5370Y9338D01*
X5375Y9343D01*
X5381Y9349D01*
X5395Y9362D01*
X5409Y9376D01*
X5421Y9389D01*
X5428Y9395D01*
X5432Y9400D01*
X5436Y9405D01*
X5440Y9408D01*
X5441Y9410D01*
X5442Y9411D01*
X5456Y9425D01*
X5469Y9439D01*
X5481Y9451D01*
X5493Y9462D01*
X5504Y9472D01*
X5514Y9481D01*
X5523Y9489D01*
X5531Y9496D01*
X5538Y9501D01*
X5545Y9507D01*
X5550Y9511D01*
X5555Y9514D01*
X5559Y9517D01*
X5561Y9518D01*
X5563Y9520D01*
X5563D01*
X5580Y9529D01*
X5597Y9536D01*
X5613Y9542D01*
X5629Y9546D01*
X5641Y9549D01*
X5646Y9550D01*
X5651Y9551D01*
X5654Y9551D01*
X5657Y9552D01*
X5659D01*
X5659D01*
Y9213D01*
D02*
G37*
G36*
X5558Y8958D02*
X5659D01*
Y8865D01*
X5558D01*
Y8802D01*
X5474D01*
Y8865D01*
X5153D01*
Y8946D01*
X5474Y9165D01*
X5558D01*
Y8958D01*
D02*
G37*
G36*
X5659Y8606D02*
Y8496D01*
X5155Y8316D01*
Y8425D01*
X5528Y8548D01*
X5155Y8677D01*
Y8786D01*
X5659Y8606D01*
D02*
G37*
G36*
X5602Y4220D02*
X5612Y4218D01*
X5633Y4211D01*
X5650Y4202D01*
X5665Y4193D01*
X5671Y4189D01*
X5676Y4185D01*
X5681Y4181D01*
X5685Y4177D01*
X5688Y4174D01*
X5690Y4172D01*
X5691Y4171D01*
X5691Y4170D01*
X5698Y4162D01*
X5704Y4153D01*
X5713Y4134D01*
X5719Y4115D01*
X5724Y4097D01*
X5725Y4089D01*
X5726Y4081D01*
X5728Y4074D01*
Y4068D01*
X5728Y4063D01*
Y4057D01*
X5728Y4040D01*
X5725Y4026D01*
X5722Y4011D01*
X5718Y3998D01*
X5713Y3986D01*
X5708Y3975D01*
X5701Y3964D01*
X5695Y3955D01*
X5689Y3947D01*
X5683Y3940D01*
X5678Y3934D01*
X5672Y3929D01*
X5668Y3925D01*
X5665Y3922D01*
X5663Y3921D01*
X5662Y3920D01*
X5653Y3914D01*
X5643Y3908D01*
X5624Y3899D01*
X5605Y3892D01*
X5588Y3888D01*
X5580Y3887D01*
X5573Y3885D01*
X5567Y3885D01*
X5562D01*
X5557Y3884D01*
X5554D01*
X5552D01*
X5551D01*
X5537Y3885D01*
X5524Y3886D01*
X5512Y3888D01*
X5500Y3891D01*
X5490Y3895D01*
X5480Y3898D01*
X5470Y3902D01*
X5462Y3906D01*
X5454Y3911D01*
X5447Y3914D01*
X5442Y3918D01*
X5437Y3922D01*
X5433Y3925D01*
X5431Y3927D01*
X5430Y3928D01*
X5429Y3929D01*
X5420Y3938D01*
X5413Y3947D01*
X5407Y3956D01*
X5402Y3965D01*
X5397Y3974D01*
X5393Y3983D01*
X5388Y4000D01*
X5386Y4008D01*
X5384Y4015D01*
X5384Y4022D01*
X5383Y4027D01*
X5382Y4032D01*
Y4038D01*
X5383Y4050D01*
X5384Y4063D01*
X5387Y4074D01*
X5390Y4083D01*
X5393Y4092D01*
X5396Y4099D01*
X5397Y4103D01*
X5398Y4104D01*
X5313Y4089D01*
Y3906D01*
X5222D01*
Y4162D01*
X5485Y4211D01*
X5496Y4133D01*
X5490Y4127D01*
X5483Y4120D01*
X5474Y4108D01*
X5468Y4095D01*
X5463Y4083D01*
X5460Y4073D01*
X5460Y4065D01*
X5459Y4062D01*
Y4058D01*
X5460Y4047D01*
X5463Y4036D01*
X5466Y4027D01*
X5470Y4019D01*
X5475Y4013D01*
X5479Y4008D01*
X5482Y4005D01*
X5483Y4004D01*
X5492Y3997D01*
X5503Y3992D01*
X5515Y3988D01*
X5526Y3985D01*
X5536Y3984D01*
X5545Y3983D01*
X5548D01*
X5550D01*
X5552D01*
X5552D01*
X5569Y3984D01*
X5585Y3986D01*
X5597Y3990D01*
X5608Y3994D01*
X5615Y3997D01*
X5622Y4001D01*
X5625Y4004D01*
X5626Y4004D01*
X5635Y4013D01*
X5640Y4021D01*
X5645Y4030D01*
X5648Y4038D01*
X5649Y4045D01*
X5650Y4050D01*
X5651Y4054D01*
Y4056D01*
X5650Y4065D01*
X5648Y4074D01*
X5645Y4082D01*
X5642Y4089D01*
X5638Y4095D01*
X5635Y4099D01*
X5633Y4102D01*
X5632Y4103D01*
X5625Y4110D01*
X5616Y4115D01*
X5607Y4119D01*
X5599Y4122D01*
X5592Y4124D01*
X5586Y4126D01*
X5582Y4126D01*
X5580D01*
X5590Y4222D01*
X5602Y4220D01*
D02*
G37*
G36*
X5719Y3682D02*
Y3572D01*
X5215Y3392D01*
Y3501D01*
X5588Y3624D01*
X5215Y3752D01*
Y3862D01*
X5719Y3682D01*
D02*
G37*
G36*
X5050Y4987D02*
Y4877D01*
X4545Y4697D01*
Y4806D01*
X4919Y4929D01*
X4545Y5058D01*
Y5167D01*
X5050Y4987D01*
D02*
G37*
G36*
Y4427D02*
X5049Y4414D01*
Y4393D01*
X5048Y4384D01*
Y4370D01*
X5048Y4365D01*
Y4357D01*
X5047Y4355D01*
Y4352D01*
X5044Y4337D01*
X5041Y4324D01*
X5038Y4313D01*
X5033Y4303D01*
X5029Y4294D01*
X5026Y4288D01*
X5024Y4285D01*
X5023Y4283D01*
X5015Y4273D01*
X5006Y4265D01*
X4998Y4257D01*
X4989Y4251D01*
X4982Y4246D01*
X4976Y4243D01*
X4972Y4240D01*
X4971Y4240D01*
X4958Y4234D01*
X4947Y4230D01*
X4935Y4227D01*
X4925Y4226D01*
X4916Y4224D01*
X4910Y4223D01*
X4905D01*
X4904D01*
X4888Y4224D01*
X4873Y4227D01*
X4861Y4231D01*
X4849Y4236D01*
X4840Y4241D01*
X4833Y4245D01*
X4829Y4248D01*
X4828Y4249D01*
X4816Y4259D01*
X4806Y4270D01*
X4799Y4282D01*
X4793Y4293D01*
X4788Y4303D01*
X4784Y4312D01*
X4783Y4315D01*
X4783Y4317D01*
X4782Y4319D01*
Y4319D01*
X4776Y4308D01*
X4769Y4297D01*
X4762Y4289D01*
X4754Y4281D01*
X4748Y4275D01*
X4743Y4271D01*
X4740Y4268D01*
X4738Y4267D01*
X4727Y4261D01*
X4715Y4256D01*
X4704Y4253D01*
X4694Y4250D01*
X4686Y4249D01*
X4679Y4248D01*
X4674D01*
X4673D01*
X4660Y4249D01*
X4650Y4250D01*
X4640Y4253D01*
X4631Y4256D01*
X4624Y4259D01*
X4618Y4262D01*
X4615Y4263D01*
X4614Y4264D01*
X4604Y4270D01*
X4596Y4276D01*
X4589Y4283D01*
X4583Y4289D01*
X4578Y4294D01*
X4574Y4299D01*
X4572Y4302D01*
X4571Y4303D01*
X4566Y4312D01*
X4561Y4320D01*
X4558Y4329D01*
X4555Y4338D01*
X4553Y4345D01*
X4551Y4350D01*
X4551Y4354D01*
Y4356D01*
X4549Y4368D01*
X4548Y4382D01*
X4547Y4396D01*
X4546Y4411D01*
X4545Y4424D01*
Y4646D01*
X5050D01*
Y4427D01*
D02*
G37*
G36*
X4845Y4137D02*
X4859D01*
X4871Y4136D01*
X4882Y4135D01*
X4893Y4134D01*
X4902Y4134D01*
X4911Y4133D01*
X4919Y4132D01*
X4925Y4131D01*
X4931Y4131D01*
X4935Y4130D01*
X4938Y4129D01*
X4941Y4128D01*
X4942D01*
X4943D01*
X4954Y4125D01*
X4964Y4121D01*
X4974Y4116D01*
X4982Y4111D01*
X4989Y4107D01*
X4995Y4103D01*
X4998Y4101D01*
X4999Y4100D01*
X5008Y4091D01*
X5018Y4081D01*
X5024Y4071D01*
X5031Y4062D01*
X5036Y4054D01*
X5040Y4047D01*
X5042Y4042D01*
X5043Y4041D01*
Y4041D01*
X5046Y4033D01*
X5048Y4025D01*
X5052Y4008D01*
X5055Y3990D01*
X5057Y3972D01*
X5058Y3956D01*
Y3949D01*
X5059Y3943D01*
Y3932D01*
X5058Y3910D01*
X5057Y3891D01*
X5054Y3875D01*
X5051Y3861D01*
X5049Y3849D01*
X5048Y3845D01*
X5047Y3842D01*
X5046Y3839D01*
X5045Y3836D01*
X5044Y3836D01*
Y3835D01*
X5038Y3822D01*
X5031Y3810D01*
X5024Y3800D01*
X5018Y3791D01*
X5012Y3785D01*
X5008Y3780D01*
X5004Y3776D01*
X5003Y3776D01*
X4993Y3768D01*
X4982Y3761D01*
X4972Y3757D01*
X4962Y3752D01*
X4952Y3749D01*
X4945Y3747D01*
X4941Y3745D01*
X4940D01*
X4939D01*
X4932Y3743D01*
X4923Y3742D01*
X4913Y3741D01*
X4903Y3740D01*
X4882Y3739D01*
X4861Y3737D01*
X4851D01*
X4842D01*
X4833Y3737D01*
X4826D01*
X4819D01*
X4815D01*
X4812D01*
X4811D01*
X4545D01*
Y3839D01*
X4826D01*
X4836D01*
X4846D01*
X4856Y3839D01*
X4864D01*
X4879Y3840D01*
X4891Y3841D01*
X4900Y3842D01*
X4906Y3843D01*
X4910Y3843D01*
X4912D01*
X4921Y3846D01*
X4929Y3849D01*
X4936Y3854D01*
X4942Y3859D01*
X4948Y3862D01*
X4952Y3866D01*
X4954Y3869D01*
X4955Y3870D01*
X4961Y3879D01*
X4965Y3889D01*
X4968Y3900D01*
X4970Y3910D01*
X4972Y3920D01*
X4972Y3928D01*
Y3935D01*
X4972Y3949D01*
X4969Y3963D01*
X4966Y3975D01*
X4963Y3984D01*
X4960Y3992D01*
X4957Y3997D01*
X4955Y4000D01*
X4954Y4002D01*
X4946Y4010D01*
X4938Y4016D01*
X4930Y4021D01*
X4922Y4026D01*
X4915Y4028D01*
X4909Y4031D01*
X4905Y4032D01*
X4904D01*
X4900Y4033D01*
X4895D01*
X4882Y4034D01*
X4869Y4035D01*
X4855D01*
X4841Y4035D01*
X4835D01*
X4830D01*
X4826D01*
X4823D01*
X4820D01*
X4819D01*
X4545D01*
Y4137D01*
X4815D01*
X4830D01*
X4845Y4137D01*
D02*
G37*
G36*
X4902Y3654D02*
X4916Y3651D01*
X4930Y3647D01*
X4942Y3643D01*
X4954Y3637D01*
X4965Y3633D01*
X4974Y3627D01*
X4983Y3622D01*
X4990Y3617D01*
X4997Y3612D01*
X5002Y3608D01*
X5007Y3604D01*
X5011Y3600D01*
X5013Y3598D01*
X5015Y3596D01*
X5015Y3595D01*
X5023Y3585D01*
X5030Y3574D01*
X5035Y3562D01*
X5041Y3551D01*
X5044Y3538D01*
X5048Y3526D01*
X5054Y3502D01*
X5055Y3491D01*
X5057Y3481D01*
X5058Y3472D01*
X5058Y3464D01*
X5059Y3457D01*
Y3448D01*
X5058Y3424D01*
X5056Y3403D01*
X5054Y3385D01*
X5050Y3369D01*
X5048Y3362D01*
X5047Y3356D01*
X5045Y3351D01*
X5044Y3346D01*
X5043Y3343D01*
X5042Y3341D01*
X5041Y3339D01*
Y3339D01*
X5034Y3323D01*
X5024Y3310D01*
X5015Y3297D01*
X5006Y3288D01*
X4998Y3280D01*
X4991Y3275D01*
X4987Y3271D01*
X4986Y3270D01*
X4985D01*
X4971Y3262D01*
X4956Y3256D01*
X4942Y3252D01*
X4930Y3249D01*
X4919Y3247D01*
X4911Y3246D01*
X4908D01*
X4905D01*
X4904D01*
X4903D01*
X4886Y3247D01*
X4871Y3249D01*
X4857Y3253D01*
X4846Y3256D01*
X4836Y3260D01*
X4829Y3263D01*
X4825Y3266D01*
X4823Y3267D01*
X4812Y3275D01*
X4801Y3283D01*
X4793Y3293D01*
X4785Y3302D01*
X4780Y3310D01*
X4775Y3316D01*
X4773Y3320D01*
X4772Y3321D01*
Y3322D01*
X4768Y3329D01*
X4765Y3336D01*
X4758Y3354D01*
X4753Y3372D01*
X4746Y3390D01*
X4743Y3406D01*
X4740Y3413D01*
X4739Y3419D01*
X4737Y3425D01*
X4736Y3429D01*
X4736Y3431D01*
Y3432D01*
X4733Y3445D01*
X4729Y3457D01*
X4726Y3468D01*
X4723Y3477D01*
X4720Y3486D01*
X4717Y3493D01*
X4715Y3500D01*
X4712Y3505D01*
X4710Y3511D01*
X4708Y3515D01*
X4705Y3521D01*
X4703Y3524D01*
X4702Y3525D01*
X4697Y3529D01*
X4692Y3533D01*
X4687Y3535D01*
X4682Y3538D01*
X4677Y3538D01*
X4674Y3539D01*
X4672D01*
X4671D01*
X4664Y3538D01*
X4658Y3537D01*
X4653Y3535D01*
X4648Y3531D01*
X4644Y3528D01*
X4642Y3526D01*
X4640Y3525D01*
X4640Y3524D01*
X4634Y3514D01*
X4629Y3502D01*
X4626Y3491D01*
X4624Y3480D01*
X4622Y3470D01*
X4621Y3462D01*
Y3455D01*
X4622Y3439D01*
X4624Y3426D01*
X4627Y3416D01*
X4630Y3406D01*
X4634Y3399D01*
X4636Y3395D01*
X4638Y3392D01*
X4639Y3391D01*
X4646Y3383D01*
X4654Y3377D01*
X4664Y3373D01*
X4673Y3369D01*
X4681Y3366D01*
X4688Y3364D01*
X4693Y3363D01*
X4693D01*
X4694D01*
X4690Y3260D01*
X4678Y3261D01*
X4666Y3263D01*
X4654Y3267D01*
X4644Y3270D01*
X4625Y3278D01*
X4617Y3282D01*
X4609Y3286D01*
X4602Y3291D01*
X4596Y3296D01*
X4591Y3300D01*
X4587Y3303D01*
X4584Y3306D01*
X4581Y3309D01*
X4580Y3310D01*
X4579Y3311D01*
X4571Y3320D01*
X4565Y3331D01*
X4559Y3342D01*
X4554Y3353D01*
X4547Y3377D01*
X4542Y3400D01*
X4541Y3411D01*
X4539Y3421D01*
X4538Y3430D01*
X4538Y3439D01*
X4537Y3445D01*
Y3454D01*
X4538Y3475D01*
X4540Y3494D01*
X4542Y3511D01*
X4545Y3525D01*
X4549Y3537D01*
X4551Y3541D01*
X4551Y3545D01*
X4553Y3548D01*
X4554Y3551D01*
X4554Y3552D01*
Y3553D01*
X4561Y3568D01*
X4570Y3580D01*
X4578Y3591D01*
X4587Y3599D01*
X4594Y3606D01*
X4601Y3611D01*
X4604Y3614D01*
X4605Y3615D01*
X4606D01*
X4619Y3622D01*
X4631Y3627D01*
X4644Y3631D01*
X4654Y3634D01*
X4664Y3635D01*
X4671Y3637D01*
X4674D01*
X4677D01*
X4677D01*
X4678D01*
X4689Y3636D01*
X4700Y3634D01*
X4710Y3632D01*
X4719Y3630D01*
X4736Y3622D01*
X4751Y3614D01*
X4757Y3609D01*
X4763Y3605D01*
X4768Y3601D01*
X4772Y3598D01*
X4775Y3595D01*
X4777Y3593D01*
X4779Y3591D01*
X4780Y3591D01*
X4785Y3584D01*
X4790Y3576D01*
X4800Y3559D01*
X4809Y3540D01*
X4816Y3521D01*
X4822Y3504D01*
X4824Y3496D01*
X4826Y3489D01*
X4827Y3484D01*
X4829Y3480D01*
X4829Y3477D01*
Y3476D01*
X4832Y3465D01*
X4835Y3455D01*
X4837Y3445D01*
X4839Y3437D01*
X4842Y3429D01*
X4843Y3423D01*
X4845Y3417D01*
X4846Y3412D01*
X4849Y3405D01*
X4850Y3399D01*
X4852Y3396D01*
Y3396D01*
X4856Y3386D01*
X4859Y3379D01*
X4862Y3373D01*
X4866Y3367D01*
X4869Y3363D01*
X4872Y3361D01*
X4873Y3359D01*
X4874Y3359D01*
X4879Y3355D01*
X4884Y3353D01*
X4893Y3349D01*
X4898Y3349D01*
X4901Y3348D01*
X4903D01*
X4904D01*
X4914Y3349D01*
X4923Y3352D01*
X4932Y3356D01*
X4938Y3360D01*
X4945Y3366D01*
X4948Y3369D01*
X4952Y3373D01*
X4952Y3373D01*
X4959Y3383D01*
X4965Y3395D01*
X4968Y3407D01*
X4971Y3419D01*
X4972Y3430D01*
X4973Y3439D01*
Y3447D01*
X4972Y3464D01*
X4969Y3478D01*
X4965Y3491D01*
X4962Y3502D01*
X4957Y3510D01*
X4954Y3516D01*
X4951Y3520D01*
X4950Y3521D01*
X4940Y3531D01*
X4928Y3538D01*
X4916Y3545D01*
X4905Y3549D01*
X4893Y3553D01*
X4885Y3555D01*
X4881Y3556D01*
X4879D01*
X4877Y3557D01*
X4876D01*
X4886Y3656D01*
X4902Y3654D01*
D02*
G37*
G36*
X5001Y10302D02*
Y10192D01*
X4497Y10012D01*
Y10121D01*
X4870Y10244D01*
X4497Y10372D01*
Y10482D01*
X5001Y10302D01*
D02*
G37*
G36*
X4776Y9978D02*
X4796Y9976D01*
X4816Y9973D01*
X4833Y9969D01*
X4850Y9964D01*
X4865Y9959D01*
X4880Y9953D01*
X4892Y9947D01*
X4904Y9941D01*
X4914Y9935D01*
X4922Y9929D01*
X4929Y9925D01*
X4935Y9921D01*
X4938Y9918D01*
X4941Y9916D01*
X4941Y9915D01*
X4954Y9902D01*
X4964Y9889D01*
X4973Y9876D01*
X4981Y9862D01*
X4988Y9848D01*
X4993Y9834D01*
X4998Y9821D01*
X5001Y9808D01*
X5004Y9796D01*
X5006Y9785D01*
X5008Y9775D01*
X5009Y9767D01*
Y9760D01*
X5010Y9754D01*
Y9750D01*
X5009Y9735D01*
X5008Y9720D01*
X5006Y9707D01*
X5004Y9694D01*
X5001Y9683D01*
X4998Y9672D01*
X4994Y9662D01*
X4990Y9653D01*
X4986Y9644D01*
X4982Y9637D01*
X4979Y9631D01*
X4976Y9625D01*
X4974Y9621D01*
X4971Y9618D01*
X4971Y9617D01*
X4970Y9616D01*
X4962Y9606D01*
X4953Y9598D01*
X4934Y9581D01*
X4913Y9568D01*
X4893Y9558D01*
X4884Y9554D01*
X4875Y9550D01*
X4867Y9547D01*
X4860Y9545D01*
X4854Y9542D01*
X4850Y9541D01*
X4847Y9540D01*
X4846D01*
X4816Y9639D01*
X4836Y9644D01*
X4852Y9651D01*
X4866Y9658D01*
X4878Y9665D01*
X4886Y9671D01*
X4893Y9677D01*
X4896Y9680D01*
X4898Y9681D01*
X4906Y9693D01*
X4912Y9704D01*
X4917Y9716D01*
X4920Y9727D01*
X4922Y9737D01*
X4922Y9744D01*
X4923Y9747D01*
Y9751D01*
X4922Y9761D01*
X4922Y9770D01*
X4917Y9788D01*
X4911Y9803D01*
X4903Y9816D01*
X4895Y9826D01*
X4889Y9834D01*
X4885Y9839D01*
X4884Y9839D01*
X4883Y9840D01*
X4875Y9846D01*
X4865Y9851D01*
X4855Y9856D01*
X4845Y9859D01*
X4822Y9866D01*
X4799Y9869D01*
X4789Y9871D01*
X4779Y9872D01*
X4770Y9873D01*
X4762D01*
X4756Y9874D01*
X4750D01*
X4747D01*
X4746D01*
X4730Y9873D01*
X4715Y9872D01*
X4700Y9871D01*
X4688Y9869D01*
X4676Y9866D01*
X4665Y9863D01*
X4656Y9860D01*
X4647Y9856D01*
X4640Y9853D01*
X4634Y9850D01*
X4628Y9847D01*
X4624Y9845D01*
X4620Y9843D01*
X4617Y9841D01*
X4617Y9839D01*
X4616D01*
X4609Y9833D01*
X4602Y9826D01*
X4597Y9818D01*
X4592Y9811D01*
X4585Y9796D01*
X4581Y9781D01*
X4577Y9768D01*
X4577Y9763D01*
X4576Y9758D01*
X4575Y9754D01*
Y9749D01*
X4576Y9734D01*
X4579Y9721D01*
X4582Y9709D01*
X4587Y9699D01*
X4591Y9690D01*
X4594Y9685D01*
X4597Y9681D01*
X4598Y9680D01*
X4607Y9670D01*
X4617Y9662D01*
X4627Y9655D01*
X4637Y9651D01*
X4647Y9647D01*
X4653Y9644D01*
X4658Y9643D01*
X4659Y9642D01*
X4660D01*
X4636Y9541D01*
X4614Y9548D01*
X4596Y9557D01*
X4581Y9566D01*
X4567Y9575D01*
X4557Y9582D01*
X4550Y9588D01*
X4545Y9592D01*
X4544Y9593D01*
Y9594D01*
X4534Y9605D01*
X4525Y9617D01*
X4518Y9629D01*
X4511Y9641D01*
X4506Y9654D01*
X4502Y9667D01*
X4498Y9678D01*
X4495Y9690D01*
X4493Y9701D01*
X4491Y9711D01*
X4490Y9720D01*
X4489Y9728D01*
X4488Y9734D01*
Y9743D01*
X4489Y9763D01*
X4491Y9781D01*
X4495Y9799D01*
X4499Y9815D01*
X4505Y9830D01*
X4511Y9844D01*
X4517Y9857D01*
X4523Y9869D01*
X4530Y9879D01*
X4536Y9889D01*
X4542Y9896D01*
X4548Y9903D01*
X4552Y9908D01*
X4555Y9912D01*
X4557Y9914D01*
X4558Y9915D01*
X4572Y9926D01*
X4587Y9936D01*
X4602Y9945D01*
X4618Y9952D01*
X4634Y9959D01*
X4651Y9963D01*
X4667Y9968D01*
X4683Y9971D01*
X4697Y9974D01*
X4710Y9976D01*
X4723Y9977D01*
X4733Y9978D01*
X4742D01*
X4749Y9979D01*
X4753D01*
X4754D01*
X4776Y9978D01*
D02*
G37*
G36*
Y9470D02*
X4796Y9468D01*
X4816Y9465D01*
X4833Y9461D01*
X4850Y9455D01*
X4865Y9450D01*
X4880Y9445D01*
X4892Y9439D01*
X4904Y9432D01*
X4914Y9427D01*
X4922Y9421D01*
X4929Y9416D01*
X4935Y9412D01*
X4938Y9409D01*
X4941Y9407D01*
X4941Y9406D01*
X4954Y9394D01*
X4964Y9381D01*
X4973Y9367D01*
X4981Y9353D01*
X4988Y9340D01*
X4993Y9326D01*
X4998Y9313D01*
X5001Y9300D01*
X5004Y9287D01*
X5006Y9277D01*
X5008Y9267D01*
X5009Y9258D01*
Y9251D01*
X5010Y9246D01*
Y9241D01*
X5009Y9227D01*
X5008Y9212D01*
X5006Y9199D01*
X5004Y9186D01*
X5001Y9174D01*
X4998Y9164D01*
X4994Y9154D01*
X4990Y9144D01*
X4986Y9136D01*
X4982Y9128D01*
X4979Y9122D01*
X4976Y9117D01*
X4974Y9113D01*
X4971Y9110D01*
X4971Y9108D01*
X4970Y9108D01*
X4962Y9098D01*
X4953Y9089D01*
X4934Y9073D01*
X4913Y9060D01*
X4893Y9050D01*
X4884Y9045D01*
X4875Y9042D01*
X4867Y9038D01*
X4860Y9036D01*
X4854Y9034D01*
X4850Y9032D01*
X4847Y9032D01*
X4846D01*
X4816Y9131D01*
X4836Y9136D01*
X4852Y9143D01*
X4866Y9150D01*
X4878Y9157D01*
X4886Y9163D01*
X4893Y9168D01*
X4896Y9171D01*
X4898Y9173D01*
X4906Y9184D01*
X4912Y9196D01*
X4917Y9207D01*
X4920Y9219D01*
X4922Y9228D01*
X4922Y9236D01*
X4923Y9239D01*
Y9243D01*
X4922Y9253D01*
X4922Y9262D01*
X4917Y9280D01*
X4911Y9295D01*
X4903Y9308D01*
X4895Y9318D01*
X4889Y9326D01*
X4885Y9330D01*
X4884Y9331D01*
X4883Y9332D01*
X4875Y9338D01*
X4865Y9343D01*
X4855Y9347D01*
X4845Y9351D01*
X4822Y9357D01*
X4799Y9361D01*
X4789Y9363D01*
X4779Y9364D01*
X4770Y9365D01*
X4762D01*
X4756Y9366D01*
X4750D01*
X4747D01*
X4746D01*
X4730Y9365D01*
X4715Y9364D01*
X4700Y9363D01*
X4688Y9360D01*
X4676Y9358D01*
X4665Y9355D01*
X4656Y9352D01*
X4647Y9348D01*
X4640Y9345D01*
X4634Y9342D01*
X4628Y9339D01*
X4624Y9336D01*
X4620Y9334D01*
X4617Y9333D01*
X4617Y9331D01*
X4616D01*
X4609Y9324D01*
X4602Y9317D01*
X4597Y9310D01*
X4592Y9303D01*
X4585Y9287D01*
X4581Y9273D01*
X4577Y9260D01*
X4577Y9254D01*
X4576Y9250D01*
X4575Y9246D01*
Y9240D01*
X4576Y9226D01*
X4579Y9213D01*
X4582Y9200D01*
X4587Y9191D01*
X4591Y9182D01*
X4594Y9177D01*
X4597Y9173D01*
X4598Y9171D01*
X4607Y9161D01*
X4617Y9154D01*
X4627Y9147D01*
X4637Y9142D01*
X4647Y9138D01*
X4653Y9135D01*
X4658Y9134D01*
X4659Y9134D01*
X4660D01*
X4636Y9033D01*
X4614Y9040D01*
X4596Y9048D01*
X4581Y9058D01*
X4567Y9066D01*
X4557Y9074D01*
X4550Y9080D01*
X4545Y9084D01*
X4544Y9085D01*
Y9085D01*
X4534Y9097D01*
X4525Y9108D01*
X4518Y9121D01*
X4511Y9133D01*
X4506Y9145D01*
X4502Y9158D01*
X4498Y9170D01*
X4495Y9182D01*
X4493Y9193D01*
X4491Y9203D01*
X4490Y9212D01*
X4489Y9220D01*
X4488Y9226D01*
Y9235D01*
X4489Y9254D01*
X4491Y9273D01*
X4495Y9290D01*
X4499Y9306D01*
X4505Y9322D01*
X4511Y9336D01*
X4517Y9349D01*
X4523Y9360D01*
X4530Y9371D01*
X4536Y9380D01*
X4542Y9388D01*
X4548Y9395D01*
X4552Y9399D01*
X4555Y9403D01*
X4557Y9406D01*
X4558Y9406D01*
X4572Y9418D01*
X4587Y9428D01*
X4602Y9436D01*
X4618Y9444D01*
X4634Y9450D01*
X4651Y9455D01*
X4667Y9459D01*
X4683Y9462D01*
X4697Y9465D01*
X4710Y9468D01*
X4723Y9469D01*
X4733Y9470D01*
X4742D01*
X4749Y9471D01*
X4753D01*
X4754D01*
X4776Y9470D01*
D02*
G37*
G36*
X5001Y16011D02*
X5000Y15998D01*
Y15978D01*
X4999Y15968D01*
Y15955D01*
X4998Y15949D01*
Y15942D01*
X4998Y15939D01*
Y15936D01*
X4995Y15922D01*
X4992Y15909D01*
X4988Y15897D01*
X4984Y15887D01*
X4980Y15879D01*
X4977Y15872D01*
X4975Y15869D01*
X4974Y15868D01*
X4966Y15858D01*
X4957Y15849D01*
X4948Y15842D01*
X4940Y15836D01*
X4933Y15831D01*
X4927Y15827D01*
X4923Y15825D01*
X4922Y15824D01*
X4909Y15819D01*
X4898Y15815D01*
X4886Y15812D01*
X4876Y15810D01*
X4867Y15809D01*
X4861Y15808D01*
X4856D01*
X4855D01*
X4839Y15809D01*
X4824Y15812D01*
X4812Y15816D01*
X4800Y15820D01*
X4791Y15826D01*
X4784Y15829D01*
X4780Y15832D01*
X4779Y15833D01*
X4767Y15843D01*
X4757Y15855D01*
X4749Y15866D01*
X4743Y15878D01*
X4739Y15888D01*
X4735Y15896D01*
X4734Y15899D01*
X4733Y15902D01*
X4733Y15903D01*
Y15904D01*
X4726Y15892D01*
X4720Y15882D01*
X4713Y15873D01*
X4705Y15866D01*
X4699Y15859D01*
X4693Y15856D01*
X4690Y15852D01*
X4689Y15852D01*
X4677Y15846D01*
X4666Y15841D01*
X4655Y15837D01*
X4645Y15835D01*
X4637Y15833D01*
X4630Y15832D01*
X4625D01*
X4624D01*
X4611Y15833D01*
X4600Y15835D01*
X4591Y15838D01*
X4581Y15840D01*
X4574Y15843D01*
X4569Y15846D01*
X4566Y15848D01*
X4564Y15849D01*
X4555Y15855D01*
X4547Y15861D01*
X4540Y15868D01*
X4534Y15873D01*
X4528Y15879D01*
X4525Y15883D01*
X4523Y15886D01*
X4522Y15887D01*
X4517Y15896D01*
X4512Y15905D01*
X4508Y15914D01*
X4506Y15922D01*
X4504Y15929D01*
X4502Y15935D01*
X4501Y15938D01*
Y15940D01*
X4500Y15952D01*
X4498Y15966D01*
X4498Y15981D01*
X4497Y15995D01*
X4496Y16008D01*
Y16230D01*
X5001D01*
Y16011D01*
D02*
G37*
G36*
X4918Y15746D02*
X4934Y15743D01*
X4947Y15738D01*
X4958Y15732D01*
X4968Y15726D01*
X4975Y15721D01*
X4978Y15717D01*
X4980Y15716D01*
X4990Y15703D01*
X4998Y15688D01*
X5002Y15674D01*
X5006Y15659D01*
X5008Y15647D01*
X5009Y15640D01*
Y15636D01*
X5010Y15632D01*
Y15627D01*
X5009Y15615D01*
X5008Y15604D01*
X5006Y15594D01*
X5004Y15585D01*
X5002Y15578D01*
X5000Y15571D01*
X4999Y15568D01*
X4998Y15567D01*
X4993Y15556D01*
X4988Y15547D01*
X4981Y15538D01*
X4975Y15530D01*
X4970Y15523D01*
X4965Y15518D01*
X4962Y15515D01*
X4961Y15514D01*
X4965Y15513D01*
X4968Y15512D01*
X4971Y15511D01*
X4972D01*
X4973D01*
X4979Y15508D01*
X4985Y15507D01*
X4990Y15505D01*
X4994Y15503D01*
X4997Y15502D01*
X4999Y15501D01*
X5000Y15501D01*
X5001D01*
Y15405D01*
X4991Y15410D01*
X4982Y15414D01*
X4974Y15417D01*
X4967Y15419D01*
X4961Y15421D01*
X4956Y15422D01*
X4953Y15423D01*
X4952D01*
X4942Y15425D01*
X4932Y15425D01*
X4919Y15427D01*
X4908D01*
X4897Y15428D01*
X4888D01*
X4885D01*
X4883D01*
X4882D01*
X4881D01*
X4769Y15426D01*
X4757D01*
X4747Y15427D01*
X4737Y15428D01*
X4729Y15429D01*
X4720Y15429D01*
X4713Y15430D01*
X4707Y15432D01*
X4702Y15432D01*
X4693Y15435D01*
X4687Y15437D01*
X4683Y15439D01*
X4682Y15439D01*
X4673Y15445D01*
X4666Y15452D01*
X4659Y15459D01*
X4653Y15466D01*
X4649Y15473D01*
X4646Y15478D01*
X4644Y15482D01*
X4643Y15484D01*
X4640Y15490D01*
X4637Y15497D01*
X4634Y15512D01*
X4631Y15528D01*
X4629Y15544D01*
X4628Y15558D01*
Y15564D01*
X4627Y15570D01*
Y15594D01*
X4628Y15605D01*
X4630Y15617D01*
X4631Y15627D01*
X4634Y15637D01*
X4636Y15645D01*
X4638Y15654D01*
X4640Y15660D01*
X4643Y15667D01*
X4645Y15672D01*
X4647Y15677D01*
X4650Y15680D01*
X4651Y15683D01*
X4653Y15686D01*
X4653Y15687D01*
Y15687D01*
X4664Y15700D01*
X4677Y15710D01*
X4689Y15720D01*
X4702Y15727D01*
X4713Y15731D01*
X4723Y15735D01*
X4726Y15736D01*
X4729Y15737D01*
X4730Y15738D01*
X4731D01*
X4747Y15651D01*
X4739Y15648D01*
X4731Y15644D01*
X4725Y15640D01*
X4720Y15637D01*
X4716Y15634D01*
X4714Y15631D01*
X4713Y15629D01*
X4712Y15628D01*
X4708Y15622D01*
X4706Y15616D01*
X4703Y15602D01*
X4702Y15597D01*
X4701Y15592D01*
Y15588D01*
X4702Y15574D01*
X4703Y15563D01*
X4705Y15554D01*
X4707Y15547D01*
X4710Y15541D01*
X4711Y15538D01*
X4713Y15536D01*
X4713Y15535D01*
X4719Y15531D01*
X4725Y15528D01*
X4731Y15525D01*
X4738Y15523D01*
X4744Y15522D01*
X4749Y15521D01*
X4752D01*
X4753D01*
X4763D01*
X4765Y15527D01*
X4767Y15533D01*
X4771Y15548D01*
X4775Y15563D01*
X4779Y15578D01*
X4782Y15593D01*
X4783Y15599D01*
X4784Y15605D01*
X4785Y15610D01*
X4786Y15613D01*
X4786Y15615D01*
Y15616D01*
X4790Y15634D01*
X4794Y15649D01*
X4798Y15662D01*
X4802Y15673D01*
X4805Y15681D01*
X4807Y15687D01*
X4809Y15691D01*
X4809Y15693D01*
X4815Y15702D01*
X4821Y15710D01*
X4827Y15717D01*
X4833Y15723D01*
X4839Y15727D01*
X4843Y15730D01*
X4846Y15733D01*
X4847Y15733D01*
X4856Y15738D01*
X4865Y15742D01*
X4875Y15744D01*
X4883Y15746D01*
X4891Y15747D01*
X4896Y15748D01*
X4900D01*
X4902D01*
X4918Y15746D01*
D02*
G37*
G36*
X4712Y15326D02*
X4872D01*
X4882D01*
X4890D01*
X4905Y15326D01*
X4917D01*
X4926Y15325D01*
X4932Y15324D01*
X4937D01*
X4940Y15323D01*
X4941D01*
X4949Y15322D01*
X4957Y15320D01*
X4963Y15318D01*
X4969Y15316D01*
X4973Y15313D01*
X4977Y15312D01*
X4978Y15311D01*
X4979Y15310D01*
X4984Y15306D01*
X4988Y15301D01*
X4995Y15291D01*
X4998Y15286D01*
X5000Y15283D01*
X5001Y15280D01*
X5001Y15280D01*
X5004Y15272D01*
X5006Y15263D01*
X5008Y15256D01*
X5009Y15248D01*
Y15242D01*
X5010Y15237D01*
Y15233D01*
X5009Y15217D01*
X5008Y15203D01*
X5005Y15190D01*
X5003Y15178D01*
X5001Y15169D01*
X4998Y15162D01*
X4997Y15157D01*
X4996Y15156D01*
X4921Y15164D01*
X4924Y15174D01*
X4926Y15181D01*
X4928Y15188D01*
X4928Y15194D01*
X4929Y15198D01*
X4930Y15201D01*
Y15203D01*
X4929Y15210D01*
X4928Y15215D01*
X4926Y15218D01*
X4925Y15220D01*
X4922Y15223D01*
X4918Y15227D01*
X4915Y15228D01*
X4913D01*
X4912D01*
X4908Y15229D01*
X4902D01*
X4893D01*
X4884Y15230D01*
X4875D01*
X4868D01*
X4865D01*
X4862D01*
X4862D01*
X4861D01*
X4712D01*
Y15164D01*
X4635D01*
Y15230D01*
X4506D01*
X4563Y15326D01*
X4635D01*
Y15371D01*
X4712D01*
Y15326D01*
D02*
G37*
G36*
X4836Y15124D02*
X4849Y15124D01*
X4873Y15120D01*
X4885Y15117D01*
X4895Y15114D01*
X4905Y15111D01*
X4913Y15108D01*
X4921Y15104D01*
X4928Y15101D01*
X4934Y15098D01*
X4938Y15095D01*
X4942Y15093D01*
X4945Y15091D01*
X4947Y15090D01*
X4948D01*
X4958Y15081D01*
X4968Y15071D01*
X4977Y15060D01*
X4984Y15048D01*
X4990Y15037D01*
X4994Y15025D01*
X4999Y15013D01*
X5002Y15002D01*
X5004Y14991D01*
X5007Y14981D01*
X5008Y14972D01*
X5009Y14964D01*
Y14958D01*
X5010Y14952D01*
Y14949D01*
X5008Y14927D01*
X5005Y14908D01*
X5001Y14891D01*
X4996Y14876D01*
X4991Y14865D01*
X4988Y14859D01*
X4987Y14856D01*
X4985Y14853D01*
X4984Y14850D01*
X4982Y14849D01*
Y14849D01*
X4971Y14835D01*
X4958Y14823D01*
X4945Y14813D01*
X4932Y14804D01*
X4920Y14798D01*
X4915Y14795D01*
X4910Y14793D01*
X4907Y14792D01*
X4904Y14790D01*
X4902Y14790D01*
X4902D01*
X4885Y14886D01*
X4895Y14889D01*
X4903Y14892D01*
X4910Y14897D01*
X4915Y14901D01*
X4920Y14904D01*
X4923Y14907D01*
X4925Y14909D01*
X4925Y14909D01*
X4929Y14915D01*
X4932Y14922D01*
X4935Y14929D01*
X4936Y14934D01*
X4937Y14939D01*
X4938Y14944D01*
Y14948D01*
X4937Y14959D01*
X4934Y14970D01*
X4930Y14980D01*
X4925Y14988D01*
X4922Y14995D01*
X4918Y14999D01*
X4915Y15002D01*
X4914Y15003D01*
X4904Y15011D01*
X4893Y15016D01*
X4882Y15020D01*
X4871Y15023D01*
X4862Y15025D01*
X4853Y15025D01*
X4850Y15026D01*
X4848D01*
X4847D01*
X4846D01*
Y14784D01*
X4826D01*
X4807Y14786D01*
X4790Y14788D01*
X4774Y14790D01*
X4759Y14794D01*
X4746Y14798D01*
X4733Y14802D01*
X4723Y14806D01*
X4713Y14810D01*
X4705Y14815D01*
X4698Y14819D01*
X4692Y14822D01*
X4687Y14825D01*
X4684Y14827D01*
X4683Y14829D01*
X4682Y14829D01*
X4672Y14839D01*
X4664Y14849D01*
X4657Y14859D01*
X4650Y14869D01*
X4645Y14880D01*
X4640Y14891D01*
X4637Y14902D01*
X4634Y14912D01*
X4632Y14921D01*
X4630Y14930D01*
X4629Y14938D01*
X4628Y14945D01*
X4627Y14951D01*
Y14959D01*
X4628Y14972D01*
X4630Y14985D01*
X4632Y14996D01*
X4636Y15008D01*
X4640Y15018D01*
X4644Y15028D01*
X4649Y15037D01*
X4653Y15045D01*
X4658Y15053D01*
X4663Y15059D01*
X4667Y15065D01*
X4671Y15070D01*
X4675Y15074D01*
X4677Y15076D01*
X4679Y15078D01*
X4680Y15078D01*
X4690Y15087D01*
X4700Y15094D01*
X4712Y15100D01*
X4723Y15105D01*
X4736Y15110D01*
X4747Y15114D01*
X4770Y15119D01*
X4780Y15121D01*
X4790Y15123D01*
X4799Y15124D01*
X4806Y15124D01*
X4813Y15125D01*
X4818D01*
X4821D01*
X4822D01*
X4836Y15124D01*
D02*
G37*
G36*
X5001Y14613D02*
X4888D01*
X4872D01*
X4856D01*
X4842Y14612D01*
X4830Y14611D01*
X4819D01*
X4809Y14611D01*
X4800Y14610D01*
X4793Y14609D01*
X4786Y14608D01*
X4780Y14608D01*
X4776Y14607D01*
X4773D01*
X4769Y14606D01*
X4768Y14605D01*
X4766D01*
X4756Y14602D01*
X4748Y14598D01*
X4740Y14594D01*
X4735Y14591D01*
X4731Y14588D01*
X4728Y14585D01*
X4726Y14584D01*
X4726Y14583D01*
X4722Y14578D01*
X4719Y14571D01*
X4717Y14565D01*
X4716Y14560D01*
X4715Y14555D01*
X4714Y14551D01*
Y14548D01*
X4715Y14540D01*
X4716Y14532D01*
X4720Y14525D01*
X4722Y14517D01*
X4725Y14512D01*
X4728Y14506D01*
X4730Y14503D01*
X4730Y14502D01*
X4646Y14472D01*
X4640Y14484D01*
X4635Y14495D01*
X4632Y14507D01*
X4630Y14516D01*
X4628Y14525D01*
X4627Y14532D01*
Y14537D01*
X4628Y14545D01*
X4629Y14553D01*
X4631Y14560D01*
X4633Y14566D01*
X4635Y14571D01*
X4637Y14575D01*
X4638Y14578D01*
X4639Y14578D01*
X4644Y14585D01*
X4651Y14593D01*
X4659Y14600D01*
X4667Y14606D01*
X4675Y14611D01*
X4681Y14616D01*
X4686Y14619D01*
X4687Y14620D01*
X4635D01*
Y14710D01*
X5001D01*
Y14613D01*
D02*
G37*
G36*
Y14334D02*
X4635D01*
Y14431D01*
X5001D01*
Y14334D01*
D02*
G37*
G36*
X4585D02*
X4496D01*
Y14431D01*
X4585D01*
Y14334D01*
D02*
G37*
G36*
X4918Y14259D02*
X4934Y14255D01*
X4947Y14250D01*
X4958Y14244D01*
X4968Y14238D01*
X4975Y14234D01*
X4978Y14230D01*
X4980Y14228D01*
X4990Y14215D01*
X4998Y14200D01*
X5002Y14186D01*
X5006Y14171D01*
X5008Y14159D01*
X5009Y14153D01*
Y14148D01*
X5010Y14144D01*
Y14139D01*
X5009Y14128D01*
X5008Y14116D01*
X5006Y14106D01*
X5004Y14098D01*
X5002Y14090D01*
X5000Y14084D01*
X4999Y14081D01*
X4998Y14079D01*
X4993Y14068D01*
X4988Y14059D01*
X4981Y14050D01*
X4975Y14042D01*
X4970Y14035D01*
X4965Y14031D01*
X4962Y14027D01*
X4961Y14026D01*
X4965Y14025D01*
X4968Y14025D01*
X4971Y14023D01*
X4972D01*
X4973D01*
X4979Y14021D01*
X4985Y14019D01*
X4990Y14017D01*
X4994Y14015D01*
X4997Y14015D01*
X4999Y14014D01*
X5000Y14013D01*
X5001D01*
Y13918D01*
X4991Y13922D01*
X4982Y13926D01*
X4974Y13929D01*
X4967Y13932D01*
X4961Y13933D01*
X4956Y13935D01*
X4953Y13936D01*
X4952D01*
X4942Y13937D01*
X4932Y13938D01*
X4919Y13939D01*
X4908D01*
X4897Y13940D01*
X4888D01*
X4885D01*
X4883D01*
X4882D01*
X4881D01*
X4769Y13939D01*
X4757D01*
X4747Y13939D01*
X4737Y13940D01*
X4729Y13941D01*
X4720Y13942D01*
X4713Y13942D01*
X4707Y13944D01*
X4702Y13945D01*
X4693Y13948D01*
X4687Y13949D01*
X4683Y13951D01*
X4682Y13952D01*
X4673Y13957D01*
X4666Y13964D01*
X4659Y13972D01*
X4653Y13979D01*
X4649Y13985D01*
X4646Y13991D01*
X4644Y13995D01*
X4643Y13996D01*
X4640Y14002D01*
X4637Y14009D01*
X4634Y14025D01*
X4631Y14041D01*
X4629Y14056D01*
X4628Y14071D01*
Y14077D01*
X4627Y14082D01*
Y14106D01*
X4628Y14118D01*
X4630Y14129D01*
X4631Y14139D01*
X4634Y14149D01*
X4636Y14157D01*
X4638Y14166D01*
X4640Y14173D01*
X4643Y14179D01*
X4645Y14184D01*
X4647Y14189D01*
X4650Y14193D01*
X4651Y14196D01*
X4653Y14198D01*
X4653Y14199D01*
Y14200D01*
X4664Y14212D01*
X4677Y14223D01*
X4689Y14232D01*
X4702Y14239D01*
X4713Y14244D01*
X4723Y14247D01*
X4726Y14249D01*
X4729Y14250D01*
X4730Y14250D01*
X4731D01*
X4747Y14164D01*
X4739Y14161D01*
X4731Y14157D01*
X4725Y14153D01*
X4720Y14149D01*
X4716Y14146D01*
X4714Y14143D01*
X4713Y14141D01*
X4712Y14141D01*
X4708Y14134D01*
X4706Y14128D01*
X4703Y14114D01*
X4702Y14109D01*
X4701Y14104D01*
Y14100D01*
X4702Y14087D01*
X4703Y14075D01*
X4705Y14066D01*
X4707Y14059D01*
X4710Y14054D01*
X4711Y14051D01*
X4713Y14048D01*
X4713Y14048D01*
X4719Y14043D01*
X4725Y14040D01*
X4731Y14037D01*
X4738Y14035D01*
X4744Y14035D01*
X4749Y14034D01*
X4752D01*
X4753D01*
X4763D01*
X4765Y14039D01*
X4767Y14045D01*
X4771Y14060D01*
X4775Y14075D01*
X4779Y14091D01*
X4782Y14105D01*
X4783Y14111D01*
X4784Y14118D01*
X4785Y14122D01*
X4786Y14125D01*
X4786Y14128D01*
Y14128D01*
X4790Y14146D01*
X4794Y14161D01*
X4798Y14174D01*
X4802Y14185D01*
X4805Y14194D01*
X4807Y14200D01*
X4809Y14204D01*
X4809Y14205D01*
X4815Y14214D01*
X4821Y14223D01*
X4827Y14230D01*
X4833Y14235D01*
X4839Y14240D01*
X4843Y14243D01*
X4846Y14245D01*
X4847Y14246D01*
X4856Y14250D01*
X4865Y14254D01*
X4875Y14257D01*
X4883Y14259D01*
X4891Y14260D01*
X4896Y14260D01*
X4900D01*
X4902D01*
X4918Y14259D01*
D02*
G37*
G36*
X17270Y7000D02*
Y6992D01*
X17271Y6984D01*
X17272Y6977D01*
X17272Y6970D01*
X17273Y6965D01*
X17274Y6960D01*
X17275Y6955D01*
X17276Y6952D01*
X17278Y6945D01*
X17280Y6941D01*
X17281Y6939D01*
X17282Y6938D01*
X17286Y6934D01*
X17292Y6930D01*
X17297Y6927D01*
X17304Y6925D01*
X17309Y6924D01*
X17314Y6924D01*
X17318D01*
X17327Y6925D01*
X17334Y6927D01*
X17341Y6930D01*
X17346Y6934D01*
X17350Y6938D01*
X17353Y6941D01*
X17355Y6944D01*
X17355Y6944D01*
X17358Y6950D01*
X17360Y6957D01*
X17362Y6965D01*
X17363Y6973D01*
X17364Y6980D01*
Y6986D01*
X17365Y6988D01*
Y6990D01*
Y6990D01*
Y6991D01*
X17438Y6983D01*
X17438Y6972D01*
X17437Y6961D01*
X17435Y6951D01*
X17434Y6942D01*
X17431Y6934D01*
X17429Y6926D01*
X17426Y6919D01*
X17423Y6913D01*
X17420Y6907D01*
X17417Y6903D01*
X17415Y6898D01*
X17413Y6895D01*
X17411Y6893D01*
X17409Y6891D01*
X17409Y6890D01*
X17408Y6889D01*
X17402Y6884D01*
X17395Y6879D01*
X17388Y6875D01*
X17381Y6871D01*
X17366Y6865D01*
X17352Y6862D01*
X17346Y6860D01*
X17339Y6859D01*
X17334Y6859D01*
X17330Y6858D01*
X17325Y6858D01*
X17320D01*
X17303Y6858D01*
X17287Y6860D01*
X17274Y6864D01*
X17263Y6867D01*
X17258Y6869D01*
X17254Y6871D01*
X17251Y6873D01*
X17248Y6875D01*
X17245Y6876D01*
X17244Y6877D01*
X17243Y6877D01*
X17242D01*
X17232Y6886D01*
X17224Y6894D01*
X17216Y6904D01*
X17211Y6912D01*
X17207Y6920D01*
X17204Y6926D01*
X17203Y6928D01*
X17202Y6930D01*
X17201Y6931D01*
Y6931D01*
X17198Y6942D01*
X17196Y6953D01*
X17195Y6966D01*
X17194Y6978D01*
X17193Y6989D01*
X17193Y6993D01*
Y6997D01*
Y7000D01*
Y7003D01*
Y7004D01*
Y7005D01*
Y7249D01*
X17270D01*
Y7000D01*
D02*
G37*
G36*
X17012Y7250D02*
X17022Y7249D01*
X17031Y7248D01*
X17039Y7246D01*
X17047Y7244D01*
X17054Y7241D01*
X17060Y7239D01*
X17066Y7236D01*
X17071Y7234D01*
X17076Y7231D01*
X17079Y7228D01*
X17083Y7227D01*
X17085Y7224D01*
X17087Y7223D01*
X17087Y7223D01*
X17088Y7222D01*
X17093Y7217D01*
X17098Y7211D01*
X17102Y7205D01*
X17105Y7199D01*
X17111Y7187D01*
X17114Y7176D01*
X17116Y7166D01*
X17117Y7162D01*
X17117Y7158D01*
X17118Y7155D01*
Y7152D01*
Y7151D01*
Y7151D01*
X17117Y7141D01*
X17116Y7133D01*
X17114Y7125D01*
X17111Y7118D01*
X17109Y7113D01*
X17107Y7108D01*
X17105Y7106D01*
X17105Y7104D01*
X17100Y7097D01*
X17093Y7090D01*
X17086Y7085D01*
X17080Y7080D01*
X17073Y7076D01*
X17069Y7074D01*
X17065Y7072D01*
X17065Y7072D01*
X17064D01*
X17076Y7066D01*
X17086Y7059D01*
X17094Y7053D01*
X17101Y7046D01*
X17106Y7041D01*
X17110Y7035D01*
X17112Y7032D01*
X17112Y7032D01*
Y7031D01*
X17118Y7021D01*
X17121Y7011D01*
X17124Y7001D01*
X17126Y6993D01*
X17127Y6985D01*
X17128Y6979D01*
Y6977D01*
Y6975D01*
Y6975D01*
Y6974D01*
X17127Y6963D01*
X17126Y6954D01*
X17124Y6945D01*
X17121Y6936D01*
X17118Y6928D01*
X17115Y6921D01*
X17111Y6914D01*
X17107Y6908D01*
X17103Y6903D01*
X17100Y6898D01*
X17096Y6894D01*
X17093Y6891D01*
X17090Y6889D01*
X17089Y6887D01*
X17087Y6886D01*
X17087Y6885D01*
X17080Y6880D01*
X17073Y6876D01*
X17059Y6869D01*
X17044Y6865D01*
X17030Y6861D01*
X17024Y6860D01*
X17018Y6859D01*
X17013Y6858D01*
X17008D01*
X17005Y6858D01*
X17000D01*
X16989Y6858D01*
X16980Y6859D01*
X16970Y6860D01*
X16962Y6863D01*
X16954Y6865D01*
X16946Y6868D01*
X16939Y6871D01*
X16933Y6874D01*
X16928Y6877D01*
X16923Y6880D01*
X16919Y6883D01*
X16916Y6885D01*
X16913Y6887D01*
X16911Y6889D01*
X16910Y6890D01*
X16910Y6890D01*
X16904Y6897D01*
X16898Y6904D01*
X16894Y6911D01*
X16890Y6918D01*
X16886Y6925D01*
X16883Y6932D01*
X16879Y6946D01*
X16878Y6952D01*
X16877Y6958D01*
X16876Y6963D01*
X16876Y6968D01*
X16875Y6972D01*
Y6975D01*
Y6976D01*
Y6977D01*
X16876Y6989D01*
X16877Y7000D01*
X16880Y7010D01*
X16883Y7018D01*
X16887Y7025D01*
X16889Y7030D01*
X16891Y7033D01*
X16892Y7034D01*
X16899Y7043D01*
X16907Y7051D01*
X16915Y7057D01*
X16922Y7062D01*
X16929Y7066D01*
X16935Y7069D01*
X16938Y7070D01*
X16939Y7071D01*
X16940Y7072D01*
X16941D01*
X16932Y7076D01*
X16924Y7081D01*
X16917Y7086D01*
X16911Y7092D01*
X16907Y7096D01*
X16904Y7100D01*
X16902Y7102D01*
X16901Y7103D01*
X16897Y7111D01*
X16893Y7120D01*
X16891Y7127D01*
X16889Y7135D01*
X16888Y7141D01*
X16887Y7146D01*
Y7149D01*
Y7151D01*
X16888Y7159D01*
X16888Y7166D01*
X16892Y7180D01*
X16897Y7192D01*
X16902Y7203D01*
X16908Y7211D01*
X16913Y7217D01*
X16915Y7219D01*
X16917Y7221D01*
X16917Y7221D01*
X16918Y7222D01*
X16924Y7227D01*
X16930Y7231D01*
X16944Y7238D01*
X16958Y7243D01*
X16972Y7247D01*
X16978Y7248D01*
X16984Y7249D01*
X16989Y7250D01*
X16994D01*
X16997Y7250D01*
X17003D01*
X17012Y7250D01*
D02*
G37*
G36*
X12125Y6647D02*
X11959D01*
X11977Y6622D01*
X11993Y6596D01*
X12007Y6571D01*
X12014Y6559D01*
X12019Y6548D01*
X12024Y6538D01*
X12029Y6528D01*
X12032Y6519D01*
X12035Y6512D01*
X12038Y6507D01*
X12040Y6502D01*
X12041Y6500D01*
X12041Y6498D01*
X12046Y6483D01*
X12052Y6468D01*
X12056Y6453D01*
X12059Y6438D01*
X12062Y6425D01*
X12065Y6411D01*
X12067Y6398D01*
X12069Y6387D01*
X12070Y6376D01*
X12072Y6366D01*
X12073Y6358D01*
X12073Y6350D01*
Y6345D01*
X12074Y6340D01*
Y6338D01*
Y6337D01*
X12003D01*
X12003Y6356D01*
X12001Y6376D01*
X11998Y6395D01*
X11997Y6404D01*
X11995Y6413D01*
X11994Y6421D01*
X11992Y6429D01*
X11991Y6435D01*
X11989Y6441D01*
X11988Y6445D01*
X11987Y6449D01*
X11987Y6451D01*
Y6452D01*
X11980Y6476D01*
X11972Y6498D01*
X11968Y6509D01*
X11964Y6519D01*
X11960Y6528D01*
X11956Y6537D01*
X11952Y6545D01*
X11949Y6552D01*
X11946Y6559D01*
X11943Y6564D01*
X11941Y6568D01*
X11939Y6572D01*
X11938Y6573D01*
X11938Y6574D01*
X11932Y6584D01*
X11925Y6594D01*
X11919Y6603D01*
X11914Y6612D01*
X11908Y6619D01*
X11903Y6627D01*
X11898Y6634D01*
X11894Y6639D01*
X11890Y6645D01*
X11886Y6649D01*
X11882Y6653D01*
X11879Y6656D01*
X11877Y6659D01*
X11875Y6661D01*
X11874Y6662D01*
X11874Y6662D01*
Y6715D01*
X12125D01*
Y6647D01*
D02*
G37*
G36*
X12269Y6472D02*
Y6464D01*
X12270Y6456D01*
X12270Y6449D01*
X12271Y6443D01*
X12272Y6437D01*
X12273Y6432D01*
X12274Y6428D01*
X12275Y6424D01*
X12277Y6418D01*
X12279Y6414D01*
X12280Y6411D01*
X12280Y6411D01*
X12285Y6406D01*
X12290Y6402D01*
X12296Y6400D01*
X12303Y6398D01*
X12308Y6397D01*
X12313Y6396D01*
X12317D01*
X12325Y6397D01*
X12333Y6400D01*
X12339Y6402D01*
X12345Y6407D01*
X12349Y6410D01*
X12352Y6414D01*
X12354Y6416D01*
X12354Y6416D01*
X12357Y6422D01*
X12359Y6429D01*
X12361Y6437D01*
X12362Y6445D01*
X12363Y6452D01*
Y6458D01*
X12363Y6460D01*
Y6462D01*
Y6463D01*
Y6463D01*
X12437Y6455D01*
X12437Y6444D01*
X12436Y6433D01*
X12434Y6424D01*
X12433Y6414D01*
X12430Y6406D01*
X12428Y6398D01*
X12425Y6391D01*
X12422Y6385D01*
X12419Y6380D01*
X12416Y6375D01*
X12414Y6371D01*
X12411Y6367D01*
X12410Y6365D01*
X12408Y6363D01*
X12407Y6362D01*
X12407Y6362D01*
X12401Y6356D01*
X12394Y6351D01*
X12387Y6347D01*
X12380Y6343D01*
X12365Y6338D01*
X12351Y6334D01*
X12345Y6333D01*
X12338Y6332D01*
X12333Y6331D01*
X12328Y6330D01*
X12324Y6330D01*
X12319D01*
X12301Y6330D01*
X12286Y6333D01*
X12273Y6336D01*
X12262Y6340D01*
X12257Y6342D01*
X12253Y6343D01*
X12249Y6345D01*
X12246Y6347D01*
X12244Y6348D01*
X12242Y6349D01*
X12242Y6350D01*
X12241D01*
X12231Y6358D01*
X12222Y6367D01*
X12215Y6376D01*
X12210Y6384D01*
X12206Y6392D01*
X12203Y6398D01*
X12201Y6401D01*
X12201Y6402D01*
X12200Y6403D01*
Y6404D01*
X12197Y6414D01*
X12195Y6426D01*
X12194Y6438D01*
X12193Y6450D01*
X12192Y6461D01*
X12191Y6466D01*
Y6470D01*
Y6473D01*
Y6475D01*
Y6477D01*
Y6477D01*
Y6721D01*
X12269D01*
Y6472D01*
D02*
G37*
G36*
X-162Y7039D02*
X-151Y7038D01*
X-141Y7036D01*
X-131Y7033D01*
X-122Y7029D01*
X-114Y7025D01*
X-107Y7021D01*
X-100Y7017D01*
X-93Y7013D01*
X-88Y7008D01*
X-83Y7004D01*
X-79Y7001D01*
X-76Y6997D01*
X-74Y6995D01*
X-73Y6994D01*
X-72Y6993D01*
X-65Y6984D01*
X-59Y6973D01*
X-54Y6962D01*
X-50Y6950D01*
X-46Y6937D01*
X-43Y6924D01*
X-38Y6900D01*
X-37Y6887D01*
X-36Y6877D01*
X-35Y6866D01*
X-34Y6858D01*
X-33Y6851D01*
Y6845D01*
Y6842D01*
Y6841D01*
Y6841D01*
X-34Y6822D01*
X-35Y6805D01*
X-37Y6789D01*
X-39Y6774D01*
X-42Y6760D01*
X-45Y6749D01*
X-49Y6738D01*
X-52Y6728D01*
X-55Y6719D01*
X-59Y6712D01*
X-62Y6706D01*
X-64Y6701D01*
X-67Y6697D01*
X-69Y6695D01*
X-70Y6693D01*
X-70Y6693D01*
X-77Y6684D01*
X-85Y6678D01*
X-93Y6672D01*
X-101Y6667D01*
X-109Y6662D01*
X-117Y6659D01*
X-125Y6656D01*
X-132Y6653D01*
X-139Y6651D01*
X-146Y6650D01*
X-152Y6649D01*
X-156Y6648D01*
X-160D01*
X-164Y6648D01*
X-166D01*
X-176Y6648D01*
X-186Y6649D01*
X-194Y6651D01*
X-203Y6653D01*
X-211Y6656D01*
X-218Y6659D01*
X-225Y6662D01*
X-231Y6665D01*
X-236Y6669D01*
X-241Y6672D01*
X-245Y6674D01*
X-248Y6677D01*
X-251Y6679D01*
X-253Y6681D01*
X-254Y6682D01*
X-255Y6683D01*
X-261Y6690D01*
X-266Y6697D01*
X-271Y6705D01*
X-275Y6712D01*
X-279Y6721D01*
X-281Y6728D01*
X-286Y6743D01*
X-287Y6751D01*
X-288Y6757D01*
X-289Y6763D01*
X-289Y6767D01*
X-290Y6772D01*
Y6775D01*
Y6777D01*
Y6777D01*
X-289Y6787D01*
X-289Y6797D01*
X-287Y6807D01*
X-284Y6815D01*
X-282Y6823D01*
X-279Y6831D01*
X-276Y6838D01*
X-273Y6844D01*
X-270Y6849D01*
X-267Y6854D01*
X-264Y6858D01*
X-262Y6862D01*
X-259Y6865D01*
X-258Y6866D01*
X-257Y6868D01*
X-256Y6868D01*
X-250Y6875D01*
X-243Y6880D01*
X-237Y6884D01*
X-230Y6889D01*
X-224Y6892D01*
X-217Y6895D01*
X-205Y6899D01*
X-194Y6902D01*
X-190Y6903D01*
X-186Y6903D01*
X-183Y6904D01*
X-178D01*
X-170Y6903D01*
X-163Y6903D01*
X-150Y6899D01*
X-138Y6893D01*
X-128Y6887D01*
X-121Y6882D01*
X-114Y6876D01*
X-112Y6874D01*
X-111Y6872D01*
X-110Y6872D01*
X-110Y6871D01*
X-111Y6883D01*
X-112Y6894D01*
X-113Y6904D01*
X-114Y6913D01*
X-116Y6921D01*
X-118Y6928D01*
X-119Y6934D01*
X-121Y6939D01*
X-122Y6944D01*
X-124Y6948D01*
X-126Y6951D01*
X-127Y6954D01*
X-128Y6956D01*
X-129Y6957D01*
X-129Y6958D01*
X-136Y6965D01*
X-142Y6970D01*
X-149Y6974D01*
X-156Y6977D01*
X-161Y6978D01*
X-165Y6979D01*
X-168Y6979D01*
X-169D01*
X-176Y6979D01*
X-181Y6977D01*
X-186Y6976D01*
X-190Y6974D01*
X-193Y6972D01*
X-195Y6970D01*
X-197Y6969D01*
X-197Y6969D01*
X-201Y6965D01*
X-204Y6959D01*
X-207Y6954D01*
X-208Y6949D01*
X-210Y6944D01*
X-211Y6940D01*
X-211Y6938D01*
Y6937D01*
X-283Y6944D01*
X-279Y6961D01*
X-273Y6975D01*
X-267Y6987D01*
X-261Y6997D01*
X-255Y7006D01*
X-250Y7011D01*
X-247Y7014D01*
X-246Y7016D01*
X-246D01*
X-235Y7024D01*
X-222Y7030D01*
X-210Y7034D01*
X-199Y7037D01*
X-188Y7039D01*
X-184Y7039D01*
X-181D01*
X-177Y7040D01*
X-173D01*
X-162Y7039D01*
D02*
G37*
G36*
X110Y6790D02*
Y6782D01*
X111Y6774D01*
X112Y6767D01*
X112Y6760D01*
X113Y6755D01*
X114Y6750D01*
X115Y6745D01*
X116Y6742D01*
X118Y6735D01*
X120Y6731D01*
X121Y6729D01*
X122Y6728D01*
X126Y6724D01*
X132Y6720D01*
X137Y6717D01*
X144Y6715D01*
X149Y6714D01*
X154Y6714D01*
X158D01*
X167Y6715D01*
X174Y6717D01*
X181Y6720D01*
X186Y6724D01*
X190Y6728D01*
X193Y6731D01*
X195Y6734D01*
X195Y6734D01*
X198Y6740D01*
X200Y6747D01*
X202Y6755D01*
X203Y6763D01*
X204Y6770D01*
Y6776D01*
X205Y6778D01*
Y6780D01*
Y6780D01*
Y6781D01*
X278Y6773D01*
X278Y6762D01*
X277Y6751D01*
X275Y6741D01*
X274Y6732D01*
X271Y6724D01*
X269Y6716D01*
X266Y6709D01*
X263Y6703D01*
X260Y6697D01*
X257Y6693D01*
X255Y6689D01*
X253Y6685D01*
X251Y6683D01*
X249Y6681D01*
X249Y6680D01*
X248Y6679D01*
X242Y6674D01*
X235Y6669D01*
X228Y6665D01*
X221Y6661D01*
X206Y6655D01*
X192Y6652D01*
X186Y6650D01*
X179Y6649D01*
X174Y6649D01*
X170Y6648D01*
X165Y6648D01*
X160D01*
X143Y6648D01*
X127Y6650D01*
X114Y6654D01*
X103Y6657D01*
X98Y6659D01*
X94Y6661D01*
X91Y6663D01*
X88Y6665D01*
X85Y6666D01*
X84Y6667D01*
X83Y6667D01*
X82D01*
X72Y6676D01*
X64Y6684D01*
X56Y6694D01*
X51Y6702D01*
X47Y6710D01*
X44Y6716D01*
X43Y6718D01*
X42Y6720D01*
X41Y6721D01*
Y6721D01*
X38Y6732D01*
X36Y6743D01*
X35Y6756D01*
X34Y6768D01*
X33Y6779D01*
X33Y6783D01*
Y6787D01*
Y6790D01*
Y6793D01*
Y6794D01*
Y6795D01*
Y7039D01*
X110D01*
Y6790D01*
D02*
G37*
G36*
X-6773Y6673D02*
X-6832Y6665D01*
X-6837Y6669D01*
X-6842Y6674D01*
X-6852Y6681D01*
X-6862Y6686D01*
X-6871Y6689D01*
X-6878Y6692D01*
X-6885Y6692D01*
X-6887Y6693D01*
X-6890D01*
X-6899Y6692D01*
X-6907Y6690D01*
X-6914Y6687D01*
X-6920Y6684D01*
X-6924Y6681D01*
X-6928Y6678D01*
X-6930Y6675D01*
X-6931Y6675D01*
X-6936Y6668D01*
X-6940Y6659D01*
X-6943Y6650D01*
X-6945Y6641D01*
X-6947Y6634D01*
X-6947Y6627D01*
Y6625D01*
Y6623D01*
Y6622D01*
Y6622D01*
X-6947Y6609D01*
X-6945Y6597D01*
X-6942Y6588D01*
X-6939Y6579D01*
X-6936Y6574D01*
X-6933Y6569D01*
X-6931Y6567D01*
X-6931Y6565D01*
X-6924Y6559D01*
X-6918Y6555D01*
X-6911Y6551D01*
X-6905Y6549D01*
X-6900Y6548D01*
X-6896Y6547D01*
X-6893Y6547D01*
X-6892D01*
X-6885Y6547D01*
X-6878Y6549D01*
X-6872Y6551D01*
X-6866Y6554D01*
X-6862Y6556D01*
X-6859Y6558D01*
X-6856Y6560D01*
X-6856Y6561D01*
X-6851Y6567D01*
X-6847Y6573D01*
X-6844Y6580D01*
X-6841Y6586D01*
X-6840Y6592D01*
X-6838Y6596D01*
X-6838Y6599D01*
Y6600D01*
X-6765Y6593D01*
X-6766Y6584D01*
X-6768Y6576D01*
X-6773Y6560D01*
X-6780Y6547D01*
X-6787Y6536D01*
X-6790Y6531D01*
X-6793Y6527D01*
X-6796Y6524D01*
X-6799Y6521D01*
X-6801Y6519D01*
X-6803Y6517D01*
X-6804Y6516D01*
X-6804Y6516D01*
X-6811Y6511D01*
X-6818Y6506D01*
X-6832Y6499D01*
X-6847Y6495D01*
X-6860Y6491D01*
X-6866Y6490D01*
X-6872Y6489D01*
X-6878Y6488D01*
X-6882D01*
X-6886Y6488D01*
X-6891D01*
X-6903Y6488D01*
X-6914Y6490D01*
X-6926Y6492D01*
X-6935Y6495D01*
X-6945Y6499D01*
X-6953Y6503D01*
X-6961Y6508D01*
X-6968Y6513D01*
X-6974Y6517D01*
X-6980Y6522D01*
X-6985Y6526D01*
X-6988Y6530D01*
X-6991Y6533D01*
X-6993Y6536D01*
X-6995Y6537D01*
X-6995Y6538D01*
X-7000Y6545D01*
X-7004Y6552D01*
X-7011Y6567D01*
X-7016Y6581D01*
X-7019Y6595D01*
X-7020Y6600D01*
X-7021Y6606D01*
X-7022Y6610D01*
Y6614D01*
X-7023Y6618D01*
Y6620D01*
Y6622D01*
Y6623D01*
X-7022Y6633D01*
X-7021Y6643D01*
X-7020Y6653D01*
X-7017Y6661D01*
X-7014Y6669D01*
X-7012Y6677D01*
X-7009Y6684D01*
X-7006Y6691D01*
X-7002Y6696D01*
X-6999Y6702D01*
X-6996Y6706D01*
X-6993Y6709D01*
X-6991Y6712D01*
X-6990Y6714D01*
X-6989Y6715D01*
X-6988Y6716D01*
X-6982Y6722D01*
X-6975Y6727D01*
X-6968Y6732D01*
X-6961Y6736D01*
X-6954Y6740D01*
X-6947Y6743D01*
X-6934Y6747D01*
X-6928Y6748D01*
X-6923Y6750D01*
X-6917Y6750D01*
X-6913Y6751D01*
X-6910Y6751D01*
X-6905D01*
X-6896Y6751D01*
X-6886Y6750D01*
X-6878Y6747D01*
X-6871Y6746D01*
X-6864Y6743D01*
X-6859Y6741D01*
X-6856Y6740D01*
X-6855Y6739D01*
X-6866Y6804D01*
X-7006D01*
Y6873D01*
X-6811D01*
X-6773Y6673D01*
D02*
G37*
G36*
X-6620Y6630D02*
Y6622D01*
X-6619Y6614D01*
X-6618Y6607D01*
X-6618Y6600D01*
X-6617Y6595D01*
X-6616Y6590D01*
X-6615Y6585D01*
X-6614Y6582D01*
X-6612Y6575D01*
X-6610Y6571D01*
X-6609Y6569D01*
X-6608Y6568D01*
X-6604Y6564D01*
X-6598Y6560D01*
X-6593Y6557D01*
X-6586Y6555D01*
X-6581Y6554D01*
X-6576Y6554D01*
X-6572D01*
X-6563Y6555D01*
X-6556Y6557D01*
X-6549Y6560D01*
X-6544Y6564D01*
X-6540Y6568D01*
X-6537Y6571D01*
X-6535Y6574D01*
X-6535Y6574D01*
X-6532Y6580D01*
X-6530Y6587D01*
X-6528Y6595D01*
X-6527Y6603D01*
X-6526Y6610D01*
Y6616D01*
X-6525Y6618D01*
Y6620D01*
Y6620D01*
Y6621D01*
X-6452Y6613D01*
X-6452Y6602D01*
X-6453Y6591D01*
X-6455Y6581D01*
X-6456Y6572D01*
X-6459Y6564D01*
X-6461Y6556D01*
X-6464Y6549D01*
X-6467Y6543D01*
X-6470Y6537D01*
X-6473Y6533D01*
X-6475Y6528D01*
X-6477Y6525D01*
X-6479Y6523D01*
X-6481Y6521D01*
X-6481Y6520D01*
X-6482Y6519D01*
X-6488Y6514D01*
X-6495Y6509D01*
X-6502Y6505D01*
X-6509Y6501D01*
X-6524Y6495D01*
X-6538Y6492D01*
X-6544Y6490D01*
X-6551Y6489D01*
X-6556Y6489D01*
X-6560Y6488D01*
X-6565Y6488D01*
X-6570D01*
X-6587Y6488D01*
X-6603Y6490D01*
X-6616Y6494D01*
X-6627Y6497D01*
X-6632Y6499D01*
X-6636Y6501D01*
X-6639Y6503D01*
X-6642Y6505D01*
X-6645Y6506D01*
X-6646Y6507D01*
X-6647Y6507D01*
X-6648D01*
X-6658Y6516D01*
X-6666Y6524D01*
X-6674Y6534D01*
X-6679Y6542D01*
X-6683Y6550D01*
X-6686Y6556D01*
X-6687Y6558D01*
X-6688Y6560D01*
X-6689Y6561D01*
Y6561D01*
X-6691Y6572D01*
X-6694Y6583D01*
X-6695Y6596D01*
X-6696Y6608D01*
X-6697Y6619D01*
X-6697Y6623D01*
Y6627D01*
Y6630D01*
Y6633D01*
Y6634D01*
Y6635D01*
Y6879D01*
X-6620D01*
Y6630D01*
D02*
G37*
G36*
X-6761Y17206D02*
Y17142D01*
X-6918D01*
Y17065D01*
X-6989D01*
Y17142D01*
X-7037D01*
Y17206D01*
X-6989D01*
Y17450D01*
X-6927D01*
X-6761Y17206D01*
D02*
G37*
G36*
X-6630Y17200D02*
Y17192D01*
X-6629Y17184D01*
X-6628Y17177D01*
X-6628Y17170D01*
X-6627Y17165D01*
X-6626Y17160D01*
X-6625Y17155D01*
X-6624Y17152D01*
X-6622Y17145D01*
X-6620Y17141D01*
X-6619Y17139D01*
X-6618Y17138D01*
X-6614Y17134D01*
X-6608Y17130D01*
X-6603Y17127D01*
X-6596Y17125D01*
X-6591Y17124D01*
X-6586Y17124D01*
X-6582D01*
X-6573Y17125D01*
X-6566Y17127D01*
X-6559Y17130D01*
X-6554Y17134D01*
X-6550Y17138D01*
X-6547Y17141D01*
X-6545Y17144D01*
X-6545Y17144D01*
X-6542Y17150D01*
X-6540Y17157D01*
X-6538Y17165D01*
X-6537Y17173D01*
X-6536Y17180D01*
Y17186D01*
X-6535Y17188D01*
Y17190D01*
Y17190D01*
Y17191D01*
X-6462Y17183D01*
X-6462Y17172D01*
X-6463Y17161D01*
X-6465Y17151D01*
X-6466Y17142D01*
X-6469Y17134D01*
X-6471Y17126D01*
X-6474Y17119D01*
X-6477Y17113D01*
X-6480Y17107D01*
X-6483Y17103D01*
X-6485Y17098D01*
X-6487Y17095D01*
X-6489Y17093D01*
X-6491Y17091D01*
X-6491Y17090D01*
X-6492Y17089D01*
X-6498Y17084D01*
X-6505Y17079D01*
X-6512Y17075D01*
X-6519Y17071D01*
X-6534Y17065D01*
X-6548Y17062D01*
X-6554Y17060D01*
X-6561Y17059D01*
X-6566Y17059D01*
X-6570Y17058D01*
X-6575Y17058D01*
X-6580D01*
X-6597Y17058D01*
X-6613Y17060D01*
X-6626Y17064D01*
X-6637Y17067D01*
X-6642Y17069D01*
X-6646Y17071D01*
X-6649Y17073D01*
X-6652Y17075D01*
X-6655Y17076D01*
X-6656Y17077D01*
X-6657Y17077D01*
X-6658D01*
X-6668Y17086D01*
X-6676Y17094D01*
X-6684Y17104D01*
X-6689Y17112D01*
X-6693Y17120D01*
X-6696Y17126D01*
X-6697Y17128D01*
X-6698Y17130D01*
X-6699Y17131D01*
Y17131D01*
X-6701Y17142D01*
X-6704Y17153D01*
X-6705Y17166D01*
X-6706Y17178D01*
X-6707Y17189D01*
X-6707Y17193D01*
Y17197D01*
Y17200D01*
Y17203D01*
Y17204D01*
Y17205D01*
Y17449D01*
X-6630D01*
Y17200D01*
D02*
G37*
G36*
X-887Y17459D02*
X-876Y17458D01*
X-866Y17456D01*
X-858Y17454D01*
X-851Y17452D01*
X-845Y17450D01*
X-842Y17448D01*
X-841Y17448D01*
X-841D01*
X-832Y17443D01*
X-824Y17438D01*
X-817Y17433D01*
X-812Y17427D01*
X-807Y17422D01*
X-804Y17419D01*
X-802Y17416D01*
X-801Y17415D01*
X-796Y17407D01*
X-792Y17397D01*
X-788Y17388D01*
X-785Y17379D01*
X-783Y17371D01*
X-781Y17365D01*
X-781Y17362D01*
Y17361D01*
X-780Y17359D01*
Y17359D01*
X-848Y17348D01*
X-849Y17356D01*
X-851Y17364D01*
X-854Y17371D01*
X-857Y17376D01*
X-859Y17380D01*
X-861Y17383D01*
X-863Y17385D01*
X-864Y17386D01*
X-869Y17390D01*
X-875Y17393D01*
X-880Y17396D01*
X-885Y17397D01*
X-890Y17399D01*
X-893Y17399D01*
X-896D01*
X-903Y17399D01*
X-910Y17397D01*
X-915Y17396D01*
X-920Y17393D01*
X-923Y17391D01*
X-926Y17389D01*
X-927Y17388D01*
X-928Y17388D01*
X-932Y17383D01*
X-935Y17378D01*
X-937Y17372D01*
X-938Y17368D01*
X-939Y17364D01*
X-940Y17360D01*
Y17357D01*
Y17356D01*
X-939Y17348D01*
X-937Y17341D01*
X-934Y17335D01*
X-931Y17330D01*
X-928Y17326D01*
X-926Y17322D01*
X-924Y17320D01*
X-923Y17320D01*
X-917Y17316D01*
X-909Y17312D01*
X-902Y17310D01*
X-895Y17309D01*
X-888Y17308D01*
X-882Y17307D01*
X-878D01*
X-869Y17248D01*
X-876Y17249D01*
X-883Y17251D01*
X-889Y17252D01*
X-893Y17253D01*
X-897Y17254D01*
X-903D01*
X-910Y17253D01*
X-917Y17251D01*
X-924Y17248D01*
X-929Y17245D01*
X-934Y17242D01*
X-937Y17240D01*
X-939Y17238D01*
X-940Y17237D01*
X-945Y17231D01*
X-948Y17223D01*
X-951Y17216D01*
X-953Y17209D01*
X-954Y17203D01*
X-955Y17197D01*
Y17194D01*
Y17193D01*
Y17193D01*
X-954Y17182D01*
X-952Y17173D01*
X-950Y17165D01*
X-947Y17158D01*
X-944Y17152D01*
X-941Y17149D01*
X-940Y17146D01*
X-939Y17145D01*
X-933Y17139D01*
X-926Y17135D01*
X-920Y17132D01*
X-914Y17131D01*
X-909Y17130D01*
X-905Y17128D01*
X-900D01*
X-893Y17129D01*
X-886Y17131D01*
X-880Y17133D01*
X-875Y17135D01*
X-870Y17138D01*
X-867Y17140D01*
X-865Y17142D01*
X-864Y17142D01*
X-859Y17148D01*
X-855Y17155D01*
X-852Y17162D01*
X-850Y17169D01*
X-848Y17175D01*
X-847Y17180D01*
X-846Y17183D01*
Y17184D01*
Y17185D01*
X-775Y17176D01*
X-776Y17167D01*
X-778Y17158D01*
X-783Y17143D01*
X-789Y17130D01*
X-796Y17118D01*
X-800Y17114D01*
X-803Y17110D01*
X-806Y17106D01*
X-809Y17103D01*
X-811Y17100D01*
X-813Y17099D01*
X-813Y17098D01*
X-814Y17097D01*
X-820Y17092D01*
X-827Y17087D01*
X-835Y17083D01*
X-842Y17080D01*
X-857Y17075D01*
X-871Y17071D01*
X-876Y17070D01*
X-882Y17069D01*
X-888Y17069D01*
X-892Y17068D01*
X-896Y17068D01*
X-901D01*
X-911Y17068D01*
X-921Y17069D01*
X-930Y17071D01*
X-938Y17073D01*
X-947Y17076D01*
X-954Y17079D01*
X-961Y17082D01*
X-968Y17086D01*
X-974Y17089D01*
X-978Y17092D01*
X-983Y17095D01*
X-986Y17098D01*
X-989Y17100D01*
X-991Y17101D01*
X-992Y17103D01*
X-993Y17103D01*
X-999Y17110D01*
X-1005Y17117D01*
X-1010Y17124D01*
X-1015Y17132D01*
X-1018Y17139D01*
X-1021Y17146D01*
X-1026Y17159D01*
X-1027Y17166D01*
X-1029Y17172D01*
X-1029Y17176D01*
X-1030Y17181D01*
X-1030Y17185D01*
Y17187D01*
Y17189D01*
Y17189D01*
X-1030Y17202D01*
X-1027Y17213D01*
X-1024Y17224D01*
X-1020Y17232D01*
X-1017Y17240D01*
X-1013Y17245D01*
X-1011Y17248D01*
X-1010Y17249D01*
X-1002Y17257D01*
X-994Y17264D01*
X-985Y17270D01*
X-976Y17274D01*
X-969Y17277D01*
X-963Y17279D01*
X-961Y17280D01*
X-960D01*
X-958Y17280D01*
X-958D01*
X-968Y17286D01*
X-976Y17293D01*
X-984Y17299D01*
X-990Y17306D01*
X-995Y17313D01*
X-1000Y17320D01*
X-1003Y17326D01*
X-1006Y17333D01*
X-1009Y17338D01*
X-1010Y17344D01*
X-1012Y17348D01*
X-1013Y17353D01*
Y17356D01*
X-1013Y17359D01*
Y17361D01*
Y17361D01*
Y17368D01*
X-1012Y17374D01*
X-1009Y17386D01*
X-1005Y17397D01*
X-1000Y17406D01*
X-995Y17414D01*
X-990Y17420D01*
X-988Y17422D01*
X-987Y17424D01*
X-986Y17424D01*
X-986Y17425D01*
X-979Y17431D01*
X-973Y17437D01*
X-965Y17441D01*
X-958Y17445D01*
X-951Y17449D01*
X-944Y17451D01*
X-930Y17456D01*
X-924Y17457D01*
X-917Y17458D01*
X-912Y17459D01*
X-907Y17459D01*
X-904Y17460D01*
X-899D01*
X-887Y17459D01*
D02*
G37*
G36*
X-634Y17210D02*
Y17201D01*
X-633Y17194D01*
X-632Y17187D01*
X-632Y17180D01*
X-631Y17175D01*
X-630Y17170D01*
X-629Y17165D01*
X-628Y17162D01*
X-626Y17155D01*
X-624Y17151D01*
X-623Y17149D01*
X-623Y17148D01*
X-618Y17144D01*
X-613Y17140D01*
X-607Y17137D01*
X-600Y17135D01*
X-595Y17134D01*
X-590Y17134D01*
X-586D01*
X-578Y17135D01*
X-570Y17137D01*
X-563Y17140D01*
X-558Y17144D01*
X-554Y17148D01*
X-551Y17151D01*
X-549Y17154D01*
X-549Y17154D01*
X-546Y17160D01*
X-544Y17167D01*
X-542Y17175D01*
X-541Y17183D01*
X-540Y17190D01*
Y17196D01*
X-539Y17198D01*
Y17200D01*
Y17200D01*
Y17201D01*
X-466Y17193D01*
X-466Y17182D01*
X-467Y17171D01*
X-469Y17161D01*
X-470Y17152D01*
X-473Y17144D01*
X-475Y17136D01*
X-478Y17129D01*
X-481Y17122D01*
X-484Y17117D01*
X-487Y17113D01*
X-489Y17108D01*
X-492Y17105D01*
X-493Y17103D01*
X-495Y17101D01*
X-496Y17100D01*
X-496Y17099D01*
X-502Y17094D01*
X-509Y17089D01*
X-516Y17084D01*
X-523Y17081D01*
X-538Y17075D01*
X-552Y17072D01*
X-558Y17070D01*
X-565Y17069D01*
X-570Y17069D01*
X-575Y17068D01*
X-579Y17068D01*
X-584D01*
X-601Y17068D01*
X-617Y17070D01*
X-630Y17074D01*
X-641Y17077D01*
X-646Y17079D01*
X-650Y17081D01*
X-654Y17083D01*
X-656Y17084D01*
X-659Y17086D01*
X-661Y17087D01*
X-661Y17087D01*
X-662D01*
X-672Y17096D01*
X-680Y17104D01*
X-688Y17114D01*
X-693Y17122D01*
X-697Y17130D01*
X-700Y17136D01*
X-702Y17138D01*
X-702Y17140D01*
X-703Y17141D01*
Y17141D01*
X-706Y17152D01*
X-708Y17163D01*
X-709Y17176D01*
X-710Y17188D01*
X-711Y17199D01*
X-711Y17203D01*
Y17207D01*
Y17210D01*
Y17213D01*
Y17214D01*
Y17215D01*
Y17459D01*
X-634D01*
Y17210D01*
D02*
G37*
G36*
X-142Y12269D02*
X-126Y12266D01*
X-111Y12261D01*
X-104Y12259D01*
X-99Y12257D01*
X-93Y12254D01*
X-88Y12252D01*
X-84Y12250D01*
X-81Y12247D01*
X-78Y12246D01*
X-76Y12244D01*
X-75Y12244D01*
X-75Y12243D01*
X-69Y12238D01*
X-63Y12232D01*
X-58Y12226D01*
X-54Y12219D01*
X-47Y12204D01*
X-41Y12190D01*
X-39Y12183D01*
X-38Y12176D01*
X-36Y12171D01*
X-35Y12166D01*
X-34Y12162D01*
Y12159D01*
X-34Y12157D01*
Y12156D01*
X-107Y12149D01*
X-108Y12160D01*
X-110Y12170D01*
X-113Y12178D01*
X-115Y12184D01*
X-118Y12189D01*
X-120Y12192D01*
X-121Y12195D01*
X-122Y12195D01*
X-128Y12200D01*
X-134Y12203D01*
X-140Y12206D01*
X-146Y12207D01*
X-151Y12209D01*
X-155Y12209D01*
X-159D01*
X-167Y12209D01*
X-175Y12207D01*
X-181Y12205D01*
X-186Y12203D01*
X-190Y12200D01*
X-193Y12198D01*
X-195Y12196D01*
X-196Y12196D01*
X-200Y12191D01*
X-203Y12184D01*
X-206Y12178D01*
X-207Y12172D01*
X-209Y12167D01*
X-209Y12162D01*
Y12159D01*
Y12158D01*
X-209Y12150D01*
X-207Y12141D01*
X-204Y12134D01*
X-202Y12127D01*
X-199Y12121D01*
X-196Y12117D01*
X-195Y12114D01*
X-194Y12113D01*
X-192Y12109D01*
X-188Y12105D01*
X-184Y12101D01*
X-179Y12096D01*
X-169Y12086D01*
X-159Y12075D01*
X-149Y12066D01*
X-144Y12061D01*
X-141Y12058D01*
X-137Y12055D01*
X-135Y12052D01*
X-133Y12051D01*
X-133Y12050D01*
X-121Y12040D01*
X-111Y12030D01*
X-102Y12020D01*
X-93Y12012D01*
X-86Y12003D01*
X-79Y11996D01*
X-73Y11989D01*
X-68Y11982D01*
X-63Y11977D01*
X-59Y11972D01*
X-56Y11968D01*
X-54Y11964D01*
X-52Y11961D01*
X-51Y11959D01*
X-49Y11958D01*
Y11958D01*
X-42Y11945D01*
X-37Y11932D01*
X-32Y11920D01*
X-30Y11908D01*
X-27Y11899D01*
X-27Y11895D01*
X-26Y11891D01*
X-25Y11889D01*
X-25Y11886D01*
Y11885D01*
Y11885D01*
X-283D01*
Y11953D01*
X-136D01*
X-141Y11961D01*
X-146Y11966D01*
X-148Y11969D01*
X-149Y11971D01*
X-151Y11972D01*
X-151Y11973D01*
X-154Y11975D01*
X-156Y11978D01*
X-162Y11984D01*
X-169Y11991D01*
X-177Y11998D01*
X-184Y12005D01*
X-190Y12010D01*
X-192Y12013D01*
X-193Y12014D01*
X-195Y12015D01*
X-195Y12016D01*
X-207Y12027D01*
X-217Y12037D01*
X-226Y12045D01*
X-233Y12052D01*
X-238Y12058D01*
X-241Y12062D01*
X-243Y12064D01*
X-244Y12065D01*
X-251Y12074D01*
X-257Y12083D01*
X-262Y12091D01*
X-266Y12099D01*
X-269Y12105D01*
X-272Y12109D01*
X-273Y12112D01*
X-274Y12113D01*
X-276Y12122D01*
X-279Y12131D01*
X-281Y12140D01*
X-282Y12147D01*
X-282Y12154D01*
X-283Y12159D01*
Y12162D01*
Y12163D01*
X-282Y12171D01*
X-282Y12179D01*
X-278Y12194D01*
X-272Y12207D01*
X-266Y12218D01*
X-261Y12227D01*
X-258Y12231D01*
X-255Y12234D01*
X-253Y12236D01*
X-251Y12238D01*
X-251Y12238D01*
X-250Y12239D01*
X-244Y12244D01*
X-237Y12250D01*
X-230Y12254D01*
X-223Y12257D01*
X-207Y12262D01*
X-193Y12266D01*
X-186Y12268D01*
X-180Y12268D01*
X-175Y12269D01*
X-170Y12270D01*
X-166Y12270D01*
X-151D01*
X-142Y12269D01*
D02*
G37*
G36*
X110Y12020D02*
Y12012D01*
X110Y12004D01*
X111Y11997D01*
X111Y11990D01*
X112Y11985D01*
X113Y11980D01*
X114Y11975D01*
X115Y11972D01*
X117Y11965D01*
X119Y11961D01*
X120Y11959D01*
X121Y11958D01*
X125Y11954D01*
X131Y11950D01*
X137Y11947D01*
X143Y11945D01*
X148Y11944D01*
X153Y11944D01*
X157D01*
X166Y11945D01*
X173Y11947D01*
X180Y11950D01*
X185Y11954D01*
X189Y11958D01*
X192Y11961D01*
X194Y11964D01*
X194Y11964D01*
X197Y11970D01*
X199Y11977D01*
X201Y11985D01*
X202Y11993D01*
X203Y12000D01*
Y12006D01*
X204Y12008D01*
Y12010D01*
Y12010D01*
Y12011D01*
X278Y12003D01*
X277Y11992D01*
X276Y11981D01*
X275Y11971D01*
X273Y11962D01*
X271Y11954D01*
X268Y11946D01*
X265Y11939D01*
X262Y11933D01*
X259Y11927D01*
X257Y11923D01*
X254Y11918D01*
X252Y11915D01*
X250Y11913D01*
X248Y11911D01*
X248Y11910D01*
X247Y11909D01*
X241Y11904D01*
X234Y11899D01*
X227Y11895D01*
X220Y11891D01*
X206Y11885D01*
X192Y11882D01*
X185Y11880D01*
X179Y11879D01*
X173Y11879D01*
X169Y11878D01*
X165Y11878D01*
X159D01*
X142Y11878D01*
X127Y11880D01*
X113Y11884D01*
X102Y11887D01*
X97Y11889D01*
X93Y11891D01*
X90Y11893D01*
X87Y11895D01*
X85Y11896D01*
X83Y11897D01*
X82Y11897D01*
X82D01*
X71Y11906D01*
X63Y11914D01*
X55Y11924D01*
X50Y11932D01*
X46Y11940D01*
X43Y11946D01*
X42Y11948D01*
X41Y11950D01*
X41Y11951D01*
Y11951D01*
X38Y11962D01*
X35Y11973D01*
X34Y11986D01*
X33Y11998D01*
X32Y12009D01*
X32Y12013D01*
Y12017D01*
Y12020D01*
Y12023D01*
Y12024D01*
Y12025D01*
Y12269D01*
X110D01*
Y12020D01*
D02*
G37*
G36*
X-1037Y12057D02*
X-1030Y12046D01*
X-1022Y12035D01*
X-1015Y12026D01*
X-1007Y12019D01*
X-1001Y12013D01*
X-999Y12012D01*
X-998Y12010D01*
X-997Y12009D01*
X-996Y12009D01*
X-984Y11999D01*
X-972Y11992D01*
X-961Y11986D01*
X-952Y11981D01*
X-944Y11977D01*
X-939Y11975D01*
X-936Y11974D01*
X-935Y11974D01*
X-934Y11973D01*
X-933D01*
Y11906D01*
X-953Y11914D01*
X-971Y11923D01*
X-987Y11931D01*
X-995Y11936D01*
X-1001Y11941D01*
X-1008Y11945D01*
X-1013Y11949D01*
X-1018Y11953D01*
X-1022Y11955D01*
X-1025Y11958D01*
X-1027Y11960D01*
X-1028Y11961D01*
X-1029Y11962D01*
Y11685D01*
X-1102D01*
Y12070D01*
X-1042D01*
X-1037Y12057D01*
D02*
G37*
G36*
X-770Y11820D02*
Y11812D01*
X-769Y11804D01*
X-768Y11797D01*
X-768Y11790D01*
X-767Y11785D01*
X-766Y11780D01*
X-765Y11775D01*
X-764Y11772D01*
X-762Y11765D01*
X-760Y11761D01*
X-759Y11759D01*
X-758Y11758D01*
X-754Y11754D01*
X-748Y11750D01*
X-743Y11747D01*
X-736Y11745D01*
X-731Y11744D01*
X-726Y11744D01*
X-722D01*
X-713Y11745D01*
X-706Y11747D01*
X-699Y11750D01*
X-694Y11754D01*
X-690Y11758D01*
X-687Y11761D01*
X-685Y11764D01*
X-685Y11764D01*
X-682Y11770D01*
X-680Y11777D01*
X-678Y11785D01*
X-677Y11793D01*
X-676Y11800D01*
Y11806D01*
X-675Y11808D01*
Y11810D01*
Y11810D01*
Y11811D01*
X-602Y11803D01*
X-602Y11792D01*
X-603Y11781D01*
X-605Y11771D01*
X-606Y11762D01*
X-609Y11754D01*
X-611Y11746D01*
X-614Y11739D01*
X-617Y11733D01*
X-620Y11727D01*
X-623Y11723D01*
X-625Y11718D01*
X-627Y11715D01*
X-629Y11713D01*
X-631Y11711D01*
X-631Y11710D01*
X-632Y11709D01*
X-638Y11704D01*
X-645Y11699D01*
X-652Y11695D01*
X-659Y11691D01*
X-674Y11685D01*
X-688Y11682D01*
X-694Y11680D01*
X-701Y11679D01*
X-706Y11679D01*
X-710Y11678D01*
X-715Y11678D01*
X-720D01*
X-737Y11678D01*
X-753Y11680D01*
X-766Y11684D01*
X-777Y11687D01*
X-782Y11689D01*
X-786Y11691D01*
X-789Y11693D01*
X-792Y11695D01*
X-795Y11696D01*
X-796Y11697D01*
X-797Y11697D01*
X-798D01*
X-808Y11706D01*
X-816Y11714D01*
X-824Y11724D01*
X-829Y11732D01*
X-833Y11740D01*
X-836Y11746D01*
X-837Y11748D01*
X-838Y11750D01*
X-839Y11751D01*
Y11751D01*
X-842Y11762D01*
X-844Y11773D01*
X-845Y11786D01*
X-846Y11798D01*
X-847Y11809D01*
X-847Y11813D01*
Y11817D01*
Y11820D01*
Y11823D01*
Y11824D01*
Y11825D01*
Y12069D01*
X-770D01*
Y11820D01*
D02*
G37*
G36*
X7270Y6781D02*
X7258Y6776D01*
X7246Y6769D01*
X7235Y6761D01*
X7227Y6754D01*
X7219Y6746D01*
X7214Y6740D01*
X7212Y6738D01*
X7210Y6737D01*
X7210Y6736D01*
X7209Y6735D01*
X7200Y6723D01*
X7193Y6711D01*
X7186Y6700D01*
X7181Y6691D01*
X7177Y6683D01*
X7175Y6678D01*
X7174Y6675D01*
X7174Y6674D01*
X7173Y6673D01*
Y6672D01*
X7107D01*
X7114Y6692D01*
X7123Y6710D01*
X7132Y6726D01*
X7136Y6734D01*
X7141Y6740D01*
X7145Y6747D01*
X7149Y6752D01*
X7153Y6757D01*
X7156Y6761D01*
X7159Y6764D01*
X7160Y6766D01*
X7162Y6767D01*
X7162Y6768D01*
X6885D01*
Y6841D01*
X7270D01*
Y6781D01*
D02*
G37*
G36*
X7269Y6515D02*
X7011D01*
X7269Y6356D01*
Y6282D01*
X6885D01*
Y6354D01*
X7137D01*
X6885Y6509D01*
Y6587D01*
X7269D01*
Y6515D01*
D02*
G37*
G36*
Y6128D02*
X7011D01*
X7269Y5969D01*
Y5894D01*
X6885D01*
Y5966D01*
X7137D01*
X6885Y6122D01*
Y6200D01*
X7269D01*
Y6128D01*
D02*
G37*
G36*
X7093Y5833D02*
X7110Y5831D01*
X7125Y5829D01*
X7139Y5825D01*
X7152Y5822D01*
X7163Y5818D01*
X7174Y5813D01*
X7184Y5808D01*
X7193Y5803D01*
X7201Y5799D01*
X7207Y5794D01*
X7212Y5791D01*
X7217Y5787D01*
X7220Y5785D01*
X7222Y5783D01*
X7222Y5783D01*
X7232Y5773D01*
X7240Y5762D01*
X7247Y5751D01*
X7253Y5740D01*
X7258Y5729D01*
X7263Y5717D01*
X7266Y5707D01*
X7269Y5695D01*
X7271Y5685D01*
X7273Y5676D01*
X7274Y5668D01*
X7275Y5661D01*
Y5655D01*
X7276Y5650D01*
Y5647D01*
X7275Y5630D01*
X7273Y5614D01*
X7270Y5600D01*
X7268Y5588D01*
X7266Y5583D01*
X7265Y5578D01*
X7263Y5574D01*
X7262Y5570D01*
X7262Y5567D01*
X7260Y5566D01*
X7260Y5564D01*
Y5564D01*
X7255Y5554D01*
X7250Y5544D01*
X7244Y5536D01*
X7238Y5529D01*
X7234Y5523D01*
X7229Y5518D01*
X7227Y5515D01*
X7225Y5514D01*
X7217Y5506D01*
X7207Y5499D01*
X7198Y5493D01*
X7190Y5488D01*
X7183Y5484D01*
X7177Y5481D01*
X7174Y5479D01*
X7173Y5478D01*
X7173D01*
X7157Y5473D01*
X7141Y5468D01*
X7124Y5466D01*
X7108Y5464D01*
X7101Y5463D01*
X7095D01*
X7089Y5462D01*
X7084Y5461D01*
X7080D01*
X7077D01*
X7074D01*
X7074D01*
X7057Y5462D01*
X7041Y5464D01*
X7026Y5466D01*
X7012Y5469D01*
X7000Y5473D01*
X6988Y5477D01*
X6977Y5482D01*
X6967Y5487D01*
X6959Y5491D01*
X6951Y5496D01*
X6945Y5500D01*
X6939Y5504D01*
X6935Y5507D01*
X6932Y5509D01*
X6931Y5511D01*
X6930Y5512D01*
X6921Y5522D01*
X6913Y5532D01*
X6906Y5543D01*
X6900Y5554D01*
X6895Y5566D01*
X6891Y5577D01*
X6887Y5588D01*
X6884Y5598D01*
X6882Y5608D01*
X6881Y5618D01*
X6880Y5626D01*
X6878Y5633D01*
Y5639D01*
X6878Y5644D01*
Y5647D01*
X6878Y5663D01*
X6880Y5678D01*
X6883Y5691D01*
X6886Y5704D01*
X6890Y5716D01*
X6894Y5728D01*
X6899Y5738D01*
X6904Y5747D01*
X6909Y5755D01*
X6914Y5762D01*
X6918Y5769D01*
X6922Y5773D01*
X6925Y5777D01*
X6928Y5780D01*
X6929Y5782D01*
X6930Y5783D01*
X6940Y5791D01*
X6952Y5800D01*
X6963Y5806D01*
X6975Y5812D01*
X6987Y5817D01*
X7000Y5821D01*
X7011Y5825D01*
X7023Y5827D01*
X7033Y5829D01*
X7044Y5831D01*
X7053Y5832D01*
X7061Y5833D01*
X7067D01*
X7072Y5833D01*
X7075D01*
X7076D01*
X7093Y5833D01*
D02*
G37*
G36*
X7026Y5335D02*
X7011Y5331D01*
X6999Y5326D01*
X6988Y5320D01*
X6979Y5315D01*
X6973Y5310D01*
X6967Y5306D01*
X6965Y5304D01*
X6964Y5303D01*
X6957Y5294D01*
X6953Y5285D01*
X6949Y5277D01*
X6947Y5268D01*
X6946Y5261D01*
X6945Y5255D01*
X6945Y5253D01*
Y5250D01*
X6945Y5242D01*
X6946Y5235D01*
X6949Y5222D01*
X6954Y5210D01*
X6960Y5200D01*
X6966Y5192D01*
X6970Y5186D01*
X6974Y5183D01*
X6974Y5182D01*
X6975Y5182D01*
X6981Y5177D01*
X6988Y5174D01*
X6996Y5170D01*
X7004Y5167D01*
X7022Y5162D01*
X7039Y5160D01*
X7047Y5158D01*
X7055Y5157D01*
X7061Y5157D01*
X7067D01*
X7072Y5156D01*
X7076D01*
X7079D01*
X7079D01*
X7091Y5157D01*
X7103Y5157D01*
X7114Y5158D01*
X7124Y5160D01*
X7133Y5162D01*
X7141Y5164D01*
X7148Y5167D01*
X7155Y5170D01*
X7160Y5172D01*
X7165Y5174D01*
X7169Y5177D01*
X7173Y5178D01*
X7175Y5180D01*
X7177Y5181D01*
X7178Y5182D01*
X7179D01*
X7184Y5188D01*
X7189Y5193D01*
X7193Y5199D01*
X7197Y5204D01*
X7202Y5216D01*
X7205Y5227D01*
X7208Y5237D01*
X7208Y5241D01*
X7209Y5244D01*
X7210Y5247D01*
Y5251D01*
X7209Y5263D01*
X7207Y5272D01*
X7204Y5282D01*
X7201Y5289D01*
X7198Y5296D01*
X7195Y5300D01*
X7193Y5303D01*
X7192Y5304D01*
X7185Y5312D01*
X7177Y5318D01*
X7170Y5323D01*
X7162Y5326D01*
X7155Y5329D01*
X7150Y5332D01*
X7146Y5332D01*
X7146Y5333D01*
X7145D01*
X7163Y5409D01*
X7180Y5404D01*
X7194Y5398D01*
X7205Y5391D01*
X7215Y5384D01*
X7224Y5378D01*
X7229Y5374D01*
X7232Y5371D01*
X7234Y5370D01*
Y5370D01*
X7241Y5361D01*
X7248Y5352D01*
X7253Y5343D01*
X7258Y5333D01*
X7262Y5324D01*
X7265Y5314D01*
X7268Y5305D01*
X7270Y5296D01*
X7272Y5288D01*
X7273Y5280D01*
X7275Y5273D01*
X7275Y5267D01*
X7276Y5263D01*
Y5255D01*
X7275Y5241D01*
X7273Y5227D01*
X7271Y5213D01*
X7267Y5201D01*
X7263Y5189D01*
X7259Y5179D01*
X7254Y5169D01*
X7249Y5160D01*
X7244Y5152D01*
X7239Y5145D01*
X7235Y5139D01*
X7231Y5134D01*
X7227Y5130D01*
X7225Y5127D01*
X7223Y5126D01*
X7222Y5125D01*
X7212Y5116D01*
X7201Y5109D01*
X7189Y5102D01*
X7177Y5096D01*
X7165Y5092D01*
X7152Y5088D01*
X7140Y5085D01*
X7128Y5082D01*
X7117Y5080D01*
X7107Y5078D01*
X7097Y5078D01*
X7089Y5076D01*
X7083D01*
X7077Y5076D01*
X7074D01*
X7073D01*
X7057Y5076D01*
X7041Y5078D01*
X7026Y5081D01*
X7013Y5084D01*
X7000Y5088D01*
X6988Y5092D01*
X6977Y5096D01*
X6968Y5100D01*
X6959Y5105D01*
X6952Y5109D01*
X6945Y5114D01*
X6940Y5117D01*
X6936Y5120D01*
X6933Y5123D01*
X6931Y5124D01*
X6931Y5125D01*
X6921Y5134D01*
X6914Y5144D01*
X6907Y5155D01*
X6901Y5165D01*
X6895Y5176D01*
X6891Y5186D01*
X6888Y5196D01*
X6885Y5206D01*
X6883Y5216D01*
X6881Y5224D01*
X6880Y5232D01*
X6879Y5238D01*
Y5243D01*
X6878Y5247D01*
Y5251D01*
X6879Y5262D01*
X6880Y5273D01*
X6881Y5283D01*
X6883Y5293D01*
X6885Y5302D01*
X6888Y5310D01*
X6891Y5318D01*
X6894Y5325D01*
X6897Y5331D01*
X6900Y5337D01*
X6902Y5341D01*
X6904Y5346D01*
X6906Y5349D01*
X6908Y5351D01*
X6908Y5352D01*
X6909Y5353D01*
X6915Y5360D01*
X6922Y5367D01*
X6936Y5379D01*
X6952Y5389D01*
X6967Y5396D01*
X6974Y5400D01*
X6981Y5403D01*
X6987Y5405D01*
X6993Y5407D01*
X6997Y5409D01*
X7000Y5410D01*
X7002Y5411D01*
X7003D01*
X7026Y5335D01*
D02*
G37*
%LPC*%
G36*
X7773Y23590D02*
X7769D01*
X7761Y23589D01*
X7752Y23588D01*
X7738Y23584D01*
X7725Y23578D01*
X7713Y23571D01*
X7705Y23564D01*
X7698Y23559D01*
X7694Y23554D01*
X7692Y23554D01*
Y23553D01*
X7685Y23544D01*
X7681Y23532D01*
X7676Y23521D01*
X7673Y23510D01*
X7671Y23500D01*
X7669Y23491D01*
Y23488D01*
X7669Y23486D01*
Y23484D01*
Y23484D01*
X7873D01*
X7871Y23501D01*
X7867Y23516D01*
X7861Y23529D01*
X7856Y23540D01*
X7851Y23549D01*
X7846Y23555D01*
X7843Y23559D01*
X7841Y23560D01*
X7830Y23570D01*
X7818Y23577D01*
X7806Y23583D01*
X7794Y23586D01*
X7785Y23588D01*
X7776Y23589D01*
X7773Y23590D01*
D02*
G37*
G36*
X9146Y23589D02*
X9133D01*
X9125Y23587D01*
X9111Y23584D01*
X9098Y23577D01*
X9086Y23571D01*
X9078Y23565D01*
X9071Y23559D01*
X9067Y23555D01*
X9066Y23554D01*
Y23554D01*
X9055Y23539D01*
X9047Y23523D01*
X9042Y23505D01*
X9038Y23489D01*
X9036Y23474D01*
X9035Y23468D01*
Y23462D01*
X9034Y23457D01*
Y23454D01*
Y23451D01*
Y23451D01*
Y23438D01*
X9036Y23425D01*
X9037Y23414D01*
X9039Y23404D01*
X9041Y23394D01*
X9044Y23385D01*
X9046Y23377D01*
X9049Y23370D01*
X9052Y23364D01*
X9055Y23358D01*
X9058Y23354D01*
X9060Y23350D01*
X9062Y23347D01*
X9063Y23345D01*
X9065Y23344D01*
Y23343D01*
X9071Y23337D01*
X9077Y23332D01*
X9089Y23323D01*
X9102Y23317D01*
X9115Y23313D01*
X9125Y23310D01*
X9134Y23309D01*
X9137Y23309D01*
X9142D01*
X9150Y23309D01*
X9158Y23310D01*
X9173Y23314D01*
X9187Y23319D01*
X9198Y23326D01*
X9207Y23332D01*
X9214Y23338D01*
X9218Y23342D01*
X9219Y23343D01*
X9225Y23350D01*
X9229Y23358D01*
X9237Y23375D01*
X9241Y23392D01*
X9245Y23409D01*
X9248Y23425D01*
X9248Y23431D01*
Y23437D01*
X9249Y23441D01*
Y23445D01*
Y23448D01*
Y23448D01*
Y23461D01*
X9248Y23473D01*
X9246Y23484D01*
X9244Y23494D01*
X9242Y23504D01*
X9240Y23513D01*
X9237Y23521D01*
X9234Y23527D01*
X9231Y23534D01*
X9228Y23539D01*
X9226Y23544D01*
X9224Y23547D01*
X9222Y23550D01*
X9221Y23552D01*
X9219Y23554D01*
X9213Y23560D01*
X9207Y23565D01*
X9194Y23574D01*
X9181Y23580D01*
X9168Y23584D01*
X9158Y23587D01*
X9149Y23588D01*
X9146Y23589D01*
D02*
G37*
G36*
X6993D02*
X6980D01*
X6972Y23587D01*
X6957Y23584D01*
X6944Y23577D01*
X6933Y23571D01*
X6924Y23565D01*
X6917Y23559D01*
X6914Y23555D01*
X6912Y23554D01*
Y23554D01*
X6901Y23539D01*
X6894Y23523D01*
X6888Y23505D01*
X6884Y23489D01*
X6882Y23474D01*
X6881Y23468D01*
Y23462D01*
X6881Y23457D01*
Y23454D01*
Y23451D01*
Y23451D01*
Y23438D01*
X6882Y23425D01*
X6884Y23414D01*
X6885Y23404D01*
X6887Y23394D01*
X6891Y23385D01*
X6893Y23377D01*
X6896Y23370D01*
X6899Y23364D01*
X6901Y23358D01*
X6904Y23354D01*
X6907Y23350D01*
X6908Y23347D01*
X6910Y23345D01*
X6911Y23344D01*
Y23343D01*
X6917Y23337D01*
X6924Y23332D01*
X6936Y23323D01*
X6949Y23317D01*
X6961Y23313D01*
X6972Y23310D01*
X6980Y23309D01*
X6983Y23309D01*
X6988D01*
X6997Y23309D01*
X7005Y23310D01*
X7020Y23314D01*
X7033Y23319D01*
X7044Y23326D01*
X7053Y23332D01*
X7060Y23338D01*
X7064Y23342D01*
X7066Y23343D01*
X7071Y23350D01*
X7076Y23358D01*
X7083Y23375D01*
X7088Y23392D01*
X7092Y23409D01*
X7094Y23425D01*
X7095Y23431D01*
Y23437D01*
X7096Y23441D01*
Y23445D01*
Y23448D01*
Y23448D01*
Y23461D01*
X7094Y23473D01*
X7093Y23484D01*
X7091Y23494D01*
X7089Y23504D01*
X7086Y23513D01*
X7083Y23521D01*
X7080Y23527D01*
X7078Y23534D01*
X7075Y23539D01*
X7073Y23544D01*
X7070Y23547D01*
X7069Y23550D01*
X7067Y23552D01*
X7066Y23554D01*
X7060Y23560D01*
X7053Y23565D01*
X7040Y23574D01*
X7027Y23580D01*
X7015Y23584D01*
X7004Y23587D01*
X6996Y23588D01*
X6993Y23589D01*
D02*
G37*
G36*
X5474Y9075D02*
X5301Y8958D01*
X5474D01*
Y9075D01*
D02*
G37*
G36*
X4746Y4544D02*
X4629D01*
Y4442D01*
X4630Y4434D01*
Y4415D01*
X4631Y4411D01*
Y4402D01*
X4631Y4399D01*
Y4399D01*
X4633Y4389D01*
X4635Y4382D01*
X4638Y4376D01*
X4641Y4370D01*
X4644Y4366D01*
X4647Y4362D01*
X4648Y4361D01*
X4649Y4360D01*
X4655Y4356D01*
X4661Y4352D01*
X4667Y4350D01*
X4674Y4349D01*
X4678Y4348D01*
X4683Y4347D01*
X4686D01*
X4687D01*
X4695Y4348D01*
X4703Y4349D01*
X4710Y4352D01*
X4716Y4355D01*
X4720Y4358D01*
X4723Y4360D01*
X4726Y4362D01*
X4727Y4362D01*
X4731Y4369D01*
X4736Y4375D01*
X4739Y4382D01*
X4741Y4389D01*
X4743Y4394D01*
X4743Y4399D01*
X4744Y4402D01*
Y4406D01*
X4745Y4411D01*
Y4433D01*
X4746Y4446D01*
Y4544D01*
D02*
G37*
G36*
X4965D02*
X4829D01*
Y4438D01*
X4830Y4428D01*
X4831Y4419D01*
Y4410D01*
X4832Y4403D01*
X4832Y4396D01*
X4833Y4391D01*
X4834Y4386D01*
X4835Y4382D01*
X4836Y4376D01*
X4837Y4372D01*
Y4372D01*
X4840Y4364D01*
X4843Y4358D01*
X4847Y4352D01*
X4851Y4348D01*
X4855Y4345D01*
X4858Y4342D01*
X4859Y4341D01*
X4860Y4340D01*
X4866Y4336D01*
X4873Y4333D01*
X4879Y4332D01*
X4885Y4330D01*
X4891Y4329D01*
X4895Y4329D01*
X4898D01*
X4899D01*
X4908Y4329D01*
X4916Y4331D01*
X4924Y4333D01*
X4930Y4336D01*
X4935Y4339D01*
X4938Y4341D01*
X4941Y4342D01*
X4942Y4343D01*
X4947Y4349D01*
X4952Y4355D01*
X4955Y4362D01*
X4958Y4367D01*
X4959Y4372D01*
X4961Y4376D01*
X4962Y4379D01*
Y4380D01*
X4962Y4383D01*
Y4387D01*
X4963Y4397D01*
X4964Y4409D01*
Y4421D01*
X4965Y4432D01*
Y4544D01*
D02*
G37*
G36*
X4697Y16128D02*
X4580D01*
Y16026D01*
X4581Y16018D01*
Y16000D01*
X4581Y15995D01*
Y15987D01*
X4582Y15984D01*
Y15983D01*
X4584Y15974D01*
X4586Y15966D01*
X4589Y15960D01*
X4592Y15955D01*
X4595Y15950D01*
X4597Y15947D01*
X4599Y15945D01*
X4600Y15945D01*
X4606Y15940D01*
X4612Y15937D01*
X4618Y15935D01*
X4624Y15933D01*
X4629Y15932D01*
X4634Y15932D01*
X4637D01*
X4637D01*
X4646Y15932D01*
X4654Y15934D01*
X4660Y15936D01*
X4667Y15939D01*
X4671Y15942D01*
X4674Y15945D01*
X4677Y15946D01*
X4677Y15947D01*
X4682Y15953D01*
X4687Y15959D01*
X4690Y15966D01*
X4692Y15973D01*
X4693Y15978D01*
X4694Y15983D01*
X4695Y15986D01*
Y15991D01*
X4696Y15995D01*
Y16018D01*
X4697Y16031D01*
Y16128D01*
D02*
G37*
G36*
X4915D02*
X4780D01*
Y16023D01*
X4781Y16012D01*
X4782Y16003D01*
Y15995D01*
X4783Y15988D01*
X4783Y15981D01*
X4784Y15975D01*
X4785Y15971D01*
X4786Y15966D01*
X4786Y15961D01*
X4788Y15957D01*
Y15956D01*
X4791Y15948D01*
X4794Y15942D01*
X4798Y15937D01*
X4802Y15932D01*
X4806Y15929D01*
X4809Y15927D01*
X4810Y15925D01*
X4811Y15925D01*
X4817Y15921D01*
X4824Y15918D01*
X4830Y15916D01*
X4836Y15915D01*
X4842Y15914D01*
X4845Y15913D01*
X4849D01*
X4849D01*
X4859Y15914D01*
X4867Y15915D01*
X4875Y15918D01*
X4881Y15920D01*
X4885Y15923D01*
X4889Y15925D01*
X4892Y15927D01*
X4892Y15928D01*
X4898Y15933D01*
X4902Y15939D01*
X4905Y15946D01*
X4908Y15952D01*
X4910Y15957D01*
X4912Y15961D01*
X4912Y15964D01*
Y15965D01*
X4913Y15968D01*
Y15971D01*
X4914Y15981D01*
X4915Y15993D01*
Y16005D01*
X4915Y16016D01*
Y16128D01*
D02*
G37*
G36*
X4895Y15651D02*
X4892D01*
X4892D01*
X4884Y15650D01*
X4878Y15648D01*
X4872Y15645D01*
X4867Y15642D01*
X4863Y15639D01*
X4860Y15636D01*
X4859Y15634D01*
X4858Y15633D01*
X4855Y15627D01*
X4852Y15620D01*
X4849Y15611D01*
X4846Y15602D01*
X4844Y15594D01*
X4842Y15587D01*
X4841Y15582D01*
Y15581D01*
X4838Y15567D01*
X4835Y15554D01*
X4832Y15544D01*
X4830Y15536D01*
X4828Y15530D01*
X4827Y15525D01*
X4826Y15522D01*
Y15521D01*
X4845D01*
X4858D01*
X4867Y15522D01*
X4875Y15523D01*
X4882D01*
X4887Y15524D01*
X4890Y15525D01*
X4892Y15525D01*
X4892D01*
X4899Y15528D01*
X4905Y15531D01*
X4911Y15535D01*
X4915Y15539D01*
X4919Y15543D01*
X4922Y15545D01*
X4924Y15548D01*
X4925Y15548D01*
X4930Y15558D01*
X4935Y15566D01*
X4938Y15574D01*
X4939Y15582D01*
X4941Y15589D01*
X4941Y15594D01*
Y15598D01*
X4941Y15607D01*
X4939Y15614D01*
X4937Y15621D01*
X4934Y15626D01*
X4932Y15631D01*
X4929Y15634D01*
X4928Y15636D01*
X4927Y15637D01*
X4922Y15641D01*
X4915Y15645D01*
X4909Y15647D01*
X4904Y15650D01*
X4899Y15650D01*
X4895Y15651D01*
D02*
G37*
G36*
X4787Y15025D02*
X4773Y15024D01*
X4761Y15021D01*
X4750Y15018D01*
X4741Y15015D01*
X4734Y15011D01*
X4729Y15008D01*
X4726Y15005D01*
X4725Y15005D01*
X4717Y14996D01*
X4711Y14988D01*
X4707Y14979D01*
X4704Y14971D01*
X4703Y14963D01*
X4701Y14958D01*
Y14952D01*
X4702Y14942D01*
X4704Y14932D01*
X4708Y14923D01*
X4712Y14916D01*
X4716Y14910D01*
X4720Y14906D01*
X4723Y14903D01*
X4723Y14902D01*
X4733Y14896D01*
X4743Y14890D01*
X4753Y14886D01*
X4763Y14883D01*
X4773Y14882D01*
X4780Y14881D01*
X4783Y14880D01*
X4786D01*
X4786D01*
X4787D01*
Y15025D01*
D02*
G37*
G36*
X4895Y14164D02*
X4892D01*
X4892D01*
X4884Y14163D01*
X4878Y14161D01*
X4872Y14157D01*
X4867Y14154D01*
X4863Y14151D01*
X4860Y14148D01*
X4859Y14146D01*
X4858Y14145D01*
X4855Y14139D01*
X4852Y14132D01*
X4849Y14123D01*
X4846Y14114D01*
X4844Y14106D01*
X4842Y14099D01*
X4841Y14095D01*
Y14093D01*
X4838Y14079D01*
X4835Y14067D01*
X4832Y14057D01*
X4830Y14048D01*
X4828Y14042D01*
X4827Y14038D01*
X4826Y14035D01*
Y14034D01*
X4845D01*
X4858D01*
X4867Y14035D01*
X4875Y14035D01*
X4882D01*
X4887Y14036D01*
X4890Y14037D01*
X4892Y14038D01*
X4892D01*
X4899Y14041D01*
X4905Y14044D01*
X4911Y14048D01*
X4915Y14052D01*
X4919Y14055D01*
X4922Y14058D01*
X4924Y14060D01*
X4925Y14061D01*
X4930Y14070D01*
X4935Y14078D01*
X4938Y14087D01*
X4939Y14095D01*
X4941Y14101D01*
X4941Y14106D01*
Y14111D01*
X4941Y14119D01*
X4939Y14126D01*
X4937Y14133D01*
X4934Y14138D01*
X4932Y14143D01*
X4929Y14146D01*
X4928Y14148D01*
X4927Y14149D01*
X4922Y14154D01*
X4915Y14157D01*
X4909Y14160D01*
X4904Y14162D01*
X4899Y14163D01*
X4895Y14164D01*
D02*
G37*
G36*
X17005Y7192D02*
X17002D01*
X16995Y7191D01*
X16988Y7190D01*
X16983Y7187D01*
X16978Y7185D01*
X16974Y7183D01*
X16972Y7180D01*
X16970Y7179D01*
X16969Y7179D01*
X16965Y7174D01*
X16962Y7168D01*
X16959Y7163D01*
X16958Y7158D01*
X16957Y7153D01*
X16956Y7149D01*
Y7147D01*
Y7146D01*
X16957Y7138D01*
X16958Y7131D01*
X16960Y7125D01*
X16963Y7120D01*
X16965Y7117D01*
X16967Y7114D01*
X16969Y7112D01*
X16969Y7111D01*
X16974Y7107D01*
X16980Y7104D01*
X16986Y7102D01*
X16991Y7101D01*
X16996Y7100D01*
X16999Y7099D01*
X17003D01*
X17010Y7100D01*
X17017Y7101D01*
X17022Y7103D01*
X17027Y7106D01*
X17031Y7107D01*
X17034Y7110D01*
X17035Y7111D01*
X17036Y7111D01*
X17040Y7117D01*
X17043Y7122D01*
X17045Y7128D01*
X17046Y7133D01*
X17048Y7138D01*
X17048Y7142D01*
Y7144D01*
Y7145D01*
X17048Y7153D01*
X17046Y7159D01*
X17044Y7165D01*
X17042Y7170D01*
X17040Y7173D01*
X17038Y7176D01*
X17036Y7178D01*
X17036Y7179D01*
X17031Y7183D01*
X17025Y7186D01*
X17019Y7189D01*
X17014Y7190D01*
X17010Y7191D01*
X17005Y7192D01*
D02*
G37*
G36*
X17007Y7041D02*
X17002D01*
X16994Y7040D01*
X16986Y7038D01*
X16980Y7035D01*
X16974Y7032D01*
X16969Y7029D01*
X16966Y7027D01*
X16964Y7024D01*
X16963Y7024D01*
X16958Y7017D01*
X16954Y7010D01*
X16952Y7003D01*
X16949Y6996D01*
X16948Y6990D01*
X16948Y6985D01*
Y6982D01*
Y6981D01*
Y6980D01*
X16948Y6969D01*
X16950Y6960D01*
X16952Y6952D01*
X16955Y6945D01*
X16958Y6940D01*
X16960Y6936D01*
X16962Y6934D01*
X16963Y6933D01*
X16969Y6928D01*
X16975Y6924D01*
X16981Y6921D01*
X16987Y6919D01*
X16993Y6918D01*
X16997Y6917D01*
X17001D01*
X17009Y6917D01*
X17017Y6920D01*
X17024Y6922D01*
X17029Y6925D01*
X17034Y6928D01*
X17037Y6931D01*
X17039Y6933D01*
X17040Y6934D01*
X17045Y6941D01*
X17049Y6948D01*
X17052Y6956D01*
X17053Y6963D01*
X17055Y6970D01*
X17055Y6976D01*
Y6980D01*
Y6980D01*
Y6981D01*
X17055Y6989D01*
X17053Y6997D01*
X17051Y7004D01*
X17049Y7010D01*
X17046Y7015D01*
X17044Y7018D01*
X17043Y7021D01*
X17042Y7022D01*
X17036Y7028D01*
X17030Y7033D01*
X17024Y7036D01*
X17017Y7038D01*
X17011Y7039D01*
X17007Y7041D01*
D02*
G37*
G36*
X-163Y6849D02*
X-166D01*
X-174Y6849D01*
X-181Y6846D01*
X-187Y6844D01*
X-193Y6841D01*
X-197Y6838D01*
X-200Y6835D01*
X-202Y6832D01*
X-203Y6832D01*
X-208Y6824D01*
X-211Y6816D01*
X-214Y6807D01*
X-216Y6798D01*
X-217Y6790D01*
X-218Y6783D01*
Y6780D01*
Y6779D01*
Y6777D01*
Y6777D01*
X-217Y6764D01*
X-215Y6753D01*
X-213Y6744D01*
X-211Y6736D01*
X-208Y6731D01*
X-206Y6727D01*
X-204Y6725D01*
X-204Y6724D01*
X-198Y6719D01*
X-193Y6715D01*
X-187Y6712D01*
X-181Y6710D01*
X-177Y6709D01*
X-173Y6708D01*
X-170D01*
X-162Y6709D01*
X-155Y6711D01*
X-149Y6714D01*
X-143Y6718D01*
X-139Y6722D01*
X-135Y6725D01*
X-133Y6727D01*
X-132Y6728D01*
X-127Y6736D01*
X-123Y6745D01*
X-120Y6754D01*
X-118Y6763D01*
X-117Y6771D01*
X-116Y6777D01*
Y6780D01*
Y6782D01*
Y6783D01*
Y6783D01*
X-117Y6795D01*
X-118Y6805D01*
X-121Y6813D01*
X-124Y6820D01*
X-126Y6825D01*
X-128Y6829D01*
X-130Y6832D01*
X-131Y6832D01*
X-136Y6838D01*
X-142Y6842D01*
X-148Y6845D01*
X-154Y6847D01*
X-159Y6849D01*
X-163Y6849D01*
D02*
G37*
G36*
X-6918Y17338D02*
Y17206D01*
X-6829D01*
X-6918Y17338D01*
D02*
G37*
G36*
X7084Y5753D02*
X7081D01*
X7079D01*
X7078D01*
X7066Y5753D01*
X7055Y5752D01*
X7043Y5750D01*
X7034Y5749D01*
X7025Y5746D01*
X7017Y5744D01*
X7009Y5741D01*
X7002Y5739D01*
X6997Y5736D01*
X6991Y5733D01*
X6987Y5731D01*
X6984Y5728D01*
X6981Y5726D01*
X6979Y5725D01*
X6978Y5724D01*
X6977Y5723D01*
X6971Y5718D01*
X6966Y5712D01*
X6962Y5705D01*
X6958Y5699D01*
X6955Y5692D01*
X6952Y5686D01*
X6948Y5674D01*
X6946Y5664D01*
X6945Y5659D01*
X6945Y5655D01*
X6944Y5652D01*
Y5647D01*
X6945Y5639D01*
X6945Y5631D01*
X6947Y5623D01*
X6949Y5616D01*
X6955Y5603D01*
X6961Y5592D01*
X6967Y5583D01*
X6970Y5580D01*
X6972Y5577D01*
X6974Y5574D01*
X6976Y5573D01*
X6977Y5572D01*
X6977Y5571D01*
X6984Y5566D01*
X6991Y5561D01*
X6999Y5557D01*
X7007Y5554D01*
X7024Y5549D01*
X7040Y5545D01*
X7048Y5544D01*
X7055Y5543D01*
X7060Y5543D01*
X7066Y5542D01*
X7070Y5542D01*
X7074D01*
X7076D01*
X7077D01*
X7089Y5542D01*
X7100Y5543D01*
X7111Y5544D01*
X7121Y5546D01*
X7129Y5548D01*
X7138Y5551D01*
X7145Y5553D01*
X7152Y5556D01*
X7157Y5559D01*
X7162Y5561D01*
X7167Y5564D01*
X7170Y5566D01*
X7173Y5568D01*
X7174Y5569D01*
X7176Y5570D01*
X7176Y5570D01*
X7182Y5576D01*
X7187Y5582D01*
X7191Y5588D01*
X7196Y5595D01*
X7199Y5601D01*
X7201Y5608D01*
X7205Y5620D01*
X7208Y5630D01*
X7208Y5635D01*
X7209Y5639D01*
X7210Y5643D01*
Y5647D01*
X7209Y5656D01*
X7208Y5664D01*
X7204Y5680D01*
X7199Y5693D01*
X7193Y5704D01*
X7190Y5708D01*
X7187Y5712D01*
X7184Y5716D01*
X7182Y5719D01*
X7180Y5721D01*
X7178Y5723D01*
X7177Y5723D01*
X7177Y5724D01*
X7170Y5729D01*
X7163Y5734D01*
X7156Y5738D01*
X7148Y5741D01*
X7131Y5746D01*
X7115Y5750D01*
X7108Y5751D01*
X7101Y5752D01*
X7094Y5753D01*
X7089D01*
X7084Y5753D01*
D02*
G37*
%LPD*%
D12*
X5679Y4984D02*
X6703D01*
X5679D02*
Y6992D01*
X6703D01*
Y4984D02*
Y6992D01*
X-246Y8087D02*
X3455D01*
Y11634D01*
X-246Y8087D02*
Y11634D01*
X3455D01*
X-315Y13445D02*
X3386D01*
Y16992D01*
X-315Y13445D02*
Y16992D01*
X3386D01*
X-246Y2860D02*
X3455D01*
Y6407D01*
X-246Y2860D02*
Y6407D01*
X3455D01*
X12608Y6687D02*
X16309D01*
X12608Y3140D02*
Y6687D01*
X16309Y3140D02*
Y6687D01*
X12608Y3140D02*
X16309D01*
D76*
X3858Y15654D02*
Y16234D01*
X3553Y14463D02*
X4163D01*
X3868Y14118D02*
Y14797D01*
X3927Y10295D02*
Y10876D01*
X3622Y9104D02*
X4232D01*
X3937Y8760D02*
Y9439D01*
X3937Y3533D02*
Y4213D01*
X3622Y3878D02*
X4232D01*
X3927Y5069D02*
Y5650D01*
X12136Y3898D02*
Y4478D01*
X11831Y5669D02*
X12441D01*
X12126Y5335D02*
Y6014D01*
M02*
