G04*
G04 #@! TF.GenerationSoftware,Altium Limited,Altium Designer,24.10.1 (45)*
G04*
G04 Layer_Color=8421504*
%FSLAX24Y24*%
%MOIN*%
G70*
G04*
G04 #@! TF.SameCoordinates,C6CBD9EB-9E9D-4DD1-ADCD-94E966FD8E1D*
G04*
G04*
G04 #@! TF.FilePolarity,Positive*
G04*
G01*
G75*
%ADD25R,0.0606X0.0223*%
G04:AMPARAMS|DCode=26|XSize=60.6mil|YSize=22.3mil|CornerRadius=11.1mil|HoleSize=0mil|Usage=FLASHONLY|Rotation=0.000|XOffset=0mil|YOffset=0mil|HoleType=Round|Shape=RoundedRectangle|*
%AMROUNDEDRECTD26*
21,1,0.0606,0.0000,0,0,0.0*
21,1,0.0383,0.0223,0,0,0.0*
1,1,0.0223,0.0192,0.0000*
1,1,0.0223,-0.0192,0.0000*
1,1,0.0223,-0.0192,0.0000*
1,1,0.0223,0.0192,0.0000*
%
%ADD26ROUNDEDRECTD26*%
%ADD27R,0.0645X0.0197*%
G04:AMPARAMS|DCode=28|XSize=64.5mil|YSize=19.7mil|CornerRadius=9.8mil|HoleSize=0mil|Usage=FLASHONLY|Rotation=0.000|XOffset=0mil|YOffset=0mil|HoleType=Round|Shape=RoundedRectangle|*
%AMROUNDEDRECTD28*
21,1,0.0645,0.0000,0,0,0.0*
21,1,0.0448,0.0197,0,0,0.0*
1,1,0.0197,0.0224,0.0000*
1,1,0.0197,-0.0224,0.0000*
1,1,0.0197,-0.0224,0.0000*
1,1,0.0197,0.0224,0.0000*
%
%ADD28ROUNDEDRECTD28*%
%ADD29R,0.0591X0.0394*%
%ADD30R,0.0394X0.0591*%
%ADD31R,0.0472X0.0591*%
%ADD32R,0.0591X0.0472*%
%ADD33R,0.1181X0.0906*%
%ADD34R,0.1378X0.0906*%
%ADD35R,0.0433X0.0236*%
%ADD36R,0.0236X0.0433*%
%ADD37R,0.0480X0.0472*%
%ADD38R,0.1378X0.2244*%
%ADD39R,0.0551X0.0472*%
%ADD40R,0.0472X0.0551*%
%ADD41R,0.0630X0.0787*%
%ADD42R,0.0472X0.0551*%
%ADD43R,0.0551X0.0472*%
D25*
X9836Y12549D02*
D03*
X7388Y15620D02*
D03*
D26*
X9836Y12175D02*
D03*
Y11801D02*
D03*
X10793D02*
D03*
Y12175D02*
D03*
Y12549D02*
D03*
X6332Y15620D02*
D03*
Y16368D02*
D03*
X7388D02*
D03*
Y15994D02*
D03*
D27*
X2946Y18780D02*
D03*
D28*
Y18406D02*
D03*
Y18032D02*
D03*
X3865D02*
D03*
Y18780D02*
D03*
D29*
X9882Y8632D02*
D03*
Y9419D02*
D03*
X9350Y21663D02*
D03*
Y22451D02*
D03*
X11555Y5002D02*
D03*
Y5789D02*
D03*
X14026Y16880D02*
D03*
Y17667D02*
D03*
D30*
X12461Y8317D02*
D03*
X11673D02*
D03*
X9872Y4715D02*
D03*
X9085D02*
D03*
D31*
X10439Y21152D02*
D03*
X11726D02*
D03*
X10400Y22411D02*
D03*
X11687D02*
D03*
X13142Y7333D02*
D03*
X14429D02*
D03*
X10372Y5789D02*
D03*
X9085D02*
D03*
D32*
X14744Y5719D02*
D03*
Y4431D02*
D03*
D33*
X6949Y21703D02*
D03*
Y19734D02*
D03*
D34*
X4852Y9110D02*
D03*
Y11079D02*
D03*
X4813Y3888D02*
D03*
Y5856D02*
D03*
D35*
X6066Y9110D02*
D03*
X6926Y9480D02*
D03*
Y8740D02*
D03*
X12802Y15256D02*
D03*
X11942Y14886D02*
D03*
Y15626D02*
D03*
X6332Y3898D02*
D03*
X7192Y4268D02*
D03*
Y3528D02*
D03*
X6539Y17569D02*
D03*
X7398Y17939D02*
D03*
Y17199D02*
D03*
D36*
X6516Y12143D02*
D03*
X6886Y11283D02*
D03*
X6146D02*
D03*
D37*
X7785Y10238D02*
D03*
Y8738D02*
D03*
X8248Y5789D02*
D03*
Y4289D02*
D03*
D38*
X15000Y12530D02*
D03*
X13150D02*
D03*
D39*
X8691Y11378D02*
D03*
Y12165D02*
D03*
X8711Y10226D02*
D03*
Y9439D02*
D03*
X8366Y21703D02*
D03*
Y22490D02*
D03*
X7421Y14498D02*
D03*
Y13711D02*
D03*
X4872Y14468D02*
D03*
Y15256D02*
D03*
X4872Y16383D02*
D03*
Y17171D02*
D03*
X11555Y3858D02*
D03*
Y3071D02*
D03*
D40*
X13681Y8278D02*
D03*
X14468D02*
D03*
X7795Y7982D02*
D03*
X8583D02*
D03*
X3799Y19734D02*
D03*
X3012D02*
D03*
X10640Y15600D02*
D03*
X9852D02*
D03*
X12697Y17687D02*
D03*
X11909D02*
D03*
X10650Y16663D02*
D03*
X9862D02*
D03*
X10659Y17736D02*
D03*
X9872D02*
D03*
X9882Y3553D02*
D03*
X10669D02*
D03*
X8257Y3554D02*
D03*
X9044D02*
D03*
D41*
X9852Y10541D02*
D03*
X11033D02*
D03*
D42*
X10807Y13396D02*
D03*
X11594D02*
D03*
X14419Y10453D02*
D03*
X13632D02*
D03*
X14419Y9400D02*
D03*
X13632D02*
D03*
X1506Y16476D02*
D03*
X719D02*
D03*
X1506Y17549D02*
D03*
X719D02*
D03*
D43*
X4783Y19734D02*
D03*
Y20522D02*
D03*
X5768Y19734D02*
D03*
Y20522D02*
D03*
X6319Y14498D02*
D03*
Y13711D02*
D03*
M02*
