M48
;Layer_Color=9474304
;FILE_FORMAT=2:4
INCH,LZ
;TYPE=PLATED
T01F00S00C0.0280
T02F00S00C0.0354
T03F00S00C0.0551
T04F00S00C0.1260
%
T01
X011752Y002169
X012461
X012933Y009419
X011915Y009459
Y010443
Y01127
X012933Y010443
X007618Y01127
X006293Y010335
X00876Y013002
X008563Y013711
X008366Y015984
X008484Y017205
X009872Y018553
X011909Y019065
X012608Y022411
X007736Y023081
X004783Y018041
X00126Y018396
X001476Y019341
X013996Y015949
X014862
X01565Y014626
T02
X006191Y005496
Y006496
T03
X002904Y003884
Y005384
X002904Y00911
X013159Y005663
Y004163
X002904Y01061
X002835Y014468
Y015969
T04
X014783Y001545
X001358Y001427
X001575Y0231
X014823Y023396
M30
